0
SECTION
2
HEADER
9
$ACADVER
1
AC1008
9
$UCSORG
10
0.0
20
0.0
30
0.0
9
$UCSXDIR
10
1.0
20
0.0
30
0.0
9
$TILEMODE
70
1
9
$UCSYDIR
10
0.0
20
1.0
30
0.0
9
$EXTMIN
10
-44.818619
20
-25.262762
30
-0.000001
9
$EXTMAX
10
44.818619
20
25.262764
30
62.852009
0
ENDSEC
0
SECTION
2
TABLES
0
TABLE
2
LTYPE
70
1
0
LTYPE
2
CONTINUOUS
70
64
3
Solid line
72
65
73
0
40
0.0
0
ENDTAB
0
TABLE
2
LAYER
70
2
0
LAYER
2
TUMB
70
0
62
151
6
CONTINUOUS
0
LAYER
2
DOOR
70
0
62
11
6
CONTINUOUS
0
ENDTAB
0
TABLE
2
STYLE
70
1
0
STYLE
2
STANDARD
70
0
40
0.0
41
1.0
50
0.0
71
0
42
0.2
3
txt
4

0
ENDTAB
0
TABLE
2
UCS
70
0
0
ENDTAB
0
ENDSEC
0
SECTION
2
ENTITIES
0
POLYLINE
8
TUMB
66
1
70
64
71
788
72
1370
62
151
0
VERTEX
8
TUMB
10
-41.555885
20
-20.840347
30
0.000000
70
192
0
VERTEX
8
TUMB
10
-41.555893
20
24.000055
30
0.000000
70
192
0
VERTEX
8
TUMB
10
-41.555893
20
24.000055
30
39.852009
70
192
0
VERTEX
8
TUMB
10
-41.555885
20
-20.840345
30
39.852009
70
192
0
VERTEX
8
TUMB
10
-43.555885
20
-20.840349
30
0.000000
70
192
0
VERTEX
8
TUMB
10
-43.555893
20
24.000055
30
0.000000
70
192
0
VERTEX
8
TUMB
10
-43.555893
20
24.000055
30
39.852009
70
192
0
VERTEX
8
TUMB
10
-43.555885
20
-20.840347
30
39.852009
70
192
0
VERTEX
8
TUMB
10
43.555893
20
-20.840305
30
-0.000001
70
192
0
VERTEX
8
TUMB
10
43.555893
20
24.000067
30
0.000001
70
192
0
VERTEX
8
TUMB
10
43.555893
20
24.000067
30
39.852009
70
192
0
VERTEX
8
TUMB
10
43.555893
20
-20.840303
30
39.852009
70
192
0
VERTEX
8
TUMB
10
41.555893
20
-20.840309
30
-0.000001
70
192
0
VERTEX
8
TUMB
10
41.555893
20
24.000067
30
0.000001
70
192
0
VERTEX
8
TUMB
10
41.555893
20
24.000067
30
39.852009
70
192
0
VERTEX
8
TUMB
10
41.555893
20
-20.840307
30
39.852009
70
192
0
VERTEX
8
TUMB
10
41.555893
20
24.000067
30
39.852009
70
192
0
VERTEX
8
TUMB
10
41.555893
20
24.000067
30
6.999999
70
192
0
VERTEX
8
TUMB
10
-41.555893
20
24.000055
30
7.000000
70
192
0
VERTEX
8
TUMB
10
-41.555893
20
24.000055
30
39.852009
70
192
0
VERTEX
8
TUMB
10
41.555893
20
22.000067
30
39.852009
70
192
0
VERTEX
8
TUMB
10
41.555893
20
22.000067
30
6.999999
70
192
0
VERTEX
8
TUMB
10
-41.555893
20
22.000053
30
7.000000
70
192
0
VERTEX
8
TUMB
10
-41.555893
20
22.000053
30
39.852009
70
192
0
VERTEX
8
TUMB
10
41.555893
20
-20.840309
30
7.000000
70
192
0
VERTEX
8
TUMB
10
41.555893
20
24.000067
30
6.999999
70
192
0
VERTEX
8
TUMB
10
-41.555893
20
24.000055
30
7.000004
70
192
0
VERTEX
8
TUMB
10
-41.555885
20
-20.840347
30
7.000004
70
192
0
VERTEX
8
TUMB
10
41.555893
20
-20.840309
30
5.000000
70
192
0
VERTEX
8
TUMB
10
41.555893
20
24.000067
30
4.999999
70
192
0
VERTEX
8
TUMB
10
-41.555893
20
24.000055
30
5.000004
70
192
0
VERTEX
8
TUMB
10
-41.555885
20
-20.840347
30
5.000004
70
192
0
VERTEX
8
TUMB
10
41.555889
20
-16.840309
30
4.999999
70
192
0
VERTEX
8
TUMB
10
41.555889
20
-16.840309
30
-0.000001
70
192
0
VERTEX
8
TUMB
10
-41.555885
20
-16.840317
30
0.000000
70
192
0
VERTEX
8
TUMB
10
-41.555885
20
-16.840347
30
5.000000
70
192
0
VERTEX
8
TUMB
10
41.555889
20
-18.840309
30
4.999999
70
192
0
VERTEX
8
TUMB
10
41.555889
20
-18.840309
30
-0.000001
70
192
0
VERTEX
8
TUMB
10
-41.555885
20
-18.840317
30
0.000000
70
192
0
VERTEX
8
TUMB
10
-41.555885
20
-18.840347
30
5.000000
70
192
0
VERTEX
8
TUMB
10
-42.555855
20
-23.000032
30
42.852043
70
192
0
VERTEX
8
TUMB
10
-43.687233
20
-24.131414
30
42.852043
70
192
0
VERTEX
8
TUMB
10
-43.687233
20
-24.131414
30
42.533356
70
192
0
VERTEX
8
TUMB
10
-44.258003
20
-24.702185
30
42.371941
70
192
0
VERTEX
8
TUMB
10
-44.664009
20
-25.108191
30
41.948013
70
192
0
VERTEX
8
TUMB
10
-44.818611
20
-25.262762
30
41.352043
70
192
0
VERTEX
8
TUMB
10
-44.664009
20
-25.108191
30
40.756073
70
192
0
VERTEX
8
TUMB
10
-44.258003
20
-24.702185
30
40.332146
70
192
0
VERTEX
8
TUMB
10
-43.687233
20
-24.131414
30
40.170731
70
192
0
VERTEX
8
TUMB
10
-43.687233
20
-24.131414
30
39.852043
70
192
0
VERTEX
8
TUMB
10
-42.555855
20
-23.000032
30
39.852043
70
192
0
VERTEX
8
TUMB
10
42.555862
20
-23.000021
30
42.852043
70
192
0
VERTEX
8
TUMB
10
43.687241
20
-24.131369
30
42.852043
70
192
0
VERTEX
8
TUMB
10
43.687241
20
-24.131369
30
42.533356
70
192
0
VERTEX
8
TUMB
10
44.258011
20
-24.702169
30
42.371941
70
192
0
VERTEX
8
TUMB
10
44.664017
20
-25.108175
30
41.948013
70
192
0
VERTEX
8
TUMB
10
44.818619
20
-25.262747
30
41.352043
70
192
0
VERTEX
8
TUMB
10
44.664017
20
-25.108175
30
40.756073
70
192
0
VERTEX
8
TUMB
10
44.258011
20
-24.702169
30
40.332146
70
192
0
VERTEX
8
TUMB
10
43.687241
20
-24.131369
30
40.170731
70
192
0
VERTEX
8
TUMB
10
43.687241
20
-24.131399
30
39.852043
70
192
0
VERTEX
8
TUMB
10
42.555862
20
-23.000021
30
39.852043
70
192
0
VERTEX
8
TUMB
10
42.555862
20
23.000036
30
42.852028
70
192
0
VERTEX
8
TUMB
10
43.687241
20
24.131414
30
42.852028
70
192
0
VERTEX
8
TUMB
10
43.687241
20
24.131414
30
42.533340
70
192
0
VERTEX
8
TUMB
10
44.258011
20
24.702187
30
42.371925
70
192
0
VERTEX
8
TUMB
10
44.664017
20
25.108192
30
41.947998
70
192
0
VERTEX
8
TUMB
10
44.818619
20
25.262764
30
41.352028
70
192
0
VERTEX
8
TUMB
10
44.664017
20
25.108192
30
40.756058
70
192
0
VERTEX
8
TUMB
10
44.258011
20
24.702187
30
40.332130
70
192
0
VERTEX
8
TUMB
10
43.687241
20
24.131414
30
40.170715
70
192
0
VERTEX
8
TUMB
10
43.687241
20
24.131414
30
39.852028
70
192
0
VERTEX
8
TUMB
10
42.555862
20
23.000036
30
39.852028
70
192
0
VERTEX
8
TUMB
10
-42.555862
20
23.000025
30
42.852028
70
192
0
VERTEX
8
TUMB
10
-43.687241
20
24.131403
30
42.852028
70
192
0
VERTEX
8
TUMB
10
-43.687241
20
24.131403
30
42.533340
70
192
0
VERTEX
8
TUMB
10
-44.258011
20
24.702175
30
42.371925
70
192
0
VERTEX
8
TUMB
10
-44.664017
20
25.108181
30
41.947998
70
192
0
VERTEX
8
TUMB
10
-44.818619
20
25.262753
30
41.352028
70
192
0
VERTEX
8
TUMB
10
-44.664017
20
25.108181
30
40.756058
70
192
0
VERTEX
8
TUMB
10
-44.258011
20
24.702175
30
40.332130
70
192
0
VERTEX
8
TUMB
10
-43.687241
20
24.131403
30
40.170715
70
192
0
VERTEX
8
TUMB
10
-43.687241
20
24.131403
30
39.852028
70
192
0
VERTEX
8
TUMB
10
-42.555862
20
23.000025
30
39.852028
70
192
0
VERTEX
8
TUMB
10
-42.555893
20
21.877802
30
43.852009
70
192
0
VERTEX
8
TUMB
10
42.555893
20
21.877813
30
43.852009
70
192
0
VERTEX
8
TUMB
10
42.555893
20
21.877813
30
61.852009
70
192
0
VERTEX
8
TUMB
10
-42.555893
20
21.877802
30
61.852009
70
192
0
VERTEX
8
TUMB
10
43.555893
20
22.000067
30
42.852009
70
192
0
VERTEX
8
TUMB
10
43.555893
20
24.000067
30
42.852009
70
192
0
VERTEX
8
TUMB
10
43.555893
20
24.000067
30
62.852009
70
192
0
VERTEX
8
TUMB
10
43.555893
20
22.000067
30
62.852009
70
192
0
VERTEX
8
TUMB
10
-43.555893
20
22.000055
30
42.852009
70
192
0
VERTEX
8
TUMB
10
-43.555893
20
24.000055
30
42.852009
70
192
0
VERTEX
8
TUMB
10
-43.555893
20
24.000055
30
62.852009
70
192
0
VERTEX
8
TUMB
10
-43.555893
20
22.000055
30
62.852009
70
192
0
VERTEX
8
TUMB
10
-43.476212
20
22.000055
30
62.772320
70
192
0
VERTEX
8
TUMB
10
-42.061996
20
22.000055
30
61.358105
70
192
0
VERTEX
8
TUMB
10
-42.269104
20
21.292931
30
61.565212
70
192
0
VERTEX
8
TUMB
10
-42.769104
20
21.000057
30
62.065212
70
192
0
VERTEX
8
TUMB
10
-43.269104
20
21.292933
30
62.565212
70
192
0
VERTEX
8
TUMB
10
43.476181
20
22.000067
30
62.772320
70
192
0
VERTEX
8
TUMB
10
42.061996
20
22.000067
30
61.358105
70
192
0
VERTEX
8
TUMB
10
42.269089
20
21.292946
30
61.565212
70
192
0
VERTEX
8
TUMB
10
42.769089
20
21.000067
30
62.065212
70
192
0
VERTEX
8
TUMB
10
43.269089
20
21.292944
30
62.565212
70
192
0
VERTEX
8
TUMB
10
43.476181
20
22.000067
30
42.931698
70
192
0
VERTEX
8
TUMB
10
42.061996
20
22.000067
30
44.345913
70
192
0
VERTEX
8
TUMB
10
42.269089
20
21.292946
30
44.138805
70
192
0
VERTEX
8
TUMB
10
42.769089
20
21.000067
30
43.638805
70
192
0
VERTEX
8
TUMB
10
43.269089
20
21.292944
30
43.138805
70
192
0
VERTEX
8
TUMB
10
-43.476212
20
22.000055
30
42.931698
70
192
0
VERTEX
8
TUMB
10
-42.061996
20
22.000055
30
44.345913
70
192
0
VERTEX
8
TUMB
10
-42.269104
20
21.292931
30
44.138805
70
192
0
VERTEX
8
TUMB
10
-42.769104
20
21.000057
30
43.638805
70
192
0
VERTEX
8
TUMB
10
-43.269104
20
21.292933
30
43.138805
70
192
0
VERTEX
8
TUMB
10
-42.340862
20
-22.785034
30
42.852043
70
192
0
VERTEX
8
TUMB
10
-42.340862
20
-22.785034
30
39.852043
70
192
0
VERTEX
8
TUMB
10
42.340858
20
-22.785023
30
42.852043
70
192
0
VERTEX
8
TUMB
10
42.340858
20
-22.785023
30
39.852043
70
192
0
VERTEX
8
TUMB
10
42.340858
20
22.785038
30
42.852028
70
192
0
VERTEX
8
TUMB
10
42.340858
20
22.785038
30
39.852028
70
192
0
VERTEX
8
TUMB
10
-42.340870
20
22.785027
30
42.852028
70
192
0
VERTEX
8
TUMB
10
-42.340870
20
22.785027
30
39.852028
70
192
0
VERTEX
8
TUMB
10
-12.467865
20
-20.840349
30
7.000000
70
192
0
VERTEX
8
TUMB
10
-12.467869
20
22.000065
30
6.999999
70
192
0
VERTEX
8
TUMB
10
-12.467865
20
22.000051
30
39.852016
70
192
0
VERTEX
8
TUMB
10
-12.467865
20
-20.840387
30
39.852005
70
192
0
VERTEX
8
TUMB
10
-14.467865
20
-20.840349
30
7.000000
70
192
0
VERTEX
8
TUMB
10
-14.467869
20
22.000065
30
6.999999
70
192
0
VERTEX
8
TUMB
10
-14.467865
20
22.000051
30
39.852016
70
192
0
VERTEX
8
TUMB
10
-14.467865
20
-20.840387
30
39.852005
70
192
0
VERTEX
8
TUMB
10
-39.944210
20
17.525259
30
42.852024
70
192
0
VERTEX
8
TUMB
10
-39.916103
20
17.694214
30
42.852024
70
192
0
VERTEX
8
TUMB
10
-39.916103
20
17.356302
30
42.852024
70
192
0
VERTEX
8
TUMB
10
-39.916103
20
17.366489
30
42.909813
70
192
0
VERTEX
8
TUMB
10
-39.916103
20
17.395832
30
42.960629
70
192
0
VERTEX
8
TUMB
10
-39.916103
20
17.440779
30
42.998348
70
192
0
VERTEX
8
TUMB
10
-39.916103
20
17.495920
30
43.018417
70
192
0
VERTEX
8
TUMB
10
-39.916103
20
17.554598
30
43.018417
70
192
0
VERTEX
8
TUMB
10
-39.916103
20
17.609739
30
42.998348
70
192
0
VERTEX
8
TUMB
10
-39.916103
20
17.654686
30
42.960629
70
192
0
VERTEX
8
TUMB
10
-39.916103
20
17.684029
30
42.909813
70
192
0
VERTEX
8
TUMB
10
-39.835178
20
17.842794
30
42.852024
70
192
0
VERTEX
8
TUMB
10
-39.835178
20
17.207724
30
42.852024
70
192
0
VERTEX
8
TUMB
10
-39.835178
20
17.226873
30
42.960629
70
192
0
VERTEX
8
TUMB
10
-39.835178
20
17.282013
30
43.056133
70
192
0
VERTEX
8
TUMB
10
-39.835178
20
17.366489
30
43.127022
70
192
0
VERTEX
8
TUMB
10
-39.835178
20
17.470118
30
43.164738
70
192
0
VERTEX
8
TUMB
10
-39.835178
20
17.580400
30
43.164738
70
192
0
VERTEX
8
TUMB
10
-39.835178
20
17.684029
30
43.127022
70
192
0
VERTEX
8
TUMB
10
-39.835178
20
17.768505
30
43.056133
70
192
0
VERTEX
8
TUMB
10
-39.835178
20
17.823645
30
42.960629
70
192
0
VERTEX
8
TUMB
10
-39.711193
20
17.953075
30
42.852024
70
192
0
VERTEX
8
TUMB
10
-39.711193
20
17.097443
30
42.852024
70
192
0
VERTEX
8
TUMB
10
-39.711193
20
17.123243
30
42.998348
70
192
0
VERTEX
8
TUMB
10
-39.711193
20
17.197535
30
43.127022
70
192
0
VERTEX
8
TUMB
10
-39.711193
20
17.311352
30
43.222523
70
192
0
VERTEX
8
TUMB
10
-39.711193
20
17.450970
30
43.273342
70
192
0
VERTEX
8
TUMB
10
-39.711193
20
17.599548
30
43.273342
70
192
0
VERTEX
8
TUMB
10
-39.711193
20
17.739166
30
43.222523
70
192
0
VERTEX
8
TUMB
10
-39.711193
20
17.852983
30
43.127018
70
192
0
VERTEX
8
TUMB
10
-39.711193
20
17.927273
30
42.998348
70
192
0
VERTEX
8
TUMB
10
-39.559101
20
18.011753
30
42.852024
70
192
0
VERTEX
8
TUMB
10
-39.559101
20
17.038765
30
42.852024
70
192
0
VERTEX
8
TUMB
10
-39.559101
20
17.068108
30
43.018417
70
192
0
VERTEX
8
TUMB
10
-39.559101
20
17.152582
30
43.164738
70
192
0
VERTEX
8
TUMB
10
-39.559101
20
17.282013
30
43.273342
70
192
0
VERTEX
8
TUMB
10
-39.559101
20
17.440779
30
43.331127
70
192
0
VERTEX
8
TUMB
10
-39.559101
20
17.609739
30
43.331127
70
192
0
VERTEX
8
TUMB
10
-39.559101
20
17.768505
30
43.273342
70
192
0
VERTEX
8
TUMB
10
-39.559101
20
17.897934
30
43.164738
70
192
0
VERTEX
8
TUMB
10
-39.559101
20
17.982414
30
43.018417
70
192
0
VERTEX
8
TUMB
10
39.559105
20
18.011757
30
42.852028
70
192
0
VERTEX
8
TUMB
10
39.559105
20
17.038769
30
42.852028
70
192
0
VERTEX
8
TUMB
10
39.559105
20
17.068110
30
43.018421
70
192
0
VERTEX
8
TUMB
10
39.559105
20
17.152586
30
43.164742
70
192
0
VERTEX
8
TUMB
10
39.559105
20
17.282017
30
43.273346
70
192
0
VERTEX
8
TUMB
10
39.559105
20
17.440783
30
43.331131
70
192
0
VERTEX
8
TUMB
10
39.559105
20
17.609741
30
43.331131
70
192
0
VERTEX
8
TUMB
10
39.559105
20
17.768507
30
43.273346
70
192
0
VERTEX
8
TUMB
10
39.559105
20
17.897938
30
43.164742
70
192
0
VERTEX
8
TUMB
10
39.559105
20
17.982418
30
43.018421
70
192
0
VERTEX
8
TUMB
10
39.944210
20
17.525263
30
42.852028
70
192
0
VERTEX
8
TUMB
10
39.916103
20
17.694221
30
42.852028
70
192
0
VERTEX
8
TUMB
10
39.916103
20
17.356306
30
42.852028
70
192
0
VERTEX
8
TUMB
10
39.916103
20
17.366493
30
42.909817
70
192
0
VERTEX
8
TUMB
10
39.916103
20
17.395836
30
42.960632
70
192
0
VERTEX
8
TUMB
10
39.916103
20
17.440783
30
42.998352
70
192
0
VERTEX
8
TUMB
10
39.916103
20
17.495924
30
43.018417
70
192
0
VERTEX
8
TUMB
10
39.916103
20
17.554602
30
43.018417
70
192
0
VERTEX
8
TUMB
10
39.916103
20
17.609741
30
42.998352
70
192
0
VERTEX
8
TUMB
10
39.916103
20
17.654692
30
42.960632
70
192
0
VERTEX
8
TUMB
10
39.916103
20
17.684031
30
42.909817
70
192
0
VERTEX
8
TUMB
10
39.835178
20
17.842798
30
42.852028
70
192
0
VERTEX
8
TUMB
10
39.835178
20
17.207727
30
42.852028
70
192
0
VERTEX
8
TUMB
10
39.835178
20
17.226875
30
42.960632
70
192
0
VERTEX
8
TUMB
10
39.835178
20
17.282017
30
43.056137
70
192
0
VERTEX
8
TUMB
10
39.835178
20
17.366497
30
43.127022
70
192
0
VERTEX
8
TUMB
10
39.835178
20
17.470121
30
43.164742
70
192
0
VERTEX
8
TUMB
10
39.835178
20
17.580402
30
43.164742
70
192
0
VERTEX
8
TUMB
10
39.835178
20
17.684031
30
43.127022
70
192
0
VERTEX
8
TUMB
10
39.835178
20
17.768507
30
43.056137
70
192
0
VERTEX
8
TUMB
10
39.835178
20
17.823648
30
42.960632
70
192
0
VERTEX
8
TUMB
10
39.711201
20
17.953079
30
42.852028
70
192
0
VERTEX
8
TUMB
10
39.711201
20
17.097448
30
42.852028
70
192
0
VERTEX
8
TUMB
10
39.711201
20
17.123247
30
42.998352
70
192
0
VERTEX
8
TUMB
10
39.711201
20
17.197536
30
43.127022
70
192
0
VERTEX
8
TUMB
10
39.711201
20
17.311356
30
43.222527
70
192
0
VERTEX
8
TUMB
10
39.711201
20
17.450972
30
43.273346
70
192
0
VERTEX
8
TUMB
10
39.711201
20
17.599552
30
43.273346
70
192
0
VERTEX
8
TUMB
10
39.711201
20
17.739168
30
43.222527
70
192
0
VERTEX
8
TUMB
10
39.711201
20
17.852987
30
43.127022
70
192
0
VERTEX
8
TUMB
10
39.711201
20
17.927277
30
42.998352
70
192
0
VERTEX
8
TUMB
10
-39.944210
20
12.410676
30
42.852024
70
192
0
VERTEX
8
TUMB
10
-39.916103
20
12.579632
30
42.852024
70
192
0
VERTEX
8
TUMB
10
-39.916103
20
12.241720
30
42.852024
70
192
0
VERTEX
8
TUMB
10
-39.916103
20
12.251906
30
42.909813
70
192
0
VERTEX
8
TUMB
10
-39.916103
20
12.281249
30
42.960629
70
192
0
VERTEX
8
TUMB
10
-39.916103
20
12.326197
30
42.998348
70
192
0
VERTEX
8
TUMB
10
-39.916103
20
12.381337
30
43.018417
70
192
0
VERTEX
8
TUMB
10
-39.916103
20
12.440015
30
43.018417
70
192
0
VERTEX
8
TUMB
10
-39.916103
20
12.495155
30
42.998348
70
192
0
VERTEX
8
TUMB
10
-39.916103
20
12.540103
30
42.960629
70
192
0
VERTEX
8
TUMB
10
-39.916103
20
12.569445
30
42.909813
70
192
0
VERTEX
8
TUMB
10
-39.835178
20
12.728210
30
42.852024
70
192
0
VERTEX
8
TUMB
10
-39.835178
20
12.093141
30
42.852024
70
192
0
VERTEX
8
TUMB
10
-39.835178
20
12.112289
30
42.960629
70
192
0
VERTEX
8
TUMB
10
-39.835178
20
12.167430
30
43.056133
70
192
0
VERTEX
8
TUMB
10
-39.835178
20
12.251906
30
43.127022
70
192
0
VERTEX
8
TUMB
10
-39.835178
20
12.355536
30
43.164738
70
192
0
VERTEX
8
TUMB
10
-39.835178
20
12.465816
30
43.164738
70
192
0
VERTEX
8
TUMB
10
-39.835178
20
12.569445
30
43.127022
70
192
0
VERTEX
8
TUMB
10
-39.835178
20
12.653921
30
43.056133
70
192
0
VERTEX
8
TUMB
10
-39.835178
20
12.709062
30
42.960629
70
192
0
VERTEX
8
TUMB
10
-39.711193
20
12.838492
30
42.852024
70
192
0
VERTEX
8
TUMB
10
-39.711193
20
11.982860
30
42.852024
70
192
0
VERTEX
8
TUMB
10
-39.711193
20
12.008661
30
42.998348
70
192
0
VERTEX
8
TUMB
10
-39.711193
20
12.082951
30
43.127022
70
192
0
VERTEX
8
TUMB
10
-39.711193
20
12.196769
30
43.222523
70
192
0
VERTEX
8
TUMB
10
-39.711193
20
12.336386
30
43.273342
70
192
0
VERTEX
8
TUMB
10
-39.711193
20
12.484965
30
43.273342
70
192
0
VERTEX
8
TUMB
10
-39.711193
20
12.624582
30
43.222523
70
192
0
VERTEX
8
TUMB
10
-39.711193
20
12.738400
30
43.127018
70
192
0
VERTEX
8
TUMB
10
-39.711193
20
12.812691
30
42.998348
70
192
0
VERTEX
8
TUMB
10
-39.559101
20
12.897170
30
42.852024
70
192
0
VERTEX
8
TUMB
10
-39.559101
20
11.924182
30
42.852024
70
192
0
VERTEX
8
TUMB
10
-39.559101
20
11.953524
30
43.018417
70
192
0
VERTEX
8
TUMB
10
-39.559101
20
12.038000
30
43.164738
70
192
0
VERTEX
8
TUMB
10
-39.559101
20
12.167430
30
43.273342
70
192
0
VERTEX
8
TUMB
10
-39.559101
20
12.326197
30
43.331127
70
192
0
VERTEX
8
TUMB
10
-39.559101
20
12.495155
30
43.331127
70
192
0
VERTEX
8
TUMB
10
-39.559101
20
12.653921
30
43.273342
70
192
0
VERTEX
8
TUMB
10
-39.559101
20
12.783352
30
43.164738
70
192
0
VERTEX
8
TUMB
10
-39.559101
20
12.867831
30
43.018417
70
192
0
VERTEX
8
TUMB
10
39.559105
20
12.897173
30
42.852028
70
192
0
VERTEX
8
TUMB
10
39.559105
20
11.924185
30
42.852028
70
192
0
VERTEX
8
TUMB
10
39.559105
20
11.953527
30
43.018421
70
192
0
VERTEX
8
TUMB
10
39.559105
20
12.038003
30
43.164742
70
192
0
VERTEX
8
TUMB
10
39.559105
20
12.167434
30
43.273346
70
192
0
VERTEX
8
TUMB
10
39.559105
20
12.326200
30
43.331131
70
192
0
VERTEX
8
TUMB
10
39.559105
20
12.495158
30
43.331131
70
192
0
VERTEX
8
TUMB
10
39.559105
20
12.653924
30
43.273346
70
192
0
VERTEX
8
TUMB
10
39.559105
20
12.783355
30
43.164742
70
192
0
VERTEX
8
TUMB
10
39.559105
20
12.867834
30
43.018421
70
192
0
VERTEX
8
TUMB
10
39.944210
20
12.410679
30
42.852028
70
192
0
VERTEX
8
TUMB
10
39.916103
20
12.579638
30
42.852028
70
192
0
VERTEX
8
TUMB
10
39.916103
20
12.241723
30
42.852028
70
192
0
VERTEX
8
TUMB
10
39.916103
20
12.251910
30
42.909817
70
192
0
VERTEX
8
TUMB
10
39.916103
20
12.281252
30
42.960632
70
192
0
VERTEX
8
TUMB
10
39.916103
20
12.326200
30
42.998352
70
192
0
VERTEX
8
TUMB
10
39.916103
20
12.381340
30
43.018417
70
192
0
VERTEX
8
TUMB
10
39.916103
20
12.440018
30
43.018417
70
192
0
VERTEX
8
TUMB
10
39.916103
20
12.495158
30
42.998352
70
192
0
VERTEX
8
TUMB
10
39.916103
20
12.540110
30
42.960632
70
192
0
VERTEX
8
TUMB
10
39.916103
20
12.569448
30
42.909817
70
192
0
VERTEX
8
TUMB
10
39.835178
20
12.728214
30
42.852028
70
192
0
VERTEX
8
TUMB
10
39.835178
20
12.093143
30
42.852028
70
192
0
VERTEX
8
TUMB
10
39.835178
20
12.112293
30
42.960632
70
192
0
VERTEX
8
TUMB
10
39.835178
20
12.167434
30
43.056137
70
192
0
VERTEX
8
TUMB
10
39.835178
20
12.251913
30
43.127022
70
192
0
VERTEX
8
TUMB
10
39.835178
20
12.355538
30
43.164742
70
192
0
VERTEX
8
TUMB
10
39.835178
20
12.465819
30
43.164742
70
192
0
VERTEX
8
TUMB
10
39.835178
20
12.569448
30
43.127022
70
192
0
VERTEX
8
TUMB
10
39.835178
20
12.653924
30
43.056137
70
192
0
VERTEX
8
TUMB
10
39.835178
20
12.709065
30
42.960632
70
192
0
VERTEX
8
TUMB
10
39.711201
20
12.838495
30
42.852028
70
192
0
VERTEX
8
TUMB
10
39.711201
20
11.982865
30
42.852028
70
192
0
VERTEX
8
TUMB
10
39.711201
20
12.008664
30
42.998352
70
192
0
VERTEX
8
TUMB
10
39.711201
20
12.082954
30
43.127022
70
192
0
VERTEX
8
TUMB
10
39.711201
20
12.196773
30
43.222527
70
192
0
VERTEX
8
TUMB
10
39.711201
20
12.336390
30
43.273346
70
192
0
VERTEX
8
TUMB
10
39.711201
20
12.484969
30
43.273346
70
192
0
VERTEX
8
TUMB
10
39.711201
20
12.624585
30
43.222527
70
192
0
VERTEX
8
TUMB
10
39.711201
20
12.738404
30
43.127022
70
192
0
VERTEX
8
TUMB
10
39.711201
20
12.812694
30
42.998352
70
192
0
VERTEX
8
TUMB
10
-39.944210
20
7.296090
30
42.852024
70
192
0
VERTEX
8
TUMB
10
-39.916103
20
7.465049
30
42.852024
70
192
0
VERTEX
8
TUMB
10
-39.916103
20
7.127131
30
42.852024
70
192
0
VERTEX
8
TUMB
10
-39.916103
20
7.137321
30
42.909813
70
192
0
VERTEX
8
TUMB
10
-39.916103
20
7.166659
30
42.960629
70
192
0
VERTEX
8
TUMB
10
-39.916103
20
7.211610
30
42.998348
70
192
0
VERTEX
8
TUMB
10
-39.916103
20
7.266751
30
43.018417
70
192
0
VERTEX
8
TUMB
10
-39.916103
20
7.325428
30
43.018417
70
192
0
VERTEX
8
TUMB
10
-39.916103
20
7.380569
30
42.998348
70
192
0
VERTEX
8
TUMB
10
-39.916103
20
7.425520
30
42.960629
70
192
0
VERTEX
8
TUMB
10
-39.916103
20
7.454859
30
42.909813
70
192
0
VERTEX
8
TUMB
10
-39.835178
20
7.613625
30
42.852024
70
192
0
VERTEX
8
TUMB
10
-39.835178
20
6.978555
30
42.852024
70
192
0
VERTEX
8
TUMB
10
-39.835178
20
6.997704
30
42.960629
70
192
0
VERTEX
8
TUMB
10
-39.835178
20
7.052845
30
43.056133
70
192
0
VERTEX
8
TUMB
10
-39.835178
20
7.137324
30
43.127022
70
192
0
VERTEX
8
TUMB
10
-39.835178
20
7.240949
30
43.164738
70
192
0
VERTEX
8
TUMB
10
-39.835178
20
7.351231
30
43.164738
70
192
0
VERTEX
8
TUMB
10
-39.835178
20
7.454859
30
43.127022
70
192
0
VERTEX
8
TUMB
10
-39.835178
20
7.539335
30
43.056133
70
192
0
VERTEX
8
TUMB
10
-39.835178
20
7.594476
30
42.960629
70
192
0
VERTEX
8
TUMB
10
-39.711193
20
7.723903
30
42.852024
70
192
0
VERTEX
8
TUMB
10
-39.711193
20
6.868277
30
42.852024
70
192
0
VERTEX
8
TUMB
10
-39.711193
20
6.894075
30
42.998348
70
192
0
VERTEX
8
TUMB
10
-39.711193
20
6.968365
30
43.127022
70
192
0
VERTEX
8
TUMB
10
-39.711193
20
7.082183
30
43.222523
70
192
0
VERTEX
8
TUMB
10
-39.711193
20
7.221800
30
43.273342
70
192
0
VERTEX
8
TUMB
10
-39.711193
20
7.370379
30
43.273342
70
192
0
VERTEX
8
TUMB
10
-39.711193
20
7.509996
30
43.222523
70
192
0
VERTEX
8
TUMB
10
-39.711193
20
7.623815
30
43.127018
70
192
0
VERTEX
8
TUMB
10
-39.711193
20
7.698104
30
42.998348
70
192
0
VERTEX
8
TUMB
10
-39.559101
20
7.782584
30
42.852024
70
192
0
VERTEX
8
TUMB
10
-39.559101
20
6.809596
30
42.852024
70
192
0
VERTEX
8
TUMB
10
-39.559101
20
6.838934
30
43.018417
70
192
0
VERTEX
8
TUMB
10
-39.559101
20
6.923414
30
43.164738
70
192
0
VERTEX
8
TUMB
10
-39.559101
20
7.052845
30
43.273342
70
192
0
VERTEX
8
TUMB
10
-39.559101
20
7.211610
30
43.331127
70
192
0
VERTEX
8
TUMB
10
-39.559101
20
7.380569
30
43.331127
70
192
0
VERTEX
8
TUMB
10
-39.559101
20
7.539335
30
43.273342
70
192
0
VERTEX
8
TUMB
10
-39.559101
20
7.668766
30
43.164738
70
192
0
VERTEX
8
TUMB
10
-39.559101
20
7.753245
30
43.018417
70
192
0
VERTEX
8
TUMB
10
39.559105
20
7.782587
30
42.852028
70
192
0
VERTEX
8
TUMB
10
39.559105
20
6.809599
30
42.852028
70
192
0
VERTEX
8
TUMB
10
39.559105
20
6.838941
30
43.018421
70
192
0
VERTEX
8
TUMB
10
39.559105
20
6.923417
30
43.164742
70
192
0
VERTEX
8
TUMB
10
39.559105
20
7.052847
30
43.273346
70
192
0
VERTEX
8
TUMB
10
39.559105
20
7.211614
30
43.331131
70
192
0
VERTEX
8
TUMB
10
39.559105
20
7.380572
30
43.331131
70
192
0
VERTEX
8
TUMB
10
39.559105
20
7.539339
30
43.273346
70
192
0
VERTEX
8
TUMB
10
39.559105
20
7.668769
30
43.164742
70
192
0
VERTEX
8
TUMB
10
39.559105
20
7.753248
30
43.018421
70
192
0
VERTEX
8
TUMB
10
39.944210
20
7.296093
30
42.852028
70
192
0
VERTEX
8
TUMB
10
39.916103
20
7.465052
30
42.852028
70
192
0
VERTEX
8
TUMB
10
39.916103
20
7.127137
30
42.852028
70
192
0
VERTEX
8
TUMB
10
39.916103
20
7.137324
30
42.909817
70
192
0
VERTEX
8
TUMB
10
39.916103
20
7.166666
30
42.960632
70
192
0
VERTEX
8
TUMB
10
39.916103
20
7.211614
30
42.998352
70
192
0
VERTEX
8
TUMB
10
39.916103
20
7.266754
30
43.018417
70
192
0
VERTEX
8
TUMB
10
39.916103
20
7.325432
30
43.018417
70
192
0
VERTEX
8
TUMB
10
39.916103
20
7.380572
30
42.998352
70
192
0
VERTEX
8
TUMB
10
39.916103
20
7.425523
30
42.960632
70
192
0
VERTEX
8
TUMB
10
39.916103
20
7.454862
30
42.909817
70
192
0
VERTEX
8
TUMB
10
39.835178
20
7.613628
30
42.852028
70
192
0
VERTEX
8
TUMB
10
39.835178
20
6.978558
30
42.852028
70
192
0
VERTEX
8
TUMB
10
39.835178
20
6.997707
30
42.960632
70
192
0
VERTEX
8
TUMB
10
39.835178
20
7.052847
30
43.056137
70
192
0
VERTEX
8
TUMB
10
39.835178
20
7.137327
30
43.127022
70
192
0
VERTEX
8
TUMB
10
39.835178
20
7.240952
30
43.164742
70
192
0
VERTEX
8
TUMB
10
39.835178
20
7.351233
30
43.164742
70
192
0
VERTEX
8
TUMB
10
39.835178
20
7.454862
30
43.127022
70
192
0
VERTEX
8
TUMB
10
39.835178
20
7.539339
30
43.056137
70
192
0
VERTEX
8
TUMB
10
39.835178
20
7.594479
30
42.960632
70
192
0
VERTEX
8
TUMB
10
39.711201
20
7.723909
30
42.852028
70
192
0
VERTEX
8
TUMB
10
39.711201
20
6.868280
30
42.852028
70
192
0
VERTEX
8
TUMB
10
39.711201
20
6.894078
30
42.998352
70
192
0
VERTEX
8
TUMB
10
39.711201
20
6.968368
30
43.127022
70
192
0
VERTEX
8
TUMB
10
39.711201
20
7.082186
30
43.222527
70
192
0
VERTEX
8
TUMB
10
39.711201
20
7.221803
30
43.273346
70
192
0
VERTEX
8
TUMB
10
39.711201
20
7.370383
30
43.273346
70
192
0
VERTEX
8
TUMB
10
39.711201
20
7.510000
30
43.222527
70
192
0
VERTEX
8
TUMB
10
39.711201
20
7.623818
30
43.127022
70
192
0
VERTEX
8
TUMB
10
39.711201
20
7.698108
30
42.998352
70
192
0
VERTEX
8
TUMB
10
-39.944210
20
2.181503
30
42.852024
70
192
0
VERTEX
8
TUMB
10
-39.916103
20
2.350459
30
42.852024
70
192
0
VERTEX
8
TUMB
10
-39.916103
20
2.012547
30
42.852024
70
192
0
VERTEX
8
TUMB
10
-39.916103
20
2.022734
30
42.909813
70
192
0
VERTEX
8
TUMB
10
-39.916103
20
2.052076
30
42.960629
70
192
0
VERTEX
8
TUMB
10
-39.916103
20
2.097024
30
42.998348
70
192
0
VERTEX
8
TUMB
10
-39.916103
20
2.152164
30
43.018417
70
192
0
VERTEX
8
TUMB
10
-39.916103
20
2.210842
30
43.018417
70
192
0
VERTEX
8
TUMB
10
-39.916103
20
2.265983
30
42.998348
70
192
0
VERTEX
8
TUMB
10
-39.916103
20
2.310930
30
42.960629
70
192
0
VERTEX
8
TUMB
10
-39.916103
20
2.340272
30
42.909813
70
192
0
VERTEX
8
TUMB
10
-39.835178
20
2.499038
30
42.852024
70
192
0
VERTEX
8
TUMB
10
-39.835178
20
1.863968
30
42.852024
70
192
0
VERTEX
8
TUMB
10
-39.835178
20
1.883117
30
42.960629
70
192
0
VERTEX
8
TUMB
10
-39.835178
20
1.938258
30
43.056133
70
192
0
VERTEX
8
TUMB
10
-39.835178
20
2.022734
30
43.127022
70
192
0
VERTEX
8
TUMB
10
-39.835178
20
2.126363
30
43.164738
70
192
0
VERTEX
8
TUMB
10
-39.835178
20
2.236644
30
43.164738
70
192
0
VERTEX
8
TUMB
10
-39.835178
20
2.340272
30
43.127022
70
192
0
VERTEX
8
TUMB
10
-39.835178
20
2.424749
30
43.056133
70
192
0
VERTEX
8
TUMB
10
-39.835178
20
2.479889
30
42.960629
70
192
0
VERTEX
8
TUMB
10
-39.711193
20
2.609320
30
42.852024
70
192
0
VERTEX
8
TUMB
10
-39.711193
20
1.753687
30
42.852024
70
192
0
VERTEX
8
TUMB
10
-39.711193
20
1.779489
30
42.998348
70
192
0
VERTEX
8
TUMB
10
-39.711193
20
1.853778
30
43.127022
70
192
0
VERTEX
8
TUMB
10
-39.711193
20
1.967597
30
43.222523
70
192
0
VERTEX
8
TUMB
10
-39.711193
20
2.107213
30
43.273342
70
192
0
VERTEX
8
TUMB
10
-39.711193
20
2.255793
30
43.273342
70
192
0
VERTEX
8
TUMB
10
-39.711193
20
2.395410
30
43.222523
70
192
0
VERTEX
8
TUMB
10
-39.711193
20
2.509228
30
43.127018
70
192
0
VERTEX
8
TUMB
10
-39.711193
20
2.583518
30
42.998348
70
192
0
VERTEX
8
TUMB
10
-39.559101
20
2.667997
30
42.852024
70
192
0
VERTEX
8
TUMB
10
-39.559101
20
1.695009
30
42.852024
70
192
0
VERTEX
8
TUMB
10
-39.559101
20
1.724351
30
43.018417
70
192
0
VERTEX
8
TUMB
10
-39.559101
20
1.808827
30
43.164738
70
192
0
VERTEX
8
TUMB
10
-39.559101
20
1.938258
30
43.273342
70
192
0
VERTEX
8
TUMB
10
-39.559101
20
2.097024
30
43.331127
70
192
0
VERTEX
8
TUMB
10
-39.559101
20
2.265983
30
43.331127
70
192
0
VERTEX
8
TUMB
10
-39.559101
20
2.424749
30
43.273342
70
192
0
VERTEX
8
TUMB
10
-39.559101
20
2.554179
30
43.164738
70
192
0
VERTEX
8
TUMB
10
-39.559101
20
2.638659
30
43.018417
70
192
0
VERTEX
8
TUMB
10
39.559105
20
2.668001
30
42.852028
70
192
0
VERTEX
8
TUMB
10
39.559105
20
1.695012
30
42.852028
70
192
0
VERTEX
8
TUMB
10
39.559105
20
1.724355
30
43.018421
70
192
0
VERTEX
8
TUMB
10
39.559105
20
1.808831
30
43.164742
70
192
0
VERTEX
8
TUMB
10
39.559105
20
1.938261
30
43.273346
70
192
0
VERTEX
8
TUMB
10
39.559105
20
2.097027
30
43.331131
70
192
0
VERTEX
8
TUMB
10
39.559105
20
2.265986
30
43.331131
70
192
0
VERTEX
8
TUMB
10
39.559105
20
2.424752
30
43.273346
70
192
0
VERTEX
8
TUMB
10
39.559105
20
2.554182
30
43.164742
70
192
0
VERTEX
8
TUMB
10
39.559105
20
2.638662
30
43.018421
70
192
0
VERTEX
8
TUMB
10
39.944210
20
2.181507
30
42.852028
70
192
0
VERTEX
8
TUMB
10
39.916103
20
2.350466
30
42.852028
70
192
0
VERTEX
8
TUMB
10
39.916103
20
2.012551
30
42.852028
70
192
0
VERTEX
8
TUMB
10
39.916103
20
2.022737
30
42.909817
70
192
0
VERTEX
8
TUMB
10
39.916103
20
2.052079
30
42.960632
70
192
0
VERTEX
8
TUMB
10
39.916103
20
2.097027
30
42.998352
70
192
0
VERTEX
8
TUMB
10
39.916103
20
2.152168
30
43.018417
70
192
0
VERTEX
8
TUMB
10
39.916103
20
2.210845
30
43.018417
70
192
0
VERTEX
8
TUMB
10
39.916103
20
2.265986
30
42.998352
70
192
0
VERTEX
8
TUMB
10
39.916103
20
2.310937
30
42.960632
70
192
0
VERTEX
8
TUMB
10
39.916103
20
2.340276
30
42.909817
70
192
0
VERTEX
8
TUMB
10
39.835178
20
2.499042
30
42.852028
70
192
0
VERTEX
8
TUMB
10
39.835178
20
1.863971
30
42.852028
70
192
0
VERTEX
8
TUMB
10
39.835178
20
1.883120
30
42.960632
70
192
0
VERTEX
8
TUMB
10
39.835178
20
1.938261
30
43.056137
70
192
0
VERTEX
8
TUMB
10
39.835178
20
2.022741
30
43.127022
70
192
0
VERTEX
8
TUMB
10
39.835178
20
2.126366
30
43.164742
70
192
0
VERTEX
8
TUMB
10
39.835178
20
2.236647
30
43.164742
70
192
0
VERTEX
8
TUMB
10
39.835178
20
2.340276
30
43.127022
70
192
0
VERTEX
8
TUMB
10
39.835178
20
2.424752
30
43.056137
70
192
0
VERTEX
8
TUMB
10
39.835178
20
2.479893
30
42.960632
70
192
0
VERTEX
8
TUMB
10
39.711201
20
2.609323
30
42.852028
70
192
0
VERTEX
8
TUMB
10
39.711201
20
1.753693
30
42.852028
70
192
0
VERTEX
8
TUMB
10
39.711201
20
1.779492
30
42.998352
70
192
0
VERTEX
8
TUMB
10
39.711201
20
1.853782
30
43.127022
70
192
0
VERTEX
8
TUMB
10
39.711201
20
1.967600
30
43.222527
70
192
0
VERTEX
8
TUMB
10
39.711201
20
2.107217
30
43.273346
70
192
0
VERTEX
8
TUMB
10
39.711201
20
2.255796
30
43.273346
70
192
0
VERTEX
8
TUMB
10
39.711201
20
2.395413
30
43.222527
70
192
0
VERTEX
8
TUMB
10
39.711201
20
2.509232
30
43.127022
70
192
0
VERTEX
8
TUMB
10
39.711201
20
2.583521
30
42.998352
70
192
0
VERTEX
8
TUMB
10
-39.944210
20
-2.933083
30
42.852024
70
192
0
VERTEX
8
TUMB
10
-39.916103
20
-2.764124
30
42.852024
70
192
0
VERTEX
8
TUMB
10
-39.916103
20
-3.102042
30
42.852024
70
192
0
VERTEX
8
TUMB
10
-39.916103
20
-3.091852
30
42.909813
70
192
0
VERTEX
8
TUMB
10
-39.916103
20
-3.062514
30
42.960629
70
192
0
VERTEX
8
TUMB
10
-39.916103
20
-3.017563
30
42.998348
70
192
0
VERTEX
8
TUMB
10
-39.916103
20
-2.962422
30
43.018417
70
192
0
VERTEX
8
TUMB
10
-39.916103
20
-2.903744
30
43.018417
70
192
0
VERTEX
8
TUMB
10
-39.916103
20
-2.848604
30
42.998348
70
192
0
VERTEX
8
TUMB
10
-39.916103
20
-2.803653
30
42.960629
70
192
0
VERTEX
8
TUMB
10
-39.916103
20
-2.774314
30
42.909813
70
192
0
VERTEX
8
TUMB
10
-39.835178
20
-2.615548
30
42.852024
70
192
0
VERTEX
8
TUMB
10
-39.835178
20
-3.250618
30
42.852024
70
192
0
VERTEX
8
TUMB
10
-39.835178
20
-3.231469
30
42.960629
70
192
0
VERTEX
8
TUMB
10
-39.835178
20
-3.176329
30
43.056133
70
192
0
VERTEX
8
TUMB
10
-39.835178
20
-3.091849
30
43.127022
70
192
0
VERTEX
8
TUMB
10
-39.835178
20
-2.988224
30
43.164738
70
192
0
VERTEX
8
TUMB
10
-39.835178
20
-2.877943
30
43.164738
70
192
0
VERTEX
8
TUMB
10
-39.835178
20
-2.774314
30
43.127022
70
192
0
VERTEX
8
TUMB
10
-39.835178
20
-2.689838
30
43.056133
70
192
0
VERTEX
8
TUMB
10
-39.835178
20
-2.634697
30
42.960629
70
192
0
VERTEX
8
TUMB
10
-39.711193
20
-2.505270
30
42.852024
70
192
0
VERTEX
8
TUMB
10
-39.711193
20
-3.360896
30
42.852024
70
192
0
VERTEX
8
TUMB
10
-39.711193
20
-3.335098
30
42.998348
70
192
0
VERTEX
8
TUMB
10
-39.711193
20
-3.260808
30
43.127022
70
192
0
VERTEX
8
TUMB
10
-39.711193
20
-3.146990
30
43.222523
70
192
0
VERTEX
8
TUMB
10
-39.711193
20
-3.007373
30
43.273342
70
192
0
VERTEX
8
TUMB
10
-39.711193
20
-2.858793
30
43.273342
70
192
0
VERTEX
8
TUMB
10
-39.711193
20
-2.719177
30
43.222523
70
192
0
VERTEX
8
TUMB
10
-39.711193
20
-2.605358
30
43.127018
70
192
0
VERTEX
8
TUMB
10
-39.711193
20
-2.531069
30
42.998348
70
192
0
VERTEX
8
TUMB
10
-39.559101
20
-2.446589
30
42.852024
70
192
0
VERTEX
8
TUMB
10
-39.559101
20
-3.419577
30
42.852024
70
192
0
VERTEX
8
TUMB
10
-39.559101
20
-3.390239
30
43.018417
70
192
0
VERTEX
8
TUMB
10
-39.559101
20
-3.305759
30
43.164738
70
192
0
VERTEX
8
TUMB
10
-39.559101
20
-3.176329
30
43.273342
70
192
0
VERTEX
8
TUMB
10
-39.559101
20
-3.017563
30
43.331127
70
192
0
VERTEX
8
TUMB
10
-39.559101
20
-2.848604
30
43.331127
70
192
0
VERTEX
8
TUMB
10
-39.559101
20
-2.689838
30
43.273342
70
192
0
VERTEX
8
TUMB
10
-39.559101
20
-2.560407
30
43.164738
70
192
0
VERTEX
8
TUMB
10
-39.559101
20
-2.475928
30
43.018417
70
192
0
VERTEX
8
TUMB
10
39.559105
20
-2.446586
30
42.852028
70
192
0
VERTEX
8
TUMB
10
39.559105
20
-3.419574
30
42.852028
70
192
0
VERTEX
8
TUMB
10
39.559105
20
-3.390232
30
43.018421
70
192
0
VERTEX
8
TUMB
10
39.559105
20
-3.305756
30
43.164742
70
192
0
VERTEX
8
TUMB
10
39.559105
20
-3.176325
30
43.273346
70
192
0
VERTEX
8
TUMB
10
39.559105
20
-3.017560
30
43.331131
70
192
0
VERTEX
8
TUMB
10
39.559105
20
-2.848600
30
43.331131
70
192
0
VERTEX
8
TUMB
10
39.559105
20
-2.689835
30
43.273346
70
192
0
VERTEX
8
TUMB
10
39.559105
20
-2.560404
30
43.164742
70
192
0
VERTEX
8
TUMB
10
39.559105
20
-2.475924
30
43.018421
70
192
0
VERTEX
8
TUMB
10
39.944210
20
-2.933080
30
42.852028
70
192
0
VERTEX
8
TUMB
10
39.916103
20
-2.764121
30
42.852028
70
192
0
VERTEX
8
TUMB
10
39.916103
20
-3.102036
30
42.852028
70
192
0
VERTEX
8
TUMB
10
39.916103
20
-3.091849
30
42.909817
70
192
0
VERTEX
8
TUMB
10
39.916103
20
-3.062507
30
42.960632
70
192
0
VERTEX
8
TUMB
10
39.916103
20
-3.017560
30
42.998352
70
192
0
VERTEX
8
TUMB
10
39.916103
20
-2.962419
30
43.018417
70
192
0
VERTEX
8
TUMB
10
39.916103
20
-2.903741
30
43.018417
70
192
0
VERTEX
8
TUMB
10
39.916103
20
-2.848600
30
42.998352
70
192
0
VERTEX
8
TUMB
10
39.916103
20
-2.803649
30
42.960632
70
192
0
VERTEX
8
TUMB
10
39.916103
20
-2.774311
30
42.909817
70
192
0
VERTEX
8
TUMB
10
39.835178
20
-2.615545
30
42.852028
70
192
0
VERTEX
8
TUMB
10
39.835178
20
-3.250615
30
42.852028
70
192
0
VERTEX
8
TUMB
10
39.835178
20
-3.231466
30
42.960632
70
192
0
VERTEX
8
TUMB
10
39.835178
20
-3.176325
30
43.056137
70
192
0
VERTEX
8
TUMB
10
39.835178
20
-3.091846
30
43.127022
70
192
0
VERTEX
8
TUMB
10
39.835178
20
-2.988221
30
43.164742
70
192
0
VERTEX
8
TUMB
10
39.835178
20
-2.877939
30
43.164742
70
192
0
VERTEX
8
TUMB
10
39.835178
20
-2.774311
30
43.127022
70
192
0
VERTEX
8
TUMB
10
39.835178
20
-2.689835
30
43.056137
70
192
0
VERTEX
8
TUMB
10
39.835178
20
-2.634694
30
42.960632
70
192
0
VERTEX
8
TUMB
10
39.711201
20
-2.505263
30
42.852028
70
192
0
VERTEX
8
TUMB
10
39.711201
20
-3.360893
30
42.852028
70
192
0
VERTEX
8
TUMB
10
39.711201
20
-3.335095
30
42.998352
70
192
0
VERTEX
8
TUMB
10
39.711201
20
-3.260805
30
43.127022
70
192
0
VERTEX
8
TUMB
10
39.711201
20
-3.146986
30
43.222527
70
192
0
VERTEX
8
TUMB
10
39.711201
20
-3.007370
30
43.273346
70
192
0
VERTEX
8
TUMB
10
39.711201
20
-2.858790
30
43.273346
70
192
0
VERTEX
8
TUMB
10
39.711201
20
-2.719173
30
43.222527
70
192
0
VERTEX
8
TUMB
10
39.711201
20
-2.605355
30
43.127022
70
192
0
VERTEX
8
TUMB
10
39.711201
20
-2.531065
30
42.998352
70
192
0
VERTEX
8
TUMB
10
-39.944210
20
-8.047668
30
42.852024
70
192
0
VERTEX
8
TUMB
10
-39.916103
20
-7.878711
30
42.852024
70
192
0
VERTEX
8
TUMB
10
-39.916103
20
-8.216626
30
42.852024
70
192
0
VERTEX
8
TUMB
10
-39.916103
20
-8.206436
30
42.909813
70
192
0
VERTEX
8
TUMB
10
-39.916103
20
-8.177097
30
42.960629
70
192
0
VERTEX
8
TUMB
10
-39.916103
20
-8.132147
30
42.998348
70
192
0
VERTEX
8
TUMB
10
-39.916103
20
-8.077007
30
43.018417
70
192
0
VERTEX
8
TUMB
10
-39.916103
20
-8.018330
30
43.018417
70
192
0
VERTEX
8
TUMB
10
-39.916103
20
-7.963190
30
42.998348
70
192
0
VERTEX
8
TUMB
10
-39.916103
20
-7.918239
30
42.960629
70
192
0
VERTEX
8
TUMB
10
-39.916103
20
-7.888900
30
42.909813
70
192
0
VERTEX
8
TUMB
10
-39.835178
20
-7.730133
30
42.852024
70
192
0
VERTEX
8
TUMB
10
-39.835178
20
-8.365204
30
42.852024
70
192
0
VERTEX
8
TUMB
10
-39.835178
20
-8.346055
30
42.960629
70
192
0
VERTEX
8
TUMB
10
-39.835178
20
-8.290915
30
43.056133
70
192
0
VERTEX
8
TUMB
10
-39.835178
20
-8.206436
30
43.127022
70
192
0
VERTEX
8
TUMB
10
-39.835178
20
-8.102808
30
43.164738
70
192
0
VERTEX
8
TUMB
10
-39.835178
20
-7.992529
30
43.164738
70
192
0
VERTEX
8
TUMB
10
-39.835178
20
-7.888900
30
43.127022
70
192
0
VERTEX
8
TUMB
10
-39.835178
20
-7.804421
30
43.056133
70
192
0
VERTEX
8
TUMB
10
-39.835178
20
-7.749282
30
42.960629
70
192
0
VERTEX
8
TUMB
10
-39.711193
20
-7.619853
30
42.852024
70
192
0
VERTEX
8
TUMB
10
-39.711193
20
-8.475483
30
42.852024
70
192
0
VERTEX
8
TUMB
10
-39.711193
20
-8.449683
30
42.998348
70
192
0
VERTEX
8
TUMB
10
-39.711193
20
-8.375394
30
43.127022
70
192
0
VERTEX
8
TUMB
10
-39.711193
20
-8.261577
30
43.222523
70
192
0
VERTEX
8
TUMB
10
-39.711193
20
-8.121958
30
43.273342
70
192
0
VERTEX
8
TUMB
10
-39.711193
20
-7.973378
30
43.273342
70
192
0
VERTEX
8
TUMB
10
-39.711193
20
-7.833760
30
43.222523
70
192
0
VERTEX
8
TUMB
10
-39.711193
20
-7.719943
30
43.127018
70
192
0
VERTEX
8
TUMB
10
-39.711193
20
-7.645653
30
42.998348
70
192
0
VERTEX
8
TUMB
10
-39.559101
20
-7.561175
30
42.852024
70
192
0
VERTEX
8
TUMB
10
-39.559101
20
-8.534161
30
42.852024
70
192
0
VERTEX
8
TUMB
10
-39.559101
20
-8.504822
30
43.018417
70
192
0
VERTEX
8
TUMB
10
-39.559101
20
-8.420342
30
43.164738
70
192
0
VERTEX
8
TUMB
10
-39.559101
20
-8.290915
30
43.273342
70
192
0
VERTEX
8
TUMB
10
-39.559101
20
-8.132147
30
43.331127
70
192
0
VERTEX
8
TUMB
10
-39.559101
20
-7.963190
30
43.331127
70
192
0
VERTEX
8
TUMB
10
-39.559101
20
-7.804421
30
43.273342
70
192
0
VERTEX
8
TUMB
10
-39.559101
20
-7.674992
30
43.164738
70
192
0
VERTEX
8
TUMB
10
-39.559101
20
-7.590514
30
43.018417
70
192
0
VERTEX
8
TUMB
10
39.559105
20
-7.561172
30
42.852028
70
192
0
VERTEX
8
TUMB
10
39.559105
20
-8.534158
30
42.852028
70
192
0
VERTEX
8
TUMB
10
39.559105
20
-8.504819
30
43.018421
70
192
0
VERTEX
8
TUMB
10
39.559105
20
-8.420340
30
43.164742
70
192
0
VERTEX
8
TUMB
10
39.559105
20
-8.290911
30
43.273346
70
192
0
VERTEX
8
TUMB
10
39.559105
20
-8.132143
30
43.331131
70
192
0
VERTEX
8
TUMB
10
39.559105
20
-7.963185
30
43.331131
70
192
0
VERTEX
8
TUMB
10
39.559105
20
-7.804418
30
43.273346
70
192
0
VERTEX
8
TUMB
10
39.559105
20
-7.674989
30
43.164742
70
192
0
VERTEX
8
TUMB
10
39.559105
20
-7.590511
30
43.018421
70
192
0
VERTEX
8
TUMB
10
39.944210
20
-8.047666
30
42.852028
70
192
0
VERTEX
8
TUMB
10
39.916103
20
-7.878707
30
42.852028
70
192
0
VERTEX
8
TUMB
10
39.916103
20
-8.216622
30
42.852028
70
192
0
VERTEX
8
TUMB
10
39.916103
20
-8.206432
30
42.909817
70
192
0
VERTEX
8
TUMB
10
39.916103
20
-8.177094
30
42.960632
70
192
0
VERTEX
8
TUMB
10
39.916103
20
-8.132143
30
42.998352
70
192
0
VERTEX
8
TUMB
10
39.916103
20
-8.077004
30
43.018417
70
192
0
VERTEX
8
TUMB
10
39.916103
20
-8.018327
30
43.018417
70
192
0
VERTEX
8
TUMB
10
39.916103
20
-7.963185
30
42.998352
70
192
0
VERTEX
8
TUMB
10
39.916103
20
-7.918236
30
42.960632
70
192
0
VERTEX
8
TUMB
10
39.916103
20
-7.888897
30
42.909817
70
192
0
VERTEX
8
TUMB
10
39.835178
20
-7.730130
30
42.852028
70
192
0
VERTEX
8
TUMB
10
39.835178
20
-8.365200
30
42.852028
70
192
0
VERTEX
8
TUMB
10
39.835178
20
-8.346051
30
42.960632
70
192
0
VERTEX
8
TUMB
10
39.835178
20
-8.290911
30
43.056137
70
192
0
VERTEX
8
TUMB
10
39.835178
20
-8.206432
30
43.127022
70
192
0
VERTEX
8
TUMB
10
39.835178
20
-8.102804
30
43.164742
70
192
0
VERTEX
8
TUMB
10
39.835178
20
-7.992526
30
43.164742
70
192
0
VERTEX
8
TUMB
10
39.835178
20
-7.888897
30
43.127022
70
192
0
VERTEX
8
TUMB
10
39.835178
20
-7.804418
30
43.056137
70
192
0
VERTEX
8
TUMB
10
39.835178
20
-7.749279
30
42.960632
70
192
0
VERTEX
8
TUMB
10
39.711201
20
-7.619850
30
42.852028
70
192
0
VERTEX
8
TUMB
10
39.711201
20
-8.475480
30
42.852028
70
192
0
VERTEX
8
TUMB
10
39.711201
20
-8.449680
30
42.998352
70
192
0
VERTEX
8
TUMB
10
39.711201
20
-8.375390
30
43.127022
70
192
0
VERTEX
8
TUMB
10
39.711201
20
-8.261572
30
43.222527
70
192
0
VERTEX
8
TUMB
10
39.711201
20
-8.121955
30
43.273346
70
192
0
VERTEX
8
TUMB
10
39.711201
20
-7.973375
30
43.273346
70
192
0
VERTEX
8
TUMB
10
39.711201
20
-7.833756
30
43.222527
70
192
0
VERTEX
8
TUMB
10
39.711201
20
-7.719940
30
43.127022
70
192
0
VERTEX
8
TUMB
10
39.711201
20
-7.645650
30
42.998352
70
192
0
VERTEX
8
TUMB
10
-39.944210
20
-13.162253
30
42.852024
70
192
0
VERTEX
8
TUMB
10
-39.916103
20
-12.993296
30
42.852024
70
192
0
VERTEX
8
TUMB
10
-39.916103
20
-13.331211
30
42.852024
70
192
0
VERTEX
8
TUMB
10
-39.916103
20
-13.321021
30
42.909813
70
192
0
VERTEX
8
TUMB
10
-39.916103
20
-13.291682
30
42.960629
70
192
0
VERTEX
8
TUMB
10
-39.916103
20
-13.246733
30
42.998348
70
192
0
VERTEX
8
TUMB
10
-39.916103
20
-13.191592
30
43.018417
70
192
0
VERTEX
8
TUMB
10
-39.916103
20
-13.132915
30
43.018417
70
192
0
VERTEX
8
TUMB
10
-39.916103
20
-13.077774
30
42.998348
70
192
0
VERTEX
8
TUMB
10
-39.916103
20
-13.032825
30
42.960629
70
192
0
VERTEX
8
TUMB
10
-39.916103
20
-13.003486
30
42.909813
70
192
0
VERTEX
8
TUMB
10
-39.835178
20
-12.844718
30
42.852024
70
192
0
VERTEX
8
TUMB
10
-39.835178
20
-13.479789
30
42.852024
70
192
0
VERTEX
8
TUMB
10
-39.835178
20
-13.460639
30
42.960629
70
192
0
VERTEX
8
TUMB
10
-39.835178
20
-13.405499
30
43.056133
70
192
0
VERTEX
8
TUMB
10
-39.835178
20
-13.321021
30
43.127022
70
192
0
VERTEX
8
TUMB
10
-39.835178
20
-13.217392
30
43.164738
70
192
0
VERTEX
8
TUMB
10
-39.835178
20
-13.107114
30
43.164738
70
192
0
VERTEX
8
TUMB
10
-39.835178
20
-13.003486
30
43.127022
70
192
0
VERTEX
8
TUMB
10
-39.835178
20
-12.919006
30
43.056133
70
192
0
VERTEX
8
TUMB
10
-39.835178
20
-12.863867
30
42.960629
70
192
0
VERTEX
8
TUMB
10
-39.711193
20
-12.734439
30
42.852024
70
192
0
VERTEX
8
TUMB
10
-39.711193
20
-13.590068
30
42.852024
70
192
0
VERTEX
8
TUMB
10
-39.711193
20
-13.564268
30
42.998348
70
192
0
VERTEX
8
TUMB
10
-39.711193
20
-13.489978
30
43.127022
70
192
0
VERTEX
8
TUMB
10
-39.711193
20
-13.376160
30
43.222523
70
192
0
VERTEX
8
TUMB
10
-39.711193
20
-13.236543
30
43.273342
70
192
0
VERTEX
8
TUMB
10
-39.711193
20
-13.087964
30
43.273342
70
192
0
VERTEX
8
TUMB
10
-39.711193
20
-12.948347
30
43.222523
70
192
0
VERTEX
8
TUMB
10
-39.711193
20
-12.834528
30
43.127018
70
192
0
VERTEX
8
TUMB
10
-39.711193
20
-12.760239
30
42.998348
70
192
0
VERTEX
8
TUMB
10
-39.559101
20
-12.675761
30
42.852024
70
192
0
VERTEX
8
TUMB
10
-39.559101
20
-13.648746
30
42.852024
70
192
0
VERTEX
8
TUMB
10
-39.559101
20
-13.619407
30
43.018417
70
192
0
VERTEX
8
TUMB
10
-39.559101
20
-13.534929
30
43.164738
70
192
0
VERTEX
8
TUMB
10
-39.559101
20
-13.405499
30
43.273342
70
192
0
VERTEX
8
TUMB
10
-39.559101
20
-13.246731
30
43.331127
70
192
0
VERTEX
8
TUMB
10
-39.559101
20
-13.077774
30
43.331127
70
192
0
VERTEX
8
TUMB
10
-39.559101
20
-12.919006
30
43.273342
70
192
0
VERTEX
8
TUMB
10
-39.559101
20
-12.789577
30
43.164738
70
192
0
VERTEX
8
TUMB
10
-39.559101
20
-12.705100
30
43.018417
70
192
0
VERTEX
8
TUMB
10
39.559105
20
-12.675757
30
42.852028
70
192
0
VERTEX
8
TUMB
10
39.559105
20
-13.648743
30
42.852028
70
192
0
VERTEX
8
TUMB
10
39.559105
20
-13.619404
30
43.018421
70
192
0
VERTEX
8
TUMB
10
39.559105
20
-13.534925
30
43.164742
70
192
0
VERTEX
8
TUMB
10
39.559105
20
-13.405496
30
43.273346
70
192
0
VERTEX
8
TUMB
10
39.559105
20
-13.246728
30
43.331131
70
192
0
VERTEX
8
TUMB
10
39.559105
20
-13.077770
30
43.331131
70
192
0
VERTEX
8
TUMB
10
39.559105
20
-12.919003
30
43.273346
70
192
0
VERTEX
8
TUMB
10
39.559105
20
-12.789575
30
43.164742
70
192
0
VERTEX
8
TUMB
10
39.559105
20
-12.705096
30
43.018421
70
192
0
VERTEX
8
TUMB
10
39.944210
20
-13.162251
30
42.852028
70
192
0
VERTEX
8
TUMB
10
39.916103
20
-12.993293
30
42.852028
70
192
0
VERTEX
8
TUMB
10
39.916103
20
-13.331207
30
42.852028
70
192
0
VERTEX
8
TUMB
10
39.916103
20
-13.321017
30
42.909817
70
192
0
VERTEX
8
TUMB
10
39.916103
20
-13.291678
30
42.960632
70
192
0
VERTEX
8
TUMB
10
39.916103
20
-13.246728
30
42.998352
70
192
0
VERTEX
8
TUMB
10
39.916103
20
-13.191588
30
43.018417
70
192
0
VERTEX
8
TUMB
10
39.916103
20
-13.132912
30
43.018417
70
192
0
VERTEX
8
TUMB
10
39.916103
20
-13.077770
30
42.998352
70
192
0
VERTEX
8
TUMB
10
39.916103
20
-13.032822
30
42.960632
70
192
0
VERTEX
8
TUMB
10
39.916103
20
-13.003483
30
42.909817
70
192
0
VERTEX
8
TUMB
10
39.835178
20
-12.844715
30
42.852028
70
192
0
VERTEX
8
TUMB
10
39.835178
20
-13.479785
30
42.852028
70
192
0
VERTEX
8
TUMB
10
39.835178
20
-13.460636
30
42.960632
70
192
0
VERTEX
8
TUMB
10
39.835178
20
-13.405496
30
43.056137
70
192
0
VERTEX
8
TUMB
10
39.835178
20
-13.321017
30
43.127022
70
192
0
VERTEX
8
TUMB
10
39.835178
20
-13.217389
30
43.164742
70
192
0
VERTEX
8
TUMB
10
39.835178
20
-13.107111
30
43.164742
70
192
0
VERTEX
8
TUMB
10
39.835178
20
-13.003483
30
43.127022
70
192
0
VERTEX
8
TUMB
10
39.835178
20
-12.919003
30
43.056137
70
192
0
VERTEX
8
TUMB
10
39.835178
20
-12.863864
30
42.960632
70
192
0
VERTEX
8
TUMB
10
39.711201
20
-12.734435
30
42.852028
70
192
0
VERTEX
8
TUMB
10
39.711201
20
-13.590065
30
42.852028
70
192
0
VERTEX
8
TUMB
10
39.711201
20
-13.564264
30
42.998352
70
192
0
VERTEX
8
TUMB
10
39.711201
20
-13.489975
30
43.127022
70
192
0
VERTEX
8
TUMB
10
39.711201
20
-13.376157
30
43.222527
70
192
0
VERTEX
8
TUMB
10
39.711201
20
-13.236540
30
43.273346
70
192
0
VERTEX
8
TUMB
10
39.711201
20
-13.087960
30
43.273346
70
192
0
VERTEX
8
TUMB
10
39.711201
20
-12.948341
30
43.222527
70
192
0
VERTEX
8
TUMB
10
39.711201
20
-12.834525
30
43.127022
70
192
0
VERTEX
8
TUMB
10
39.711201
20
-12.760236
30
42.998352
70
192
0
VERTEX
8
TUMB
10
-39.944210
20
-18.276840
30
42.852024
70
192
0
VERTEX
8
TUMB
10
-39.916103
20
-18.107882
30
42.852024
70
192
0
VERTEX
8
TUMB
10
-39.916103
20
-18.445797
30
42.852024
70
192
0
VERTEX
8
TUMB
10
-39.916103
20
-18.435608
30
42.909813
70
192
0
VERTEX
8
TUMB
10
-39.916103
20
-18.406269
30
42.960629
70
192
0
VERTEX
8
TUMB
10
-39.916103
20
-18.361319
30
42.998348
70
192
0
VERTEX
8
TUMB
10
-39.916103
20
-18.306179
30
43.018417
70
192
0
VERTEX
8
TUMB
10
-39.916103
20
-18.247501
30
43.018417
70
192
0
VERTEX
8
TUMB
10
-39.916103
20
-18.192360
30
42.998348
70
192
0
VERTEX
8
TUMB
10
-39.916103
20
-18.147411
30
42.960629
70
192
0
VERTEX
8
TUMB
10
-39.916103
20
-18.118073
30
42.909813
70
192
0
VERTEX
8
TUMB
10
-39.835178
20
-17.959305
30
42.852024
70
192
0
VERTEX
8
TUMB
10
-39.835178
20
-18.594376
30
42.852024
70
192
0
VERTEX
8
TUMB
10
-39.835178
20
-18.575226
30
42.960629
70
192
0
VERTEX
8
TUMB
10
-39.835178
20
-18.520084
30
43.056133
70
192
0
VERTEX
8
TUMB
10
-39.835178
20
-18.435608
30
43.127022
70
192
0
VERTEX
8
TUMB
10
-39.835178
20
-18.331980
30
43.164738
70
192
0
VERTEX
8
TUMB
10
-39.835178
20
-18.221701
30
43.164738
70
192
0
VERTEX
8
TUMB
10
-39.835178
20
-18.118073
30
43.127022
70
192
0
VERTEX
8
TUMB
10
-39.835178
20
-18.033592
30
43.056133
70
192
0
VERTEX
8
TUMB
10
-39.835178
20
-17.978455
30
42.960629
70
192
0
VERTEX
8
TUMB
10
-39.711193
20
-17.849026
30
42.852024
70
192
0
VERTEX
8
TUMB
10
-39.711193
20
-18.704655
30
42.852024
70
192
0
VERTEX
8
TUMB
10
-39.711193
20
-18.678854
30
42.998348
70
192
0
VERTEX
8
TUMB
10
-39.711193
20
-18.604565
30
43.127022
70
192
0
VERTEX
8
TUMB
10
-39.711193
20
-18.490746
30
43.222523
70
192
0
VERTEX
8
TUMB
10
-39.711193
20
-18.351130
30
43.273342
70
192
0
VERTEX
8
TUMB
10
-39.711193
20
-18.202551
30
43.273342
70
192
0
VERTEX
8
TUMB
10
-39.711193
20
-18.062933
30
43.222523
70
192
0
VERTEX
8
TUMB
10
-39.711193
20
-17.949116
30
43.127018
70
192
0
VERTEX
8
TUMB
10
-39.711193
20
-17.874825
30
42.998348
70
192
0
VERTEX
8
TUMB
10
-39.559101
20
-17.790348
30
42.852024
70
192
0
VERTEX
8
TUMB
10
-39.559101
20
-18.763332
30
42.852024
70
192
0
VERTEX
8
TUMB
10
-39.559101
20
-18.733994
30
43.018417
70
192
0
VERTEX
8
TUMB
10
-39.559101
20
-18.649515
30
43.164738
70
192
0
VERTEX
8
TUMB
10
-39.559101
20
-18.520084
30
43.273342
70
192
0
VERTEX
8
TUMB
10
-39.559101
20
-18.361319
30
43.331127
70
192
0
VERTEX
8
TUMB
10
-39.559101
20
-18.192360
30
43.331127
70
192
0
VERTEX
8
TUMB
10
-39.559101
20
-18.033592
30
43.273342
70
192
0
VERTEX
8
TUMB
10
-39.559101
20
-17.904163
30
43.164738
70
192
0
VERTEX
8
TUMB
10
-39.559101
20
-17.819687
30
43.018417
70
192
0
VERTEX
8
TUMB
10
39.559105
20
-17.790344
30
42.852028
70
192
0
VERTEX
8
TUMB
10
39.559105
20
-18.763329
30
42.852028
70
192
0
VERTEX
8
TUMB
10
39.559105
20
-18.733990
30
43.018421
70
192
0
VERTEX
8
TUMB
10
39.559105
20
-18.649511
30
43.164742
70
192
0
VERTEX
8
TUMB
10
39.559105
20
-18.520082
30
43.273346
70
192
0
VERTEX
8
TUMB
10
39.559105
20
-18.361315
30
43.331131
70
192
0
VERTEX
8
TUMB
10
39.559105
20
-18.192356
30
43.331131
70
192
0
VERTEX
8
TUMB
10
39.559105
20
-18.033590
30
43.273346
70
192
0
VERTEX
8
TUMB
10
39.559105
20
-17.904161
30
43.164742
70
192
0
VERTEX
8
TUMB
10
39.559105
20
-17.819683
30
43.018421
70
192
0
VERTEX
8
TUMB
10
39.944210
20
-18.276836
30
42.852028
70
192
0
VERTEX
8
TUMB
10
39.916103
20
-18.107880
30
42.852028
70
192
0
VERTEX
8
TUMB
10
39.916103
20
-18.445793
30
42.852028
70
192
0
VERTEX
8
TUMB
10
39.916103
20
-18.435604
30
42.909817
70
192
0
VERTEX
8
TUMB
10
39.916103
20
-18.406265
30
42.960632
70
192
0
VERTEX
8
TUMB
10
39.916103
20
-18.361315
30
42.998352
70
192
0
VERTEX
8
TUMB
10
39.916103
20
-18.306175
30
43.018417
70
192
0
VERTEX
8
TUMB
10
39.916103
20
-18.247498
30
43.018417
70
192
0
VERTEX
8
TUMB
10
39.916103
20
-18.192356
30
42.998352
70
192
0
VERTEX
8
TUMB
10
39.916103
20
-18.147408
30
42.960632
70
192
0
VERTEX
8
TUMB
10
39.916103
20
-18.118069
30
42.909817
70
192
0
VERTEX
8
TUMB
10
39.835178
20
-17.959301
30
42.852028
70
192
0
VERTEX
8
TUMB
10
39.835178
20
-18.594372
30
42.852028
70
192
0
VERTEX
8
TUMB
10
39.835178
20
-18.575222
30
42.960632
70
192
0
VERTEX
8
TUMB
10
39.835178
20
-18.520082
30
43.056137
70
192
0
VERTEX
8
TUMB
10
39.835178
20
-18.435604
30
43.127022
70
192
0
VERTEX
8
TUMB
10
39.835178
20
-18.331976
30
43.164742
70
192
0
VERTEX
8
TUMB
10
39.835178
20
-18.221697
30
43.164742
70
192
0
VERTEX
8
TUMB
10
39.835178
20
-18.118069
30
43.127022
70
192
0
VERTEX
8
TUMB
10
39.835178
20
-18.033590
30
43.056137
70
192
0
VERTEX
8
TUMB
10
39.835178
20
-17.978451
30
42.960632
70
192
0
VERTEX
8
TUMB
10
39.711201
20
-17.849022
30
42.852028
70
192
0
VERTEX
8
TUMB
10
39.711201
20
-18.704651
30
42.852028
70
192
0
VERTEX
8
TUMB
10
39.711201
20
-18.678852
30
42.998352
70
192
0
VERTEX
8
TUMB
10
39.711201
20
-18.604561
30
43.127022
70
192
0
VERTEX
8
TUMB
10
39.711201
20
-18.490744
30
43.222527
70
192
0
VERTEX
8
TUMB
10
39.711201
20
-18.351126
30
43.273346
70
192
0
VERTEX
8
TUMB
10
39.711201
20
-18.202547
30
43.273346
70
192
0
VERTEX
8
TUMB
10
39.711201
20
-18.062929
30
43.222527
70
192
0
VERTEX
8
TUMB
10
39.711201
20
-17.949112
30
43.127022
70
192
0
VERTEX
8
TUMB
10
39.711201
20
-17.874823
30
42.998352
70
192
0
VERTEX
8
TUMB
10
0
20
0
30
0
70
128
71
1
72
2
73
-3
0
VERTEX
8
TUMB
10
0
20
0
30
0
70
128
71
-1
72
3
73
4
0
VERTEX
8
TUMB
10
0
20
0
30
0
70
128
71
1
72
5
73
-6
0
VERTEX
8
TUMB
10
0
20
0
30
0
70
128
71
-1
72
6
73
2
0
VERTEX
8
TUMB
10
0
20
0
30
0
70
128
71
2
72
6
73
-7
0
VERTEX
8
TUMB
10
0
20
0
30
0
70
128
71
-2
72
7
73
3
0
VERTEX
8
TUMB
10
0
20
0
30
0
70
128
71
3
72
7
73
-8
0
VERTEX
8
TUMB
10
0
20
0
30
0
70
128
71
-3
72
8
73
4
0
VERTEX
8
TUMB
10
0
20
0
30
0
70
128
71
4
72
8
73
-5
0
VERTEX
8
TUMB
10
0
20
0
30
0
70
128
71
-4
72
5
73
1
0
VERTEX
8
TUMB
10
0
20
0
30
0
70
128
71
5
72
8
73
-7
0
VERTEX
8
TUMB
10
0
20
0
30
0
70
128
71
-5
72
7
73
6
0
VERTEX
8
TUMB
10
0
20
0
30
0
70
128
71
9
72
10
73
-11
0
VERTEX
8
TUMB
10
0
20
0
30
0
70
128
71
-9
72
11
73
12
0
VERTEX
8
TUMB
10
0
20
0
30
0
70
128
71
9
72
13
73
-14
0
VERTEX
8
TUMB
10
0
20
0
30
0
70
128
71
-9
72
14
73
10
0
VERTEX
8
TUMB
10
0
20
0
30
0
70
128
71
10
72
14
73
-15
0
VERTEX
8
TUMB
10
0
20
0
30
0
70
128
71
-10
72
15
73
11
0
VERTEX
8
TUMB
10
0
20
0
30
0
70
128
71
11
72
15
73
-16
0
VERTEX
8
TUMB
10
0
20
0
30
0
70
128
71
-11
72
16
73
12
0
VERTEX
8
TUMB
10
0
20
0
30
0
70
128
71
12
72
16
73
-13
0
VERTEX
8
TUMB
10
0
20
0
30
0
70
128
71
-12
72
13
73
9
0
VERTEX
8
TUMB
10
0
20
0
30
0
70
128
71
13
72
16
73
-15
0
VERTEX
8
TUMB
10
0
20
0
30
0
70
128
71
-13
72
15
73
14
0
VERTEX
8
TUMB
10
0
20
0
30
0
70
128
71
17
72
18
73
-19
0
VERTEX
8
TUMB
10
0
20
0
30
0
70
128
71
-17
72
19
73
20
0
VERTEX
8
TUMB
10
0
20
0
30
0
70
128
71
17
72
21
73
-22
0
VERTEX
8
TUMB
10
0
20
0
30
0
70
128
71
-17
72
22
73
18
0
VERTEX
8
TUMB
10
0
20
0
30
0
70
128
71
18
72
22
73
-23
0
VERTEX
8
TUMB
10
0
20
0
30
0
70
128
71
-18
72
23
73
19
0
VERTEX
8
TUMB
10
0
20
0
30
0
70
128
71
19
72
23
73
-24
0
VERTEX
8
TUMB
10
0
20
0
30
0
70
128
71
-19
72
24
73
20
0
VERTEX
8
TUMB
10
0
20
0
30
0
70
128
71
20
72
24
73
-21
0
VERTEX
8
TUMB
10
0
20
0
30
0
70
128
71
-20
72
21
73
17
0
VERTEX
8
TUMB
10
0
20
0
30
0
70
128
71
21
72
24
73
-23
0
VERTEX
8
TUMB
10
0
20
0
30
0
70
128
71
-21
72
23
73
22
0
VERTEX
8
TUMB
10
0
20
0
30
0
70
128
71
25
72
26
73
-27
0
VERTEX
8
TUMB
10
0
20
0
30
0
70
128
71
-25
72
27
73
28
0
VERTEX
8
TUMB
10
0
20
0
30
0
70
128
71
25
72
29
73
-30
0
VERTEX
8
TUMB
10
0
20
0
30
0
70
128
71
-25
72
30
73
26
0
VERTEX
8
TUMB
10
0
20
0
30
0
70
128
71
26
72
30
73
-31
0
VERTEX
8
TUMB
10
0
20
0
30
0
70
128
71
-26
72
31
73
27
0
VERTEX
8
TUMB
10
0
20
0
30
0
70
128
71
27
72
31
73
-32
0
VERTEX
8
TUMB
10
0
20
0
30
0
70
128
71
-27
72
32
73
28
0
VERTEX
8
TUMB
10
0
20
0
30
0
70
128
71
28
72
32
73
-29
0
VERTEX
8
TUMB
10
0
20
0
30
0
70
128
71
-28
72
29
73
25
0
VERTEX
8
TUMB
10
0
20
0
30
0
70
128
71
29
72
32
73
-31
0
VERTEX
8
TUMB
10
0
20
0
30
0
70
128
71
-29
72
31
73
30
0
VERTEX
8
TUMB
10
0
20
0
30
0
70
128
71
33
72
34
73
-35
0
VERTEX
8
TUMB
10
0
20
0
30
0
70
128
71
-33
72
35
73
36
0
VERTEX
8
TUMB
10
0
20
0
30
0
70
128
71
33
72
37
73
-38
0
VERTEX
8
TUMB
10
0
20
0
30
0
70
128
71
-33
72
38
73
34
0
VERTEX
8
TUMB
10
0
20
0
30
0
70
128
71
34
72
38
73
-39
0
VERTEX
8
TUMB
10
0
20
0
30
0
70
128
71
-34
72
39
73
35
0
VERTEX
8
TUMB
10
0
20
0
30
0
70
128
71
35
72
39
73
-40
0
VERTEX
8
TUMB
10
0
20
0
30
0
70
128
71
-35
72
40
73
36
0
VERTEX
8
TUMB
10
0
20
0
30
0
70
128
71
36
72
40
73
-37
0
VERTEX
8
TUMB
10
0
20
0
30
0
70
128
71
-36
72
37
73
33
0
VERTEX
8
TUMB
10
0
20
0
30
0
70
128
71
37
72
40
73
-39
0
VERTEX
8
TUMB
10
0
20
0
30
0
70
128
71
-37
72
39
73
38
0
VERTEX
8
TUMB
10
0
20
0
30
0
70
128
71
41
72
42
73
-53
0
VERTEX
8
TUMB
10
0
20
0
30
0
70
128
71
-41
72
53
73
52
0
VERTEX
8
TUMB
10
0
20
0
30
0
70
128
71
42
72
43
73
-54
0
VERTEX
8
TUMB
10
0
20
0
30
0
70
128
71
-42
72
54
73
53
0
VERTEX
8
TUMB
10
0
20
0
30
0
70
128
71
43
72
44
73
-55
0
VERTEX
8
TUMB
10
0
20
0
30
0
70
128
71
-43
72
55
73
54
0
VERTEX
8
TUMB
10
0
20
0
30
0
70
128
71
44
72
45
73
-56
0
VERTEX
8
TUMB
10
0
20
0
30
0
70
128
71
-44
72
56
73
55
0
VERTEX
8
TUMB
10
0
20
0
30
0
70
128
71
45
72
46
73
-57
0
VERTEX
8
TUMB
10
0
20
0
30
0
70
128
71
-45
72
57
73
56
0
VERTEX
8
TUMB
10
0
20
0
30
0
70
128
71
46
72
47
73
-58
0
VERTEX
8
TUMB
10
0
20
0
30
0
70
128
71
-46
72
58
73
57
0
VERTEX
8
TUMB
10
0
20
0
30
0
70
128
71
47
72
48
73
-59
0
VERTEX
8
TUMB
10
0
20
0
30
0
70
128
71
-47
72
59
73
58
0
VERTEX
8
TUMB
10
0
20
0
30
0
70
128
71
48
72
49
73
-60
0
VERTEX
8
TUMB
10
0
20
0
30
0
70
128
71
-48
72
60
73
59
0
VERTEX
8
TUMB
10
0
20
0
30
0
70
128
71
49
72
50
73
-61
0
VERTEX
8
TUMB
10
0
20
0
30
0
70
128
71
-49
72
61
73
60
0
VERTEX
8
TUMB
10
0
20
0
30
0
70
128
71
50
72
51
73
-62
0
VERTEX
8
TUMB
10
0
20
0
30
0
70
128
71
-50
72
62
73
61
0
VERTEX
8
TUMB
10
0
20
0
30
0
70
128
71
51
72
41
73
-52
0
VERTEX
8
TUMB
10
0
20
0
30
0
70
128
71
-51
72
52
73
62
0
VERTEX
8
TUMB
10
0
20
0
30
0
70
128
71
52
72
53
73
-64
0
VERTEX
8
TUMB
10
0
20
0
30
0
70
128
71
-52
72
64
73
63
0
VERTEX
8
TUMB
10
0
20
0
30
0
70
128
71
53
72
54
73
-65
0
VERTEX
8
TUMB
10
0
20
0
30
0
70
128
71
-53
72
65
73
64
0
VERTEX
8
TUMB
10
0
20
0
30
0
70
128
71
54
72
55
73
-66
0
VERTEX
8
TUMB
10
0
20
0
30
0
70
128
71
-54
72
66
73
65
0
VERTEX
8
TUMB
10
0
20
0
30
0
70
128
71
55
72
56
73
-67
0
VERTEX
8
TUMB
10
0
20
0
30
0
70
128
71
-55
72
67
73
66
0
VERTEX
8
TUMB
10
0
20
0
30
0
70
128
71
56
72
57
73
-68
0
VERTEX
8
TUMB
10
0
20
0
30
0
70
128
71
-56
72
68
73
67
0
VERTEX
8
TUMB
10
0
20
0
30
0
70
128
71
57
72
58
73
-69
0
VERTEX
8
TUMB
10
0
20
0
30
0
70
128
71
-57
72
69
73
68
0
VERTEX
8
TUMB
10
0
20
0
30
0
70
128
71
58
72
59
73
-70
0
VERTEX
8
TUMB
10
0
20
0
30
0
70
128
71
-58
72
70
73
69
0
VERTEX
8
TUMB
10
0
20
0
30
0
70
128
71
59
72
60
73
-71
0
VERTEX
8
TUMB
10
0
20
0
30
0
70
128
71
-59
72
71
73
70
0
VERTEX
8
TUMB
10
0
20
0
30
0
70
128
71
60
72
61
73
-72
0
VERTEX
8
TUMB
10
0
20
0
30
0
70
128
71
-60
72
72
73
71
0
VERTEX
8
TUMB
10
0
20
0
30
0
70
128
71
61
72
62
73
-73
0
VERTEX
8
TUMB
10
0
20
0
30
0
70
128
71
-61
72
73
73
72
0
VERTEX
8
TUMB
10
0
20
0
30
0
70
128
71
62
72
52
73
-63
0
VERTEX
8
TUMB
10
0
20
0
30
0
70
128
71
-62
72
63
73
73
0
VERTEX
8
TUMB
10
0
20
0
30
0
70
128
71
63
72
64
73
-75
0
VERTEX
8
TUMB
10
0
20
0
30
0
70
128
71
-63
72
75
73
74
0
VERTEX
8
TUMB
10
0
20
0
30
0
70
128
71
64
72
65
73
-76
0
VERTEX
8
TUMB
10
0
20
0
30
0
70
128
71
-64
72
76
73
75
0
VERTEX
8
TUMB
10
0
20
0
30
0
70
128
71
65
72
66
73
-77
0
VERTEX
8
TUMB
10
0
20
0
30
0
70
128
71
-65
72
77
73
76
0
VERTEX
8
TUMB
10
0
20
0
30
0
70
128
71
66
72
67
73
-78
0
VERTEX
8
TUMB
10
0
20
0
30
0
70
128
71
-66
72
78
73
77
0
VERTEX
8
TUMB
10
0
20
0
30
0
70
128
71
67
72
68
73
-79
0
VERTEX
8
TUMB
10
0
20
0
30
0
70
128
71
-67
72
79
73
78
0
VERTEX
8
TUMB
10
0
20
0
30
0
70
128
71
68
72
69
73
-80
0
VERTEX
8
TUMB
10
0
20
0
30
0
70
128
71
-68
72
80
73
79
0
VERTEX
8
TUMB
10
0
20
0
30
0
70
128
71
69
72
70
73
-81
0
VERTEX
8
TUMB
10
0
20
0
30
0
70
128
71
-69
72
81
73
80
0
VERTEX
8
TUMB
10
0
20
0
30
0
70
128
71
70
72
71
73
-82
0
VERTEX
8
TUMB
10
0
20
0
30
0
70
128
71
-70
72
82
73
81
0
VERTEX
8
TUMB
10
0
20
0
30
0
70
128
71
71
72
72
73
-83
0
VERTEX
8
TUMB
10
0
20
0
30
0
70
128
71
-71
72
83
73
82
0
VERTEX
8
TUMB
10
0
20
0
30
0
70
128
71
72
72
73
73
-84
0
VERTEX
8
TUMB
10
0
20
0
30
0
70
128
71
-72
72
84
73
83
0
VERTEX
8
TUMB
10
0
20
0
30
0
70
128
71
73
72
63
73
-74
0
VERTEX
8
TUMB
10
0
20
0
30
0
70
128
71
-73
72
74
73
84
0
VERTEX
8
TUMB
10
0
20
0
30
0
70
128
71
74
72
75
73
-42
0
VERTEX
8
TUMB
10
0
20
0
30
0
70
128
71
-74
72
42
73
41
0
VERTEX
8
TUMB
10
0
20
0
30
0
70
128
71
75
72
76
73
-43
0
VERTEX
8
TUMB
10
0
20
0
30
0
70
128
71
-75
72
43
73
42
0
VERTEX
8
TUMB
10
0
20
0
30
0
70
128
71
76
72
77
73
-44
0
VERTEX
8
TUMB
10
0
20
0
30
0
70
128
71
-76
72
44
73
43
0
VERTEX
8
TUMB
10
0
20
0
30
0
70
128
71
77
72
78
73
-45
0
VERTEX
8
TUMB
10
0
20
0
30
0
70
128
71
-77
72
45
73
44
0
VERTEX
8
TUMB
10
0
20
0
30
0
70
128
71
78
72
79
73
-46
0
VERTEX
8
TUMB
10
0
20
0
30
0
70
128
71
-78
72
46
73
45
0
VERTEX
8
TUMB
10
0
20
0
30
0
70
128
71
79
72
80
73
-47
0
VERTEX
8
TUMB
10
0
20
0
30
0
70
128
71
-79
72
47
73
46
0
VERTEX
8
TUMB
10
0
20
0
30
0
70
128
71
80
72
81
73
-48
0
VERTEX
8
TUMB
10
0
20
0
30
0
70
128
71
-80
72
48
73
47
0
VERTEX
8
TUMB
10
0
20
0
30
0
70
128
71
81
72
82
73
-49
0
VERTEX
8
TUMB
10
0
20
0
30
0
70
128
71
-81
72
49
73
48
0
VERTEX
8
TUMB
10
0
20
0
30
0
70
128
71
82
72
83
73
-50
0
VERTEX
8
TUMB
10
0
20
0
30
0
70
128
71
-82
72
50
73
49
0
VERTEX
8
TUMB
10
0
20
0
30
0
70
128
71
83
72
84
73
-51
0
VERTEX
8
TUMB
10
0
20
0
30
0
70
128
71
-83
72
51
73
50
0
VERTEX
8
TUMB
10
0
20
0
30
0
70
128
71
84
72
74
73
-41
0
VERTEX
8
TUMB
10
0
20
0
30
0
70
128
71
-84
72
41
73
51
0
VERTEX
8
TUMB
10
0
20
0
30
0
70
128
71
85
72
86
73
-87
0
VERTEX
8
TUMB
10
0
20
0
30
0
70
128
71
-85
72
87
73
88
0
VERTEX
8
TUMB
10
0
20
0
30
0
70
128
71
89
72
90
73
-91
0
VERTEX
8
TUMB
10
0
20
0
30
0
70
128
71
-89
72
91
73
92
0
VERTEX
8
TUMB
10
0
20
0
30
0
70
128
71
89
72
93
73
-94
0
VERTEX
8
TUMB
10
0
20
0
30
0
70
128
71
-89
72
94
73
90
0
VERTEX
8
TUMB
10
0
20
0
30
0
70
128
71
90
72
94
73
-95
0
VERTEX
8
TUMB
10
0
20
0
30
0
70
128
71
-90
72
95
73
91
0
VERTEX
8
TUMB
10
0
20
0
30
0
70
128
71
91
72
95
73
-96
0
VERTEX
8
TUMB
10
0
20
0
30
0
70
128
71
-91
72
96
73
92
0
VERTEX
8
TUMB
10
0
20
0
30
0
70
128
71
92
72
96
73
-93
0
VERTEX
8
TUMB
10
0
20
0
30
0
70
128
71
-92
72
93
73
89
0
VERTEX
8
TUMB
10
0
20
0
30
0
70
128
71
93
72
96
73
-95
0
VERTEX
8
TUMB
10
0
20
0
30
0
70
128
71
-93
72
95
73
94
0
VERTEX
8
TUMB
10
0
20
0
30
0
70
128
71
-98
72
104
73
99
0
VERTEX
8
TUMB
10
0
20
0
30
0
70
128
71
98
72
103
73
-104
0
VERTEX
8
TUMB
10
0
20
0
30
0
70
128
71
-99
72
105
73
100
0
VERTEX
8
TUMB
10
0
20
0
30
0
70
128
71
99
72
104
73
-105
0
VERTEX
8
TUMB
10
0
20
0
30
0
70
128
71
-100
72
106
73
101
0
VERTEX
8
TUMB
10
0
20
0
30
0
70
128
71
100
72
105
73
-106
0
VERTEX
8
TUMB
10
0
20
0
30
0
70
128
71
-101
72
102
73
97
0
VERTEX
8
TUMB
10
0
20
0
30
0
70
128
71
101
72
106
73
-102
0
VERTEX
8
TUMB
10
0
20
0
30
0
70
128
71
-103
72
109
73
104
0
VERTEX
8
TUMB
10
0
20
0
30
0
70
128
71
103
72
108
73
-109
0
VERTEX
8
TUMB
10
0
20
0
30
0
70
128
71
-104
72
110
73
105
0
VERTEX
8
TUMB
10
0
20
0
30
0
70
128
71
104
72
109
73
-110
0
VERTEX
8
TUMB
10
0
20
0
30
0
70
128
71
-105
72
111
73
106
0
VERTEX
8
TUMB
10
0
20
0
30
0
70
128
71
105
72
110
73
-111
0
VERTEX
8
TUMB
10
0
20
0
30
0
70
128
71
-106
72
107
73
102
0
VERTEX
8
TUMB
10
0
20
0
30
0
70
128
71
106
72
111
73
-107
0
VERTEX
8
TUMB
10
0
20
0
30
0
70
128
71
-108
72
114
73
109
0
VERTEX
8
TUMB
10
0
20
0
30
0
70
128
71
108
72
113
73
-114
0
VERTEX
8
TUMB
10
0
20
0
30
0
70
128
71
-109
72
115
73
110
0
VERTEX
8
TUMB
10
0
20
0
30
0
70
128
71
109
72
114
73
-115
0
VERTEX
8
TUMB
10
0
20
0
30
0
70
128
71
-110
72
116
73
111
0
VERTEX
8
TUMB
10
0
20
0
30
0
70
128
71
110
72
115
73
-116
0
VERTEX
8
TUMB
10
0
20
0
30
0
70
128
71
-111
72
112
73
107
0
VERTEX
8
TUMB
10
0
20
0
30
0
70
128
71
111
72
116
73
-112
0
VERTEX
8
TUMB
10
0
20
0
30
0
70
128
71
-113
72
99
73
114
0
VERTEX
8
TUMB
10
0
20
0
30
0
70
128
71
113
72
98
73
-99
0
VERTEX
8
TUMB
10
0
20
0
30
0
70
128
71
-114
72
100
73
115
0
VERTEX
8
TUMB
10
0
20
0
30
0
70
128
71
114
72
99
73
-100
0
VERTEX
8
TUMB
10
0
20
0
30
0
70
128
71
-115
72
101
73
116
0
VERTEX
8
TUMB
10
0
20
0
30
0
70
128
71
115
72
100
73
-101
0
VERTEX
8
TUMB
10
0
20
0
30
0
70
128
71
-116
72
97
73
112
0
VERTEX
8
TUMB
10
0
20
0
30
0
70
128
71
116
72
101
73
-97
0
VERTEX
8
TUMB
10
0
20
0
30
0
70
128
71
119
72
117
73
-118
0
VERTEX
8
TUMB
10
0
20
0
30
0
70
128
71
120
72
-119
73
118
0
VERTEX
8
TUMB
10
0
20
0
30
0
70
128
71
121
72
119
73
-120
0
VERTEX
8
TUMB
10
0
20
0
30
0
70
128
71
122
72
-121
73
120
0
VERTEX
8
TUMB
10
0
20
0
30
0
70
128
71
123
72
121
73
-122
0
VERTEX
8
TUMB
10
0
20
0
30
0
70
128
71
124
72
-123
73
122
0
VERTEX
8
TUMB
10
0
20
0
30
0
70
128
71
117
72
123
73
-124
0
VERTEX
8
TUMB
10
0
20
0
30
0
70
128
71
118
72
-117
73
124
0
VERTEX
8
TUMB
10
0
20
0
30
0
70
128
71
117
72
119
73
-121
0
VERTEX
8
TUMB
10
0
20
0
30
0
70
128
71
121
72
123
73
-117
0
VERTEX
8
TUMB
10
0
20
0
30
0
70
128
71
122
72
-120
73
124
0
VERTEX
8
TUMB
10
0
20
0
30
0
70
128
71
118
72
-124
73
120
0
VERTEX
8
TUMB
10
0
20
0
30
0
70
128
71
125
72
126
73
-127
0
VERTEX
8
TUMB
10
0
20
0
30
0
70
128
71
-125
72
127
73
128
0
VERTEX
8
TUMB
10
0
20
0
30
0
70
128
71
125
72
129
73
-130
0
VERTEX
8
TUMB
10
0
20
0
30
0
70
128
71
-125
72
130
73
126
0
VERTEX
8
TUMB
10
0
20
0
30
0
70
128
71
126
72
130
73
-131
0
VERTEX
8
TUMB
10
0
20
0
30
0
70
128
71
-126
72
131
73
127
0
VERTEX
8
TUMB
10
0
20
0
30
0
70
128
71
127
72
131
73
-132
0
VERTEX
8
TUMB
10
0
20
0
30
0
70
128
71
-127
72
132
73
128
0
VERTEX
8
TUMB
10
0
20
0
30
0
70
128
71
128
72
132
73
-129
0
VERTEX
8
TUMB
10
0
20
0
30
0
70
128
71
-128
72
129
73
125
0
VERTEX
8
TUMB
10
0
20
0
30
0
70
128
71
129
72
132
73
-131
0
VERTEX
8
TUMB
10
0
20
0
30
0
70
128
71
-129
72
131
73
130
0
VERTEX
8
TUMB
10
0
20
0
30
0
70
128
71
133
72
135
73
136
0
VERTEX
8
TUMB
10
0
20
0
30
0
70
128
71
133
72
136
73
137
0
VERTEX
8
TUMB
10
0
20
0
30
0
70
128
71
133
72
137
73
138
0
VERTEX
8
TUMB
10
0
20
0
30
0
70
128
71
133
72
138
73
139
0
VERTEX
8
TUMB
10
0
20
0
30
0
70
128
71
133
72
139
73
140
0
VERTEX
8
TUMB
10
0
20
0
30
0
70
128
71
133
72
140
73
141
0
VERTEX
8
TUMB
10
0
20
0
30
0
70
128
71
133
72
141
73
142
0
VERTEX
8
TUMB
10
0
20
0
30
0
70
128
71
133
72
142
73
143
0
VERTEX
8
TUMB
10
0
20
0
30
0
70
128
71
133
72
143
73
134
0
VERTEX
8
TUMB
10
0
20
0
30
0
70
128
71
135
72
145
73
-146
0
VERTEX
8
TUMB
10
0
20
0
30
0
70
128
71
-135
72
146
73
136
0
VERTEX
8
TUMB
10
0
20
0
30
0
70
128
71
136
72
146
73
-147
0
VERTEX
8
TUMB
10
0
20
0
30
0
70
128
71
-136
72
147
73
137
0
VERTEX
8
TUMB
10
0
20
0
30
0
70
128
71
137
72
147
73
-148
0
VERTEX
8
TUMB
10
0
20
0
30
0
70
128
71
-137
72
148
73
138
0
VERTEX
8
TUMB
10
0
20
0
30
0
70
128
71
138
72
148
73
-149
0
VERTEX
8
TUMB
10
0
20
0
30
0
70
128
71
-138
72
149
73
139
0
VERTEX
8
TUMB
10
0
20
0
30
0
70
128
71
139
72
149
73
-150
0
VERTEX
8
TUMB
10
0
20
0
30
0
70
128
71
-139
72
150
73
140
0
VERTEX
8
TUMB
10
0
20
0
30
0
70
128
71
140
72
150
73
-151
0
VERTEX
8
TUMB
10
0
20
0
30
0
70
128
71
-140
72
151
73
141
0
VERTEX
8
TUMB
10
0
20
0
30
0
70
128
71
141
72
151
73
-152
0
VERTEX
8
TUMB
10
0
20
0
30
0
70
128
71
-141
72
152
73
142
0
VERTEX
8
TUMB
10
0
20
0
30
0
70
128
71
142
72
152
73
-153
0
VERTEX
8
TUMB
10
0
20
0
30
0
70
128
71
-142
72
153
73
143
0
VERTEX
8
TUMB
10
0
20
0
30
0
70
128
71
143
72
153
73
-144
0
VERTEX
8
TUMB
10
0
20
0
30
0
70
128
71
-143
72
144
73
134
0
VERTEX
8
TUMB
10
0
20
0
30
0
70
128
71
145
72
155
73
-156
0
VERTEX
8
TUMB
10
0
20
0
30
0
70
128
71
-145
72
156
73
146
0
VERTEX
8
TUMB
10
0
20
0
30
0
70
128
71
146
72
156
73
-157
0
VERTEX
8
TUMB
10
0
20
0
30
0
70
128
71
-146
72
157
73
147
0
VERTEX
8
TUMB
10
0
20
0
30
0
70
128
71
147
72
157
73
-158
0
VERTEX
8
TUMB
10
0
20
0
30
0
70
128
71
-147
72
158
73
148
0
VERTEX
8
TUMB
10
0
20
0
30
0
70
128
71
148
72
158
73
-159
0
VERTEX
8
TUMB
10
0
20
0
30
0
70
128
71
-148
72
159
73
149
0
VERTEX
8
TUMB
10
0
20
0
30
0
70
128
71
149
72
159
73
-160
0
VERTEX
8
TUMB
10
0
20
0
30
0
70
128
71
-149
72
160
73
150
0
VERTEX
8
TUMB
10
0
20
0
30
0
70
128
71
150
72
160
73
-161
0
VERTEX
8
TUMB
10
0
20
0
30
0
70
128
71
-150
72
161
73
151
0
VERTEX
8
TUMB
10
0
20
0
30
0
70
128
71
151
72
161
73
-162
0
VERTEX
8
TUMB
10
0
20
0
30
0
70
128
71
-151
72
162
73
152
0
VERTEX
8
TUMB
10
0
20
0
30
0
70
128
71
152
72
162
73
-163
0
VERTEX
8
TUMB
10
0
20
0
30
0
70
128
71
-152
72
163
73
153
0
VERTEX
8
TUMB
10
0
20
0
30
0
70
128
71
153
72
163
73
-154
0
VERTEX
8
TUMB
10
0
20
0
30
0
70
128
71
-153
72
154
73
144
0
VERTEX
8
TUMB
10
0
20
0
30
0
70
128
71
155
72
165
73
-166
0
VERTEX
8
TUMB
10
0
20
0
30
0
70
128
71
-155
72
166
73
156
0
VERTEX
8
TUMB
10
0
20
0
30
0
70
128
71
156
72
166
73
-167
0
VERTEX
8
TUMB
10
0
20
0
30
0
70
128
71
-156
72
167
73
157
0
VERTEX
8
TUMB
10
0
20
0
30
0
70
128
71
157
72
167
73
-168
0
VERTEX
8
TUMB
10
0
20
0
30
0
70
128
71
-157
72
168
73
158
0
VERTEX
8
TUMB
10
0
20
0
30
0
70
128
71
158
72
168
73
-169
0
VERTEX
8
TUMB
10
0
20
0
30
0
70
128
71
-158
72
169
73
159
0
VERTEX
8
TUMB
10
0
20
0
30
0
70
128
71
159
72
169
73
-170
0
VERTEX
8
TUMB
10
0
20
0
30
0
70
128
71
-159
72
170
73
160
0
VERTEX
8
TUMB
10
0
20
0
30
0
70
128
71
160
72
170
73
-171
0
VERTEX
8
TUMB
10
0
20
0
30
0
70
128
71
-160
72
171
73
161
0
VERTEX
8
TUMB
10
0
20
0
30
0
70
128
71
161
72
171
73
-172
0
VERTEX
8
TUMB
10
0
20
0
30
0
70
128
71
-161
72
172
73
162
0
VERTEX
8
TUMB
10
0
20
0
30
0
70
128
71
162
72
172
73
-173
0
VERTEX
8
TUMB
10
0
20
0
30
0
70
128
71
-162
72
173
73
163
0
VERTEX
8
TUMB
10
0
20
0
30
0
70
128
71
163
72
173
73
-164
0
VERTEX
8
TUMB
10
0
20
0
30
0
70
128
71
-163
72
164
73
154
0
VERTEX
8
TUMB
10
0
20
0
30
0
70
128
71
165
72
175
73
-176
0
VERTEX
8
TUMB
10
0
20
0
30
0
70
128
71
-165
72
176
73
166
0
VERTEX
8
TUMB
10
0
20
0
30
0
70
128
71
166
72
176
73
-177
0
VERTEX
8
TUMB
10
0
20
0
30
0
70
128
71
-166
72
177
73
167
0
VERTEX
8
TUMB
10
0
20
0
30
0
70
128
71
167
72
177
73
-178
0
VERTEX
8
TUMB
10
0
20
0
30
0
70
128
71
-167
72
178
73
168
0
VERTEX
8
TUMB
10
0
20
0
30
0
70
128
71
168
72
178
73
-179
0
VERTEX
8
TUMB
10
0
20
0
30
0
70
128
71
-168
72
179
73
169
0
VERTEX
8
TUMB
10
0
20
0
30
0
70
128
71
169
72
179
73
-180
0
VERTEX
8
TUMB
10
0
20
0
30
0
70
128
71
-169
72
180
73
170
0
VERTEX
8
TUMB
10
0
20
0
30
0
70
128
71
170
72
180
73
-181
0
VERTEX
8
TUMB
10
0
20
0
30
0
70
128
71
-170
72
181
73
171
0
VERTEX
8
TUMB
10
0
20
0
30
0
70
128
71
171
72
181
73
-182
0
VERTEX
8
TUMB
10
0
20
0
30
0
70
128
71
-171
72
182
73
172
0
VERTEX
8
TUMB
10
0
20
0
30
0
70
128
71
172
72
182
73
-183
0
VERTEX
8
TUMB
10
0
20
0
30
0
70
128
71
-172
72
183
73
173
0
VERTEX
8
TUMB
10
0
20
0
30
0
70
128
71
173
72
183
73
-174
0
VERTEX
8
TUMB
10
0
20
0
30
0
70
128
71
-173
72
174
73
164
0
VERTEX
8
TUMB
10
0
20
0
30
0
70
128
71
184
72
187
73
186
0
VERTEX
8
TUMB
10
0
20
0
30
0
70
128
71
184
72
188
73
187
0
VERTEX
8
TUMB
10
0
20
0
30
0
70
128
71
184
72
189
73
188
0
VERTEX
8
TUMB
10
0
20
0
30
0
70
128
71
184
72
190
73
189
0
VERTEX
8
TUMB
10
0
20
0
30
0
70
128
71
184
72
191
73
190
0
VERTEX
8
TUMB
10
0
20
0
30
0
70
128
71
184
72
192
73
191
0
VERTEX
8
TUMB
10
0
20
0
30
0
70
128
71
184
72
193
73
192
0
VERTEX
8
TUMB
10
0
20
0
30
0
70
128
71
184
72
194
73
193
0
VERTEX
8
TUMB
10
0
20
0
30
0
70
128
71
184
72
185
73
194
0
VERTEX
8
TUMB
10
0
20
0
30
0
70
128
71
-186
72
197
73
196
0
VERTEX
8
TUMB
10
0
20
0
30
0
70
128
71
186
72
187
73
-197
0
VERTEX
8
TUMB
10
0
20
0
30
0
70
128
71
-187
72
198
73
197
0
VERTEX
8
TUMB
10
0
20
0
30
0
70
128
71
187
72
188
73
-198
0
VERTEX
8
TUMB
10
0
20
0
30
0
70
128
71
-188
72
199
73
198
0
VERTEX
8
TUMB
10
0
20
0
30
0
70
128
71
188
72
189
73
-199
0
VERTEX
8
TUMB
10
0
20
0
30
0
70
128
71
-189
72
200
73
199
0
VERTEX
8
TUMB
10
0
20
0
30
0
70
128
71
189
72
190
73
-200
0
VERTEX
8
TUMB
10
0
20
0
30
0
70
128
71
-190
72
201
73
200
0
VERTEX
8
TUMB
10
0
20
0
30
0
70
128
71
190
72
191
73
-201
0
VERTEX
8
TUMB
10
0
20
0
30
0
70
128
71
-191
72
202
73
201
0
VERTEX
8
TUMB
10
0
20
0
30
0
70
128
71
191
72
192
73
-202
0
VERTEX
8
TUMB
10
0
20
0
30
0
70
128
71
-192
72
203
73
202
0
VERTEX
8
TUMB
10
0
20
0
30
0
70
128
71
192
72
193
73
-203
0
VERTEX
8
TUMB
10
0
20
0
30
0
70
128
71
-193
72
204
73
203
0
VERTEX
8
TUMB
10
0
20
0
30
0
70
128
71
193
72
194
73
-204
0
VERTEX
8
TUMB
10
0
20
0
30
0
70
128
71
-194
72
195
73
204
0
VERTEX
8
TUMB
10
0
20
0
30
0
70
128
71
194
72
185
73
-195
0
VERTEX
8
TUMB
10
0
20
0
30
0
70
128
71
-196
72
207
73
206
0
VERTEX
8
TUMB
10
0
20
0
30
0
70
128
71
196
72
197
73
-207
0
VERTEX
8
TUMB
10
0
20
0
30
0
70
128
71
-197
72
208
73
207
0
VERTEX
8
TUMB
10
0
20
0
30
0
70
128
71
197
72
198
73
-208
0
VERTEX
8
TUMB
10
0
20
0
30
0
70
128
71
-198
72
209
73
208
0
VERTEX
8
TUMB
10
0
20
0
30
0
70
128
71
198
72
199
73
-209
0
VERTEX
8
TUMB
10
0
20
0
30
0
70
128
71
-199
72
210
73
209
0
VERTEX
8
TUMB
10
0
20
0
30
0
70
128
71
199
72
200
73
-210
0
VERTEX
8
TUMB
10
0
20
0
30
0
70
128
71
-200
72
211
73
210
0
VERTEX
8
TUMB
10
0
20
0
30
0
70
128
71
200
72
201
73
-211
0
VERTEX
8
TUMB
10
0
20
0
30
0
70
128
71
-201
72
212
73
211
0
VERTEX
8
TUMB
10
0
20
0
30
0
70
128
71
201
72
202
73
-212
0
VERTEX
8
TUMB
10
0
20
0
30
0
70
128
71
-202
72
213
73
212
0
VERTEX
8
TUMB
10
0
20
0
30
0
70
128
71
202
72
203
73
-213
0
VERTEX
8
TUMB
10
0
20
0
30
0
70
128
71
-203
72
214
73
213
0
VERTEX
8
TUMB
10
0
20
0
30
0
70
128
71
203
72
204
73
-214
0
VERTEX
8
TUMB
10
0
20
0
30
0
70
128
71
-204
72
205
73
214
0
VERTEX
8
TUMB
10
0
20
0
30
0
70
128
71
204
72
195
73
-205
0
VERTEX
8
TUMB
10
0
20
0
30
0
70
128
71
-206
72
176
73
175
0
VERTEX
8
TUMB
10
0
20
0
30
0
70
128
71
206
72
207
73
-176
0
VERTEX
8
TUMB
10
0
20
0
30
0
70
128
71
-207
72
177
73
176
0
VERTEX
8
TUMB
10
0
20
0
30
0
70
128
71
207
72
208
73
-177
0
VERTEX
8
TUMB
10
0
20
0
30
0
70
128
71
-208
72
178
73
177
0
VERTEX
8
TUMB
10
0
20
0
30
0
70
128
71
208
72
209
73
-178
0
VERTEX
8
TUMB
10
0
20
0
30
0
70
128
71
-209
72
179
73
178
0
VERTEX
8
TUMB
10
0
20
0
30
0
70
128
71
209
72
210
73
-179
0
VERTEX
8
TUMB
10
0
20
0
30
0
70
128
71
-210
72
180
73
179
0
VERTEX
8
TUMB
10
0
20
0
30
0
70
128
71
210
72
211
73
-180
0
VERTEX
8
TUMB
10
0
20
0
30
0
70
128
71
-211
72
181
73
180
0
VERTEX
8
TUMB
10
0
20
0
30
0
70
128
71
211
72
212
73
-181
0
VERTEX
8
TUMB
10
0
20
0
30
0
70
128
71
-212
72
182
73
181
0
VERTEX
8
TUMB
10
0
20
0
30
0
70
128
71
212
72
213
73
-182
0
VERTEX
8
TUMB
10
0
20
0
30
0
70
128
71
-213
72
183
73
182
0
VERTEX
8
TUMB
10
0
20
0
30
0
70
128
71
213
72
214
73
-183
0
VERTEX
8
TUMB
10
0
20
0
30
0
70
128
71
-214
72
174
73
183
0
VERTEX
8
TUMB
10
0
20
0
30
0
70
128
71
214
72
205
73
-174
0
VERTEX
8
TUMB
10
0
20
0
30
0
70
128
71
215
72
217
73
218
0
VERTEX
8
TUMB
10
0
20
0
30
0
70
128
71
215
72
218
73
219
0
VERTEX
8
TUMB
10
0
20
0
30
0
70
128
71
215
72
219
73
220
0
VERTEX
8
TUMB
10
0
20
0
30
0
70
128
71
215
72
220
73
221
0
VERTEX
8
TUMB
10
0
20
0
30
0
70
128
71
215
72
221
73
222
0
VERTEX
8
TUMB
10
0
20
0
30
0
70
128
71
215
72
222
73
223
0
VERTEX
8
TUMB
10
0
20
0
30
0
70
128
71
215
72
223
73
224
0
VERTEX
8
TUMB
10
0
20
0
30
0
70
128
71
215
72
224
73
225
0
VERTEX
8
TUMB
10
0
20
0
30
0
70
128
71
215
72
225
73
216
0
VERTEX
8
TUMB
10
0
20
0
30
0
70
128
71
217
72
227
73
-228
0
VERTEX
8
TUMB
10
0
20
0
30
0
70
128
71
-217
72
228
73
218
0
VERTEX
8
TUMB
10
0
20
0
30
0
70
128
71
218
72
228
73
-229
0
VERTEX
8
TUMB
10
0
20
0
30
0
70
128
71
-218
72
229
73
219
0
VERTEX
8
TUMB
10
0
20
0
30
0
70
128
71
219
72
229
73
-230
0
VERTEX
8
TUMB
10
0
20
0
30
0
70
128
71
-219
72
230
73
220
0
VERTEX
8
TUMB
10
0
20
0
30
0
70
128
71
220
72
230
73
-231
0
VERTEX
8
TUMB
10
0
20
0
30
0
70
128
71
-220
72
231
73
221
0
VERTEX
8
TUMB
10
0
20
0
30
0
70
128
71
221
72
231
73
-232
0
VERTEX
8
TUMB
10
0
20
0
30
0
70
128
71
-221
72
232
73
222
0
VERTEX
8
TUMB
10
0
20
0
30
0
70
128
71
222
72
232
73
-233
0
VERTEX
8
TUMB
10
0
20
0
30
0
70
128
71
-222
72
233
73
223
0
VERTEX
8
TUMB
10
0
20
0
30
0
70
128
71
223
72
233
73
-234
0
VERTEX
8
TUMB
10
0
20
0
30
0
70
128
71
-223
72
234
73
224
0
VERTEX
8
TUMB
10
0
20
0
30
0
70
128
71
224
72
234
73
-235
0
VERTEX
8
TUMB
10
0
20
0
30
0
70
128
71
-224
72
235
73
225
0
VERTEX
8
TUMB
10
0
20
0
30
0
70
128
71
225
72
235
73
-226
0
VERTEX
8
TUMB
10
0
20
0
30
0
70
128
71
-225
72
226
73
216
0
VERTEX
8
TUMB
10
0
20
0
30
0
70
128
71
227
72
237
73
-238
0
VERTEX
8
TUMB
10
0
20
0
30
0
70
128
71
-227
72
238
73
228
0
VERTEX
8
TUMB
10
0
20
0
30
0
70
128
71
228
72
238
73
-239
0
VERTEX
8
TUMB
10
0
20
0
30
0
70
128
71
-228
72
239
73
229
0
VERTEX
8
TUMB
10
0
20
0
30
0
70
128
71
229
72
239
73
-240
0
VERTEX
8
TUMB
10
0
20
0
30
0
70
128
71
-229
72
240
73
230
0
VERTEX
8
TUMB
10
0
20
0
30
0
70
128
71
230
72
240
73
-241
0
VERTEX
8
TUMB
10
0
20
0
30
0
70
128
71
-230
72
241
73
231
0
VERTEX
8
TUMB
10
0
20
0
30
0
70
128
71
231
72
241
73
-242
0
VERTEX
8
TUMB
10
0
20
0
30
0
70
128
71
-231
72
242
73
232
0
VERTEX
8
TUMB
10
0
20
0
30
0
70
128
71
232
72
242
73
-243
0
VERTEX
8
TUMB
10
0
20
0
30
0
70
128
71
-232
72
243
73
233
0
VERTEX
8
TUMB
10
0
20
0
30
0
70
128
71
233
72
243
73
-244
0
VERTEX
8
TUMB
10
0
20
0
30
0
70
128
71
-233
72
244
73
234
0
VERTEX
8
TUMB
10
0
20
0
30
0
70
128
71
234
72
244
73
-245
0
VERTEX
8
TUMB
10
0
20
0
30
0
70
128
71
-234
72
245
73
235
0
VERTEX
8
TUMB
10
0
20
0
30
0
70
128
71
235
72
245
73
-236
0
VERTEX
8
TUMB
10
0
20
0
30
0
70
128
71
-235
72
236
73
226
0
VERTEX
8
TUMB
10
0
20
0
30
0
70
128
71
237
72
247
73
-248
0
VERTEX
8
TUMB
10
0
20
0
30
0
70
128
71
-237
72
248
73
238
0
VERTEX
8
TUMB
10
0
20
0
30
0
70
128
71
238
72
248
73
-249
0
VERTEX
8
TUMB
10
0
20
0
30
0
70
128
71
-238
72
249
73
239
0
VERTEX
8
TUMB
10
0
20
0
30
0
70
128
71
239
72
249
73
-250
0
VERTEX
8
TUMB
10
0
20
0
30
0
70
128
71
-239
72
250
73
240
0
VERTEX
8
TUMB
10
0
20
0
30
0
70
128
71
240
72
250
73
-251
0
VERTEX
8
TUMB
10
0
20
0
30
0
70
128
71
-240
72
251
73
241
0
VERTEX
8
TUMB
10
0
20
0
30
0
70
128
71
241
72
251
73
-252
0
VERTEX
8
TUMB
10
0
20
0
30
0
70
128
71
-241
72
252
73
242
0
VERTEX
8
TUMB
10
0
20
0
30
0
70
128
71
242
72
252
73
-253
0
VERTEX
8
TUMB
10
0
20
0
30
0
70
128
71
-242
72
253
73
243
0
VERTEX
8
TUMB
10
0
20
0
30
0
70
128
71
243
72
253
73
-254
0
VERTEX
8
TUMB
10
0
20
0
30
0
70
128
71
-243
72
254
73
244
0
VERTEX
8
TUMB
10
0
20
0
30
0
70
128
71
244
72
254
73
-255
0
VERTEX
8
TUMB
10
0
20
0
30
0
70
128
71
-244
72
255
73
245
0
VERTEX
8
TUMB
10
0
20
0
30
0
70
128
71
245
72
255
73
-246
0
VERTEX
8
TUMB
10
0
20
0
30
0
70
128
71
-245
72
246
73
236
0
VERTEX
8
TUMB
10
0
20
0
30
0
70
128
71
247
72
257
73
-258
0
VERTEX
8
TUMB
10
0
20
0
30
0
70
128
71
-247
72
258
73
248
0
VERTEX
8
TUMB
10
0
20
0
30
0
70
128
71
248
72
258
73
-259
0
VERTEX
8
TUMB
10
0
20
0
30
0
70
128
71
-248
72
259
73
249
0
VERTEX
8
TUMB
10
0
20
0
30
0
70
128
71
249
72
259
73
-260
0
VERTEX
8
TUMB
10
0
20
0
30
0
70
128
71
-249
72
260
73
250
0
VERTEX
8
TUMB
10
0
20
0
30
0
70
128
71
250
72
260
73
-261
0
VERTEX
8
TUMB
10
0
20
0
30
0
70
128
71
-250
72
261
73
251
0
VERTEX
8
TUMB
10
0
20
0
30
0
70
128
71
251
72
261
73
-262
0
VERTEX
8
TUMB
10
0
20
0
30
0
70
128
71
-251
72
262
73
252
0
VERTEX
8
TUMB
10
0
20
0
30
0
70
128
71
252
72
262
73
-263
0
VERTEX
8
TUMB
10
0
20
0
30
0
70
128
71
-252
72
263
73
253
0
VERTEX
8
TUMB
10
0
20
0
30
0
70
128
71
253
72
263
73
-264
0
VERTEX
8
TUMB
10
0
20
0
30
0
70
128
71
-253
72
264
73
254
0
VERTEX
8
TUMB
10
0
20
0
30
0
70
128
71
254
72
264
73
-265
0
VERTEX
8
TUMB
10
0
20
0
30
0
70
128
71
-254
72
265
73
255
0
VERTEX
8
TUMB
10
0
20
0
30
0
70
128
71
255
72
265
73
-256
0
VERTEX
8
TUMB
10
0
20
0
30
0
70
128
71
-255
72
256
73
246
0
VERTEX
8
TUMB
10
0
20
0
30
0
70
128
71
266
72
269
73
268
0
VERTEX
8
TUMB
10
0
20
0
30
0
70
128
71
266
72
270
73
269
0
VERTEX
8
TUMB
10
0
20
0
30
0
70
128
71
266
72
271
73
270
0
VERTEX
8
TUMB
10
0
20
0
30
0
70
128
71
266
72
272
73
271
0
VERTEX
8
TUMB
10
0
20
0
30
0
70
128
71
266
72
273
73
272
0
VERTEX
8
TUMB
10
0
20
0
30
0
70
128
71
266
72
274
73
273
0
VERTEX
8
TUMB
10
0
20
0
30
0
70
128
71
266
72
275
73
274
0
VERTEX
8
TUMB
10
0
20
0
30
0
70
128
71
266
72
276
73
275
0
VERTEX
8
TUMB
10
0
20
0
30
0
70
128
71
266
72
267
73
276
0
VERTEX
8
TUMB
10
0
20
0
30
0
70
128
71
-268
72
279
73
278
0
VERTEX
8
TUMB
10
0
20
0
30
0
70
128
71
268
72
269
73
-279
0
VERTEX
8
TUMB
10
0
20
0
30
0
70
128
71
-269
72
280
73
279
0
VERTEX
8
TUMB
10
0
20
0
30
0
70
128
71
269
72
270
73
-280
0
VERTEX
8
TUMB
10
0
20
0
30
0
70
128
71
-270
72
281
73
280
0
VERTEX
8
TUMB
10
0
20
0
30
0
70
128
71
270
72
271
73
-281
0
VERTEX
8
TUMB
10
0
20
0
30
0
70
128
71
-271
72
282
73
281
0
VERTEX
8
TUMB
10
0
20
0
30
0
70
128
71
271
72
272
73
-282
0
VERTEX
8
TUMB
10
0
20
0
30
0
70
128
71
-272
72
283
73
282
0
VERTEX
8
TUMB
10
0
20
0
30
0
70
128
71
272
72
273
73
-283
0
VERTEX
8
TUMB
10
0
20
0
30
0
70
128
71
-273
72
284
73
283
0
VERTEX
8
TUMB
10
0
20
0
30
0
70
128
71
273
72
274
73
-284
0
VERTEX
8
TUMB
10
0
20
0
30
0
70
128
71
-274
72
285
73
284
0
VERTEX
8
TUMB
10
0
20
0
30
0
70
128
71
274
72
275
73
-285
0
VERTEX
8
TUMB
10
0
20
0
30
0
70
128
71
-275
72
286
73
285
0
VERTEX
8
TUMB
10
0
20
0
30
0
70
128
71
275
72
276
73
-286
0
VERTEX
8
TUMB
10
0
20
0
30
0
70
128
71
-276
72
277
73
286
0
VERTEX
8
TUMB
10
0
20
0
30
0
70
128
71
276
72
267
73
-277
0
VERTEX
8
TUMB
10
0
20
0
30
0
70
128
71
-278
72
289
73
288
0
VERTEX
8
TUMB
10
0
20
0
30
0
70
128
71
278
72
279
73
-289
0
VERTEX
8
TUMB
10
0
20
0
30
0
70
128
71
-279
72
290
73
289
0
VERTEX
8
TUMB
10
0
20
0
30
0
70
128
71
279
72
280
73
-290
0
VERTEX
8
TUMB
10
0
20
0
30
0
70
128
71
-280
72
291
73
290
0
VERTEX
8
TUMB
10
0
20
0
30
0
70
128
71
280
72
281
73
-291
0
VERTEX
8
TUMB
10
0
20
0
30
0
70
128
71
-281
72
292
73
291
0
VERTEX
8
TUMB
10
0
20
0
30
0
70
128
71
281
72
282
73
-292
0
VERTEX
8
TUMB
10
0
20
0
30
0
70
128
71
-282
72
293
73
292
0
VERTEX
8
TUMB
10
0
20
0
30
0
70
128
71
282
72
283
73
-293
0
VERTEX
8
TUMB
10
0
20
0
30
0
70
128
71
-283
72
294
73
293
0
VERTEX
8
TUMB
10
0
20
0
30
0
70
128
71
283
72
284
73
-294
0
VERTEX
8
TUMB
10
0
20
0
30
0
70
128
71
-284
72
295
73
294
0
VERTEX
8
TUMB
10
0
20
0
30
0
70
128
71
284
72
285
73
-295
0
VERTEX
8
TUMB
10
0
20
0
30
0
70
128
71
-285
72
296
73
295
0
VERTEX
8
TUMB
10
0
20
0
30
0
70
128
71
285
72
286
73
-296
0
VERTEX
8
TUMB
10
0
20
0
30
0
70
128
71
-286
72
287
73
296
0
VERTEX
8
TUMB
10
0
20
0
30
0
70
128
71
286
72
277
73
-287
0
VERTEX
8
TUMB
10
0
20
0
30
0
70
128
71
-288
72
258
73
257
0
VERTEX
8
TUMB
10
0
20
0
30
0
70
128
71
288
72
289
73
-258
0
VERTEX
8
TUMB
10
0
20
0
30
0
70
128
71
-289
72
259
73
258
0
VERTEX
8
TUMB
10
0
20
0
30
0
70
128
71
289
72
290
73
-259
0
VERTEX
8
TUMB
10
0
20
0
30
0
70
128
71
-290
72
260
73
259
0
VERTEX
8
TUMB
10
0
20
0
30
0
70
128
71
290
72
291
73
-260
0
VERTEX
8
TUMB
10
0
20
0
30
0
70
128
71
-291
72
261
73
260
0
VERTEX
8
TUMB
10
0
20
0
30
0
70
128
71
291
72
292
73
-261
0
VERTEX
8
TUMB
10
0
20
0
30
0
70
128
71
-292
72
262
73
261
0
VERTEX
8
TUMB
10
0
20
0
30
0
70
128
71
292
72
293
73
-262
0
VERTEX
8
TUMB
10
0
20
0
30
0
70
128
71
-293
72
263
73
262
0
VERTEX
8
TUMB
10
0
20
0
30
0
70
128
71
293
72
294
73
-263
0
VERTEX
8
TUMB
10
0
20
0
30
0
70
128
71
-294
72
264
73
263
0
VERTEX
8
TUMB
10
0
20
0
30
0
70
128
71
294
72
295
73
-264
0
VERTEX
8
TUMB
10
0
20
0
30
0
70
128
71
-295
72
265
73
264
0
VERTEX
8
TUMB
10
0
20
0
30
0
70
128
71
295
72
296
73
-265
0
VERTEX
8
TUMB
10
0
20
0
30
0
70
128
71
-296
72
256
73
265
0
VERTEX
8
TUMB
10
0
20
0
30
0
70
128
71
296
72
287
73
-256
0
VERTEX
8
TUMB
10
0
20
0
30
0
70
128
71
297
72
299
73
300
0
VERTEX
8
TUMB
10
0
20
0
30
0
70
128
71
297
72
300
73
301
0
VERTEX
8
TUMB
10
0
20
0
30
0
70
128
71
297
72
301
73
302
0
VERTEX
8
TUMB
10
0
20
0
30
0
70
128
71
297
72
302
73
303
0
VERTEX
8
TUMB
10
0
20
0
30
0
70
128
71
297
72
303
73
304
0
VERTEX
8
TUMB
10
0
20
0
30
0
70
128
71
297
72
304
73
305
0
VERTEX
8
TUMB
10
0
20
0
30
0
70
128
71
297
72
305
73
306
0
VERTEX
8
TUMB
10
0
20
0
30
0
70
128
71
297
72
306
73
307
0
VERTEX
8
TUMB
10
0
20
0
30
0
70
128
71
297
72
307
73
298
0
VERTEX
8
TUMB
10
0
20
0
30
0
70
128
71
299
72
309
73
-310
0
VERTEX
8
TUMB
10
0
20
0
30
0
70
128
71
-299
72
310
73
300
0
VERTEX
8
TUMB
10
0
20
0
30
0
70
128
71
300
72
310
73
-311
0
VERTEX
8
TUMB
10
0
20
0
30
0
70
128
71
-300
72
311
73
301
0
VERTEX
8
TUMB
10
0
20
0
30
0
70
128
71
301
72
311
73
-312
0
VERTEX
8
TUMB
10
0
20
0
30
0
70
128
71
-301
72
312
73
302
0
VERTEX
8
TUMB
10
0
20
0
30
0
70
128
71
302
72
312
73
-313
0
VERTEX
8
TUMB
10
0
20
0
30
0
70
128
71
-302
72
313
73
303
0
VERTEX
8
TUMB
10
0
20
0
30
0
70
128
71
303
72
313
73
-314
0
VERTEX
8
TUMB
10
0
20
0
30
0
70
128
71
-303
72
314
73
304
0
VERTEX
8
TUMB
10
0
20
0
30
0
70
128
71
304
72
314
73
-315
0
VERTEX
8
TUMB
10
0
20
0
30
0
70
128
71
-304
72
315
73
305
0
VERTEX
8
TUMB
10
0
20
0
30
0
70
128
71
305
72
315
73
-316
0
VERTEX
8
TUMB
10
0
20
0
30
0
70
128
71
-305
72
316
73
306
0
VERTEX
8
TUMB
10
0
20
0
30
0
70
128
71
306
72
316
73
-317
0
VERTEX
8
TUMB
10
0
20
0
30
0
70
128
71
-306
72
317
73
307
0
VERTEX
8
TUMB
10
0
20
0
30
0
70
128
71
307
72
317
73
-308
0
VERTEX
8
TUMB
10
0
20
0
30
0
70
128
71
-307
72
308
73
298
0
VERTEX
8
TUMB
10
0
20
0
30
0
70
128
71
309
72
319
73
-320
0
VERTEX
8
TUMB
10
0
20
0
30
0
70
128
71
-309
72
320
73
310
0
VERTEX
8
TUMB
10
0
20
0
30
0
70
128
71
310
72
320
73
-321
0
VERTEX
8
TUMB
10
0
20
0
30
0
70
128
71
-310
72
321
73
311
0
VERTEX
8
TUMB
10
0
20
0
30
0
70
128
71
311
72
321
73
-322
0
VERTEX
8
TUMB
10
0
20
0
30
0
70
128
71
-311
72
322
73
312
0
VERTEX
8
TUMB
10
0
20
0
30
0
70
128
71
312
72
322
73
-323
0
VERTEX
8
TUMB
10
0
20
0
30
0
70
128
71
-312
72
323
73
313
0
VERTEX
8
TUMB
10
0
20
0
30
0
70
128
71
313
72
323
73
-324
0
VERTEX
8
TUMB
10
0
20
0
30
0
70
128
71
-313
72
324
73
314
0
VERTEX
8
TUMB
10
0
20
0
30
0
70
128
71
314
72
324
73
-325
0
VERTEX
8
TUMB
10
0
20
0
30
0
70
128
71
-314
72
325
73
315
0
VERTEX
8
TUMB
10
0
20
0
30
0
70
128
71
315
72
325
73
-326
0
VERTEX
8
TUMB
10
0
20
0
30
0
70
128
71
-315
72
326
73
316
0
VERTEX
8
TUMB
10
0
20
0
30
0
70
128
71
316
72
326
73
-327
0
VERTEX
8
TUMB
10
0
20
0
30
0
70
128
71
-316
72
327
73
317
0
VERTEX
8
TUMB
10
0
20
0
30
0
70
128
71
317
72
327
73
-318
0
VERTEX
8
TUMB
10
0
20
0
30
0
70
128
71
-317
72
318
73
308
0
VERTEX
8
TUMB
10
0
20
0
30
0
70
128
71
319
72
329
73
-330
0
VERTEX
8
TUMB
10
0
20
0
30
0
70
128
71
-319
72
330
73
320
0
VERTEX
8
TUMB
10
0
20
0
30
0
70
128
71
320
72
330
73
-331
0
VERTEX
8
TUMB
10
0
20
0
30
0
70
128
71
-320
72
331
73
321
0
VERTEX
8
TUMB
10
0
20
0
30
0
70
128
71
321
72
331
73
-332
0
VERTEX
8
TUMB
10
0
20
0
30
0
70
128
71
-321
72
332
73
322
0
VERTEX
8
TUMB
10
0
20
0
30
0
70
128
71
322
72
332
73
-333
0
VERTEX
8
TUMB
10
0
20
0
30
0
70
128
71
-322
72
333
73
323
0
VERTEX
8
TUMB
10
0
20
0
30
0
70
128
71
323
72
333
73
-334
0
VERTEX
8
TUMB
10
0
20
0
30
0
70
128
71
-323
72
334
73
324
0
VERTEX
8
TUMB
10
0
20
0
30
0
70
128
71
324
72
334
73
-335
0
VERTEX
8
TUMB
10
0
20
0
30
0
70
128
71
-324
72
335
73
325
0
VERTEX
8
TUMB
10
0
20
0
30
0
70
128
71
325
72
335
73
-336
0
VERTEX
8
TUMB
10
0
20
0
30
0
70
128
71
-325
72
336
73
326
0
VERTEX
8
TUMB
10
0
20
0
30
0
70
128
71
326
72
336
73
-337
0
VERTEX
8
TUMB
10
0
20
0
30
0
70
128
71
-326
72
337
73
327
0
VERTEX
8
TUMB
10
0
20
0
30
0
70
128
71
327
72
337
73
-328
0
VERTEX
8
TUMB
10
0
20
0
30
0
70
128
71
-327
72
328
73
318
0
VERTEX
8
TUMB
10
0
20
0
30
0
70
128
71
329
72
339
73
-340
0
VERTEX
8
TUMB
10
0
20
0
30
0
70
128
71
-329
72
340
73
330
0
VERTEX
8
TUMB
10
0
20
0
30
0
70
128
71
330
72
340
73
-341
0
VERTEX
8
TUMB
10
0
20
0
30
0
70
128
71
-330
72
341
73
331
0
VERTEX
8
TUMB
10
0
20
0
30
0
70
128
71
331
72
341
73
-342
0
VERTEX
8
TUMB
10
0
20
0
30
0
70
128
71
-331
72
342
73
332
0
VERTEX
8
TUMB
10
0
20
0
30
0
70
128
71
332
72
342
73
-343
0
VERTEX
8
TUMB
10
0
20
0
30
0
70
128
71
-332
72
343
73
333
0
VERTEX
8
TUMB
10
0
20
0
30
0
70
128
71
333
72
343
73
-344
0
VERTEX
8
TUMB
10
0
20
0
30
0
70
128
71
-333
72
344
73
334
0
VERTEX
8
TUMB
10
0
20
0
30
0
70
128
71
334
72
344
73
-345
0
VERTEX
8
TUMB
10
0
20
0
30
0
70
128
71
-334
72
345
73
335
0
VERTEX
8
TUMB
10
0
20
0
30
0
70
128
71
335
72
345
73
-346
0
VERTEX
8
TUMB
10
0
20
0
30
0
70
128
71
-335
72
346
73
336
0
VERTEX
8
TUMB
10
0
20
0
30
0
70
128
71
336
72
346
73
-347
0
VERTEX
8
TUMB
10
0
20
0
30
0
70
128
71
-336
72
347
73
337
0
VERTEX
8
TUMB
10
0
20
0
30
0
70
128
71
337
72
347
73
-338
0
VERTEX
8
TUMB
10
0
20
0
30
0
70
128
71
-337
72
338
73
328
0
VERTEX
8
TUMB
10
0
20
0
30
0
70
128
71
348
72
351
73
350
0
VERTEX
8
TUMB
10
0
20
0
30
0
70
128
71
348
72
352
73
351
0
VERTEX
8
TUMB
10
0
20
0
30
0
70
128
71
348
72
353
73
352
0
VERTEX
8
TUMB
10
0
20
0
30
0
70
128
71
348
72
354
73
353
0
VERTEX
8
TUMB
10
0
20
0
30
0
70
128
71
348
72
355
73
354
0
VERTEX
8
TUMB
10
0
20
0
30
0
70
128
71
348
72
356
73
355
0
VERTEX
8
TUMB
10
0
20
0
30
0
70
128
71
348
72
357
73
356
0
VERTEX
8
TUMB
10
0
20
0
30
0
70
128
71
348
72
358
73
357
0
VERTEX
8
TUMB
10
0
20
0
30
0
70
128
71
348
72
349
73
358
0
VERTEX
8
TUMB
10
0
20
0
30
0
70
128
71
-350
72
361
73
360
0
VERTEX
8
TUMB
10
0
20
0
30
0
70
128
71
350
72
351
73
-361
0
VERTEX
8
TUMB
10
0
20
0
30
0
70
128
71
-351
72
362
73
361
0
VERTEX
8
TUMB
10
0
20
0
30
0
70
128
71
351
72
352
73
-362
0
VERTEX
8
TUMB
10
0
20
0
30
0
70
128
71
-352
72
363
73
362
0
VERTEX
8
TUMB
10
0
20
0
30
0
70
128
71
352
72
353
73
-363
0
VERTEX
8
TUMB
10
0
20
0
30
0
70
128
71
-353
72
364
73
363
0
VERTEX
8
TUMB
10
0
20
0
30
0
70
128
71
353
72
354
73
-364
0
VERTEX
8
TUMB
10
0
20
0
30
0
70
128
71
-354
72
365
73
364
0
VERTEX
8
TUMB
10
0
20
0
30
0
70
128
71
354
72
355
73
-365
0
VERTEX
8
TUMB
10
0
20
0
30
0
70
128
71
-355
72
366
73
365
0
VERTEX
8
TUMB
10
0
20
0
30
0
70
128
71
355
72
356
73
-366
0
VERTEX
8
TUMB
10
0
20
0
30
0
70
128
71
-356
72
367
73
366
0
VERTEX
8
TUMB
10
0
20
0
30
0
70
128
71
356
72
357
73
-367
0
VERTEX
8
TUMB
10
0
20
0
30
0
70
128
71
-357
72
368
73
367
0
VERTEX
8
TUMB
10
0
20
0
30
0
70
128
71
357
72
358
73
-368
0
VERTEX
8
TUMB
10
0
20
0
30
0
70
128
71
-358
72
359
73
368
0
VERTEX
8
TUMB
10
0
20
0
30
0
70
128
71
358
72
349
73
-359
0
VERTEX
8
TUMB
10
0
20
0
30
0
70
128
71
-360
72
371
73
370
0
VERTEX
8
TUMB
10
0
20
0
30
0
70
128
71
360
72
361
73
-371
0
VERTEX
8
TUMB
10
0
20
0
30
0
70
128
71
-361
72
372
73
371
0
VERTEX
8
TUMB
10
0
20
0
30
0
70
128
71
361
72
362
73
-372
0
VERTEX
8
TUMB
10
0
20
0
30
0
70
128
71
-362
72
373
73
372
0
VERTEX
8
TUMB
10
0
20
0
30
0
70
128
71
362
72
363
73
-373
0
VERTEX
8
TUMB
10
0
20
0
30
0
70
128
71
-363
72
374
73
373
0
VERTEX
8
TUMB
10
0
20
0
30
0
70
128
71
363
72
364
73
-374
0
VERTEX
8
TUMB
10
0
20
0
30
0
70
128
71
-364
72
375
73
374
0
VERTEX
8
TUMB
10
0
20
0
30
0
70
128
71
364
72
365
73
-375
0
VERTEX
8
TUMB
10
0
20
0
30
0
70
128
71
-365
72
376
73
375
0
VERTEX
8
TUMB
10
0
20
0
30
0
70
128
71
365
72
366
73
-376
0
VERTEX
8
TUMB
10
0
20
0
30
0
70
128
71
-366
72
377
73
376
0
VERTEX
8
TUMB
10
0
20
0
30
0
70
128
71
366
72
367
73
-377
0
VERTEX
8
TUMB
10
0
20
0
30
0
70
128
71
-367
72
378
73
377
0
VERTEX
8
TUMB
10
0
20
0
30
0
70
128
71
367
72
368
73
-378
0
VERTEX
8
TUMB
10
0
20
0
30
0
70
128
71
-368
72
369
73
378
0
VERTEX
8
TUMB
10
0
20
0
30
0
70
128
71
368
72
359
73
-369
0
VERTEX
8
TUMB
10
0
20
0
30
0
70
128
71
-370
72
340
73
339
0
VERTEX
8
TUMB
10
0
20
0
30
0
70
128
71
370
72
371
73
-340
0
VERTEX
8
TUMB
10
0
20
0
30
0
70
128
71
-371
72
341
73
340
0
VERTEX
8
TUMB
10
0
20
0
30
0
70
128
71
371
72
372
73
-341
0
VERTEX
8
TUMB
10
0
20
0
30
0
70
128
71
-372
72
342
73
341
0
VERTEX
8
TUMB
10
0
20
0
30
0
70
128
71
372
72
373
73
-342
0
VERTEX
8
TUMB
10
0
20
0
30
0
70
128
71
-373
72
343
73
342
0
VERTEX
8
TUMB
10
0
20
0
30
0
70
128
71
373
72
374
73
-343
0
VERTEX
8
TUMB
10
0
20
0
30
0
70
128
71
-374
72
344
73
343
0
VERTEX
8
TUMB
10
0
20
0
30
0
70
128
71
374
72
375
73
-344
0
VERTEX
8
TUMB
10
0
20
0
30
0
70
128
71
-375
72
345
73
344
0
VERTEX
8
TUMB
10
0
20
0
30
0
70
128
71
375
72
376
73
-345
0
VERTEX
8
TUMB
10
0
20
0
30
0
70
128
71
-376
72
346
73
345
0
VERTEX
8
TUMB
10
0
20
0
30
0
70
128
71
376
72
377
73
-346
0
VERTEX
8
TUMB
10
0
20
0
30
0
70
128
71
-377
72
347
73
346
0
VERTEX
8
TUMB
10
0
20
0
30
0
70
128
71
377
72
378
73
-347
0
VERTEX
8
TUMB
10
0
20
0
30
0
70
128
71
-378
72
338
73
347
0
VERTEX
8
TUMB
10
0
20
0
30
0
70
128
71
378
72
369
73
-338
0
VERTEX
8
TUMB
10
0
20
0
30
0
70
128
71
379
72
381
73
382
0
VERTEX
8
TUMB
10
0
20
0
30
0
70
128
71
379
72
382
73
383
0
VERTEX
8
TUMB
10
0
20
0
30
0
70
128
71
379
72
383
73
384
0
VERTEX
8
TUMB
10
0
20
0
30
0
70
128
71
379
72
384
73
385
0
VERTEX
8
TUMB
10
0
20
0
30
0
70
128
71
379
72
385
73
386
0
VERTEX
8
TUMB
10
0
20
0
30
0
70
128
71
379
72
386
73
387
0
VERTEX
8
TUMB
10
0
20
0
30
0
70
128
71
379
72
387
73
388
0
VERTEX
8
TUMB
10
0
20
0
30
0
70
128
71
379
72
388
73
389
0
VERTEX
8
TUMB
10
0
20
0
30
0
70
128
71
379
72
389
73
380
0
VERTEX
8
TUMB
10
0
20
0
30
0
70
128
71
381
72
391
73
-392
0
VERTEX
8
TUMB
10
0
20
0
30
0
70
128
71
-381
72
392
73
382
0
VERTEX
8
TUMB
10
0
20
0
30
0
70
128
71
382
72
392
73
-393
0
VERTEX
8
TUMB
10
0
20
0
30
0
70
128
71
-382
72
393
73
383
0
VERTEX
8
TUMB
10
0
20
0
30
0
70
128
71
383
72
393
73
-394
0
VERTEX
8
TUMB
10
0
20
0
30
0
70
128
71
-383
72
394
73
384
0
VERTEX
8
TUMB
10
0
20
0
30
0
70
128
71
384
72
394
73
-395
0
VERTEX
8
TUMB
10
0
20
0
30
0
70
128
71
-384
72
395
73
385
0
VERTEX
8
TUMB
10
0
20
0
30
0
70
128
71
385
72
395
73
-396
0
VERTEX
8
TUMB
10
0
20
0
30
0
70
128
71
-385
72
396
73
386
0
VERTEX
8
TUMB
10
0
20
0
30
0
70
128
71
386
72
396
73
-397
0
VERTEX
8
TUMB
10
0
20
0
30
0
70
128
71
-386
72
397
73
387
0
VERTEX
8
TUMB
10
0
20
0
30
0
70
128
71
387
72
397
73
-398
0
VERTEX
8
TUMB
10
0
20
0
30
0
70
128
71
-387
72
398
73
388
0
VERTEX
8
TUMB
10
0
20
0
30
0
70
128
71
388
72
398
73
-399
0
VERTEX
8
TUMB
10
0
20
0
30
0
70
128
71
-388
72
399
73
389
0
VERTEX
8
TUMB
10
0
20
0
30
0
70
128
71
389
72
399
73
-390
0
VERTEX
8
TUMB
10
0
20
0
30
0
70
128
71
-389
72
390
73
380
0
VERTEX
8
TUMB
10
0
20
0
30
0
70
128
71
391
72
401
73
-402
0
VERTEX
8
TUMB
10
0
20
0
30
0
70
128
71
-391
72
402
73
392
0
VERTEX
8
TUMB
10
0
20
0
30
0
70
128
71
392
72
402
73
-403
0
VERTEX
8
TUMB
10
0
20
0
30
0
70
128
71
-392
72
403
73
393
0
VERTEX
8
TUMB
10
0
20
0
30
0
70
128
71
393
72
403
73
-404
0
VERTEX
8
TUMB
10
0
20
0
30
0
70
128
71
-393
72
404
73
394
0
VERTEX
8
TUMB
10
0
20
0
30
0
70
128
71
394
72
404
73
-405
0
VERTEX
8
TUMB
10
0
20
0
30
0
70
128
71
-394
72
405
73
395
0
VERTEX
8
TUMB
10
0
20
0
30
0
70
128
71
395
72
405
73
-406
0
VERTEX
8
TUMB
10
0
20
0
30
0
70
128
71
-395
72
406
73
396
0
VERTEX
8
TUMB
10
0
20
0
30
0
70
128
71
396
72
406
73
-407
0
VERTEX
8
TUMB
10
0
20
0
30
0
70
128
71
-396
72
407
73
397
0
VERTEX
8
TUMB
10
0
20
0
30
0
70
128
71
397
72
407
73
-408
0
VERTEX
8
TUMB
10
0
20
0
30
0
70
128
71
-397
72
408
73
398
0
VERTEX
8
TUMB
10
0
20
0
30
0
70
128
71
398
72
408
73
-409
0
VERTEX
8
TUMB
10
0
20
0
30
0
70
128
71
-398
72
409
73
399
0
VERTEX
8
TUMB
10
0
20
0
30
0
70
128
71
399
72
409
73
-400
0
VERTEX
8
TUMB
10
0
20
0
30
0
70
128
71
-399
72
400
73
390
0
VERTEX
8
TUMB
10
0
20
0
30
0
70
128
71
401
72
411
73
-412
0
VERTEX
8
TUMB
10
0
20
0
30
0
70
128
71
-401
72
412
73
402
0
VERTEX
8
TUMB
10
0
20
0
30
0
70
128
71
402
72
412
73
-413
0
VERTEX
8
TUMB
10
0
20
0
30
0
70
128
71
-402
72
413
73
403
0
VERTEX
8
TUMB
10
0
20
0
30
0
70
128
71
403
72
413
73
-414
0
VERTEX
8
TUMB
10
0
20
0
30
0
70
128
71
-403
72
414
73
404
0
VERTEX
8
TUMB
10
0
20
0
30
0
70
128
71
404
72
414
73
-415
0
VERTEX
8
TUMB
10
0
20
0
30
0
70
128
71
-404
72
415
73
405
0
VERTEX
8
TUMB
10
0
20
0
30
0
70
128
71
405
72
415
73
-416
0
VERTEX
8
TUMB
10
0
20
0
30
0
70
128
71
-405
72
416
73
406
0
VERTEX
8
TUMB
10
0
20
0
30
0
70
128
71
406
72
416
73
-417
0
VERTEX
8
TUMB
10
0
20
0
30
0
70
128
71
-406
72
417
73
407
0
VERTEX
8
TUMB
10
0
20
0
30
0
70
128
71
407
72
417
73
-418
0
VERTEX
8
TUMB
10
0
20
0
30
0
70
128
71
-407
72
418
73
408
0
VERTEX
8
TUMB
10
0
20
0
30
0
70
128
71
408
72
418
73
-419
0
VERTEX
8
TUMB
10
0
20
0
30
0
70
128
71
-408
72
419
73
409
0
VERTEX
8
TUMB
10
0
20
0
30
0
70
128
71
409
72
419
73
-410
0
VERTEX
8
TUMB
10
0
20
0
30
0
70
128
71
-409
72
410
73
400
0
VERTEX
8
TUMB
10
0
20
0
30
0
70
128
71
411
72
421
73
-422
0
VERTEX
8
TUMB
10
0
20
0
30
0
70
128
71
-411
72
422
73
412
0
VERTEX
8
TUMB
10
0
20
0
30
0
70
128
71
412
72
422
73
-423
0
VERTEX
8
TUMB
10
0
20
0
30
0
70
128
71
-412
72
423
73
413
0
VERTEX
8
TUMB
10
0
20
0
30
0
70
128
71
413
72
423
73
-424
0
VERTEX
8
TUMB
10
0
20
0
30
0
70
128
71
-413
72
424
73
414
0
VERTEX
8
TUMB
10
0
20
0
30
0
70
128
71
414
72
424
73
-425
0
VERTEX
8
TUMB
10
0
20
0
30
0
70
128
71
-414
72
425
73
415
0
VERTEX
8
TUMB
10
0
20
0
30
0
70
128
71
415
72
425
73
-426
0
VERTEX
8
TUMB
10
0
20
0
30
0
70
128
71
-415
72
426
73
416
0
VERTEX
8
TUMB
10
0
20
0
30
0
70
128
71
416
72
426
73
-427
0
VERTEX
8
TUMB
10
0
20
0
30
0
70
128
71
-416
72
427
73
417
0
VERTEX
8
TUMB
10
0
20
0
30
0
70
128
71
417
72
427
73
-428
0
VERTEX
8
TUMB
10
0
20
0
30
0
70
128
71
-417
72
428
73
418
0
VERTEX
8
TUMB
10
0
20
0
30
0
70
128
71
418
72
428
73
-429
0
VERTEX
8
TUMB
10
0
20
0
30
0
70
128
71
-418
72
429
73
419
0
VERTEX
8
TUMB
10
0
20
0
30
0
70
128
71
419
72
429
73
-420
0
VERTEX
8
TUMB
10
0
20
0
30
0
70
128
71
-419
72
420
73
410
0
VERTEX
8
TUMB
10
0
20
0
30
0
70
128
71
430
72
433
73
432
0
VERTEX
8
TUMB
10
0
20
0
30
0
70
128
71
430
72
434
73
433
0
VERTEX
8
TUMB
10
0
20
0
30
0
70
128
71
430
72
435
73
434
0
VERTEX
8
TUMB
10
0
20
0
30
0
70
128
71
430
72
436
73
435
0
VERTEX
8
TUMB
10
0
20
0
30
0
70
128
71
430
72
437
73
436
0
VERTEX
8
TUMB
10
0
20
0
30
0
70
128
71
430
72
438
73
437
0
VERTEX
8
TUMB
10
0
20
0
30
0
70
128
71
430
72
439
73
438
0
VERTEX
8
TUMB
10
0
20
0
30
0
70
128
71
430
72
440
73
439
0
VERTEX
8
TUMB
10
0
20
0
30
0
70
128
71
430
72
431
73
440
0
VERTEX
8
TUMB
10
0
20
0
30
0
70
128
71
-432
72
443
73
442
0
VERTEX
8
TUMB
10
0
20
0
30
0
70
128
71
432
72
433
73
-443
0
VERTEX
8
TUMB
10
0
20
0
30
0
70
128
71
-433
72
444
73
443
0
VERTEX
8
TUMB
10
0
20
0
30
0
70
128
71
433
72
434
73
-444
0
VERTEX
8
TUMB
10
0
20
0
30
0
70
128
71
-434
72
445
73
444
0
VERTEX
8
TUMB
10
0
20
0
30
0
70
128
71
434
72
435
73
-445
0
VERTEX
8
TUMB
10
0
20
0
30
0
70
128
71
-435
72
446
73
445
0
VERTEX
8
TUMB
10
0
20
0
30
0
70
128
71
435
72
436
73
-446
0
VERTEX
8
TUMB
10
0
20
0
30
0
70
128
71
-436
72
447
73
446
0
VERTEX
8
TUMB
10
0
20
0
30
0
70
128
71
436
72
437
73
-447
0
VERTEX
8
TUMB
10
0
20
0
30
0
70
128
71
-437
72
448
73
447
0
VERTEX
8
TUMB
10
0
20
0
30
0
70
128
71
437
72
438
73
-448
0
VERTEX
8
TUMB
10
0
20
0
30
0
70
128
71
-438
72
449
73
448
0
VERTEX
8
TUMB
10
0
20
0
30
0
70
128
71
438
72
439
73
-449
0
VERTEX
8
TUMB
10
0
20
0
30
0
70
128
71
-439
72
450
73
449
0
VERTEX
8
TUMB
10
0
20
0
30
0
70
128
71
439
72
440
73
-450
0
VERTEX
8
TUMB
10
0
20
0
30
0
70
128
71
-440
72
441
73
450
0
VERTEX
8
TUMB
10
0
20
0
30
0
70
128
71
440
72
431
73
-441
0
VERTEX
8
TUMB
10
0
20
0
30
0
70
128
71
-442
72
453
73
452
0
VERTEX
8
TUMB
10
0
20
0
30
0
70
128
71
442
72
443
73
-453
0
VERTEX
8
TUMB
10
0
20
0
30
0
70
128
71
-443
72
454
73
453
0
VERTEX
8
TUMB
10
0
20
0
30
0
70
128
71
443
72
444
73
-454
0
VERTEX
8
TUMB
10
0
20
0
30
0
70
128
71
-444
72
455
73
454
0
VERTEX
8
TUMB
10
0
20
0
30
0
70
128
71
444
72
445
73
-455
0
VERTEX
8
TUMB
10
0
20
0
30
0
70
128
71
-445
72
456
73
455
0
VERTEX
8
TUMB
10
0
20
0
30
0
70
128
71
445
72
446
73
-456
0
VERTEX
8
TUMB
10
0
20
0
30
0
70
128
71
-446
72
457
73
456
0
VERTEX
8
TUMB
10
0
20
0
30
0
70
128
71
446
72
447
73
-457
0
VERTEX
8
TUMB
10
0
20
0
30
0
70
128
71
-447
72
458
73
457
0
VERTEX
8
TUMB
10
0
20
0
30
0
70
128
71
447
72
448
73
-458
0
VERTEX
8
TUMB
10
0
20
0
30
0
70
128
71
-448
72
459
73
458
0
VERTEX
8
TUMB
10
0
20
0
30
0
70
128
71
448
72
449
73
-459
0
VERTEX
8
TUMB
10
0
20
0
30
0
70
128
71
-449
72
460
73
459
0
VERTEX
8
TUMB
10
0
20
0
30
0
70
128
71
449
72
450
73
-460
0
VERTEX
8
TUMB
10
0
20
0
30
0
70
128
71
-450
72
451
73
460
0
VERTEX
8
TUMB
10
0
20
0
30
0
70
128
71
450
72
441
73
-451
0
VERTEX
8
TUMB
10
0
20
0
30
0
70
128
71
-452
72
422
73
421
0
VERTEX
8
TUMB
10
0
20
0
30
0
70
128
71
452
72
453
73
-422
0
VERTEX
8
TUMB
10
0
20
0
30
0
70
128
71
-453
72
423
73
422
0
VERTEX
8
TUMB
10
0
20
0
30
0
70
128
71
453
72
454
73
-423
0
VERTEX
8
TUMB
10
0
20
0
30
0
70
128
71
-454
72
424
73
423
0
VERTEX
8
TUMB
10
0
20
0
30
0
70
128
71
454
72
455
73
-424
0
VERTEX
8
TUMB
10
0
20
0
30
0
70
128
71
-455
72
425
73
424
0
VERTEX
8
TUMB
10
0
20
0
30
0
70
128
71
455
72
456
73
-425
0
VERTEX
8
TUMB
10
0
20
0
30
0
70
128
71
-456
72
426
73
425
0
VERTEX
8
TUMB
10
0
20
0
30
0
70
128
71
456
72
457
73
-426
0
VERTEX
8
TUMB
10
0
20
0
30
0
70
128
71
-457
72
427
73
426
0
VERTEX
8
TUMB
10
0
20
0
30
0
70
128
71
457
72
458
73
-427
0
VERTEX
8
TUMB
10
0
20
0
30
0
70
128
71
-458
72
428
73
427
0
VERTEX
8
TUMB
10
0
20
0
30
0
70
128
71
458
72
459
73
-428
0
VERTEX
8
TUMB
10
0
20
0
30
0
70
128
71
-459
72
429
73
428
0
VERTEX
8
TUMB
10
0
20
0
30
0
70
128
71
459
72
460
73
-429
0
VERTEX
8
TUMB
10
0
20
0
30
0
70
128
71
-460
72
420
73
429
0
VERTEX
8
TUMB
10
0
20
0
30
0
70
128
71
460
72
451
73
-420
0
VERTEX
8
TUMB
10
0
20
0
30
0
70
128
71
461
72
463
73
464
0
VERTEX
8
TUMB
10
0
20
0
30
0
70
128
71
461
72
464
73
465
0
VERTEX
8
TUMB
10
0
20
0
30
0
70
128
71
461
72
465
73
466
0
VERTEX
8
TUMB
10
0
20
0
30
0
70
128
71
461
72
466
73
467
0
VERTEX
8
TUMB
10
0
20
0
30
0
70
128
71
461
72
467
73
468
0
VERTEX
8
TUMB
10
0
20
0
30
0
70
128
71
461
72
468
73
469
0
VERTEX
8
TUMB
10
0
20
0
30
0
70
128
71
461
72
469
73
470
0
VERTEX
8
TUMB
10
0
20
0
30
0
70
128
71
461
72
470
73
471
0
VERTEX
8
TUMB
10
0
20
0
30
0
70
128
71
461
72
471
73
462
0
VERTEX
8
TUMB
10
0
20
0
30
0
70
128
71
463
72
473
73
-474
0
VERTEX
8
TUMB
10
0
20
0
30
0
70
128
71
-463
72
474
73
464
0
VERTEX
8
TUMB
10
0
20
0
30
0
70
128
71
464
72
474
73
-475
0
VERTEX
8
TUMB
10
0
20
0
30
0
70
128
71
-464
72
475
73
465
0
VERTEX
8
TUMB
10
0
20
0
30
0
70
128
71
465
72
475
73
-476
0
VERTEX
8
TUMB
10
0
20
0
30
0
70
128
71
-465
72
476
73
466
0
VERTEX
8
TUMB
10
0
20
0
30
0
70
128
71
466
72
476
73
-477
0
VERTEX
8
TUMB
10
0
20
0
30
0
70
128
71
-466
72
477
73
467
0
VERTEX
8
TUMB
10
0
20
0
30
0
70
128
71
467
72
477
73
-478
0
VERTEX
8
TUMB
10
0
20
0
30
0
70
128
71
-467
72
478
73
468
0
VERTEX
8
TUMB
10
0
20
0
30
0
70
128
71
468
72
478
73
-479
0
VERTEX
8
TUMB
10
0
20
0
30
0
70
128
71
-468
72
479
73
469
0
VERTEX
8
TUMB
10
0
20
0
30
0
70
128
71
469
72
479
73
-480
0
VERTEX
8
TUMB
10
0
20
0
30
0
70
128
71
-469
72
480
73
470
0
VERTEX
8
TUMB
10
0
20
0
30
0
70
128
71
470
72
480
73
-481
0
VERTEX
8
TUMB
10
0
20
0
30
0
70
128
71
-470
72
481
73
471
0
VERTEX
8
TUMB
10
0
20
0
30
0
70
128
71
471
72
481
73
-472
0
VERTEX
8
TUMB
10
0
20
0
30
0
70
128
71
-471
72
472
73
462
0
VERTEX
8
TUMB
10
0
20
0
30
0
70
128
71
473
72
483
73
-484
0
VERTEX
8
TUMB
10
0
20
0
30
0
70
128
71
-473
72
484
73
474
0
VERTEX
8
TUMB
10
0
20
0
30
0
70
128
71
474
72
484
73
-485
0
VERTEX
8
TUMB
10
0
20
0
30
0
70
128
71
-474
72
485
73
475
0
VERTEX
8
TUMB
10
0
20
0
30
0
70
128
71
475
72
485
73
-486
0
VERTEX
8
TUMB
10
0
20
0
30
0
70
128
71
-475
72
486
73
476
0
VERTEX
8
TUMB
10
0
20
0
30
0
70
128
71
476
72
486
73
-487
0
VERTEX
8
TUMB
10
0
20
0
30
0
70
128
71
-476
72
487
73
477
0
VERTEX
8
TUMB
10
0
20
0
30
0
70
128
71
477
72
487
73
-488
0
VERTEX
8
TUMB
10
0
20
0
30
0
70
128
71
-477
72
488
73
478
0
VERTEX
8
TUMB
10
0
20
0
30
0
70
128
71
478
72
488
73
-489
0
VERTEX
8
TUMB
10
0
20
0
30
0
70
128
71
-478
72
489
73
479
0
VERTEX
8
TUMB
10
0
20
0
30
0
70
128
71
479
72
489
73
-490
0
VERTEX
8
TUMB
10
0
20
0
30
0
70
128
71
-479
72
490
73
480
0
VERTEX
8
TUMB
10
0
20
0
30
0
70
128
71
480
72
490
73
-491
0
VERTEX
8
TUMB
10
0
20
0
30
0
70
128
71
-480
72
491
73
481
0
VERTEX
8
TUMB
10
0
20
0
30
0
70
128
71
481
72
491
73
-482
0
VERTEX
8
TUMB
10
0
20
0
30
0
70
128
71
-481
72
482
73
472
0
VERTEX
8
TUMB
10
0
20
0
30
0
70
128
71
483
72
493
73
-494
0
VERTEX
8
TUMB
10
0
20
0
30
0
70
128
71
-483
72
494
73
484
0
VERTEX
8
TUMB
10
0
20
0
30
0
70
128
71
484
72
494
73
-495
0
VERTEX
8
TUMB
10
0
20
0
30
0
70
128
71
-484
72
495
73
485
0
VERTEX
8
TUMB
10
0
20
0
30
0
70
128
71
485
72
495
73
-496
0
VERTEX
8
TUMB
10
0
20
0
30
0
70
128
71
-485
72
496
73
486
0
VERTEX
8
TUMB
10
0
20
0
30
0
70
128
71
486
72
496
73
-497
0
VERTEX
8
TUMB
10
0
20
0
30
0
70
128
71
-486
72
497
73
487
0
VERTEX
8
TUMB
10
0
20
0
30
0
70
128
71
487
72
497
73
-498
0
VERTEX
8
TUMB
10
0
20
0
30
0
70
128
71
-487
72
498
73
488
0
VERTEX
8
TUMB
10
0
20
0
30
0
70
128
71
488
72
498
73
-499
0
VERTEX
8
TUMB
10
0
20
0
30
0
70
128
71
-488
72
499
73
489
0
VERTEX
8
TUMB
10
0
20
0
30
0
70
128
71
489
72
499
73
-500
0
VERTEX
8
TUMB
10
0
20
0
30
0
70
128
71
-489
72
500
73
490
0
VERTEX
8
TUMB
10
0
20
0
30
0
70
128
71
490
72
500
73
-501
0
VERTEX
8
TUMB
10
0
20
0
30
0
70
128
71
-490
72
501
73
491
0
VERTEX
8
TUMB
10
0
20
0
30
0
70
128
71
491
72
501
73
-492
0
VERTEX
8
TUMB
10
0
20
0
30
0
70
128
71
-491
72
492
73
482
0
VERTEX
8
TUMB
10
0
20
0
30
0
70
128
71
493
72
503
73
-504
0
VERTEX
8
TUMB
10
0
20
0
30
0
70
128
71
-493
72
504
73
494
0
VERTEX
8
TUMB
10
0
20
0
30
0
70
128
71
494
72
504
73
-505
0
VERTEX
8
TUMB
10
0
20
0
30
0
70
128
71
-494
72
505
73
495
0
VERTEX
8
TUMB
10
0
20
0
30
0
70
128
71
495
72
505
73
-506
0
VERTEX
8
TUMB
10
0
20
0
30
0
70
128
71
-495
72
506
73
496
0
VERTEX
8
TUMB
10
0
20
0
30
0
70
128
71
496
72
506
73
-507
0
VERTEX
8
TUMB
10
0
20
0
30
0
70
128
71
-496
72
507
73
497
0
VERTEX
8
TUMB
10
0
20
0
30
0
70
128
71
497
72
507
73
-508
0
VERTEX
8
TUMB
10
0
20
0
30
0
70
128
71
-497
72
508
73
498
0
VERTEX
8
TUMB
10
0
20
0
30
0
70
128
71
498
72
508
73
-509
0
VERTEX
8
TUMB
10
0
20
0
30
0
70
128
71
-498
72
509
73
499
0
VERTEX
8
TUMB
10
0
20
0
30
0
70
128
71
499
72
509
73
-510
0
VERTEX
8
TUMB
10
0
20
0
30
0
70
128
71
-499
72
510
73
500
0
VERTEX
8
TUMB
10
0
20
0
30
0
70
128
71
500
72
510
73
-511
0
VERTEX
8
TUMB
10
0
20
0
30
0
70
128
71
-500
72
511
73
501
0
VERTEX
8
TUMB
10
0
20
0
30
0
70
128
71
501
72
511
73
-502
0
VERTEX
8
TUMB
10
0
20
0
30
0
70
128
71
-501
72
502
73
492
0
VERTEX
8
TUMB
10
0
20
0
30
0
70
128
71
512
72
515
73
514
0
VERTEX
8
TUMB
10
0
20
0
30
0
70
128
71
512
72
516
73
515
0
VERTEX
8
TUMB
10
0
20
0
30
0
70
128
71
512
72
517
73
516
0
VERTEX
8
TUMB
10
0
20
0
30
0
70
128
71
512
72
518
73
517
0
VERTEX
8
TUMB
10
0
20
0
30
0
70
128
71
512
72
519
73
518
0
VERTEX
8
TUMB
10
0
20
0
30
0
70
128
71
512
72
520
73
519
0
VERTEX
8
TUMB
10
0
20
0
30
0
70
128
71
512
72
521
73
520
0
VERTEX
8
TUMB
10
0
20
0
30
0
70
128
71
512
72
522
73
521
0
VERTEX
8
TUMB
10
0
20
0
30
0
70
128
71
512
72
513
73
522
0
VERTEX
8
TUMB
10
0
20
0
30
0
70
128
71
-514
72
525
73
524
0
VERTEX
8
TUMB
10
0
20
0
30
0
70
128
71
514
72
515
73
-525
0
VERTEX
8
TUMB
10
0
20
0
30
0
70
128
71
-515
72
526
73
525
0
VERTEX
8
TUMB
10
0
20
0
30
0
70
128
71
515
72
516
73
-526
0
VERTEX
8
TUMB
10
0
20
0
30
0
70
128
71
-516
72
527
73
526
0
VERTEX
8
TUMB
10
0
20
0
30
0
70
128
71
516
72
517
73
-527
0
VERTEX
8
TUMB
10
0
20
0
30
0
70
128
71
-517
72
528
73
527
0
VERTEX
8
TUMB
10
0
20
0
30
0
70
128
71
517
72
518
73
-528
0
VERTEX
8
TUMB
10
0
20
0
30
0
70
128
71
-518
72
529
73
528
0
VERTEX
8
TUMB
10
0
20
0
30
0
70
128
71
518
72
519
73
-529
0
VERTEX
8
TUMB
10
0
20
0
30
0
70
128
71
-519
72
530
73
529
0
VERTEX
8
TUMB
10
0
20
0
30
0
70
128
71
519
72
520
73
-530
0
VERTEX
8
TUMB
10
0
20
0
30
0
70
128
71
-520
72
531
73
530
0
VERTEX
8
TUMB
10
0
20
0
30
0
70
128
71
520
72
521
73
-531
0
VERTEX
8
TUMB
10
0
20
0
30
0
70
128
71
-521
72
532
73
531
0
VERTEX
8
TUMB
10
0
20
0
30
0
70
128
71
521
72
522
73
-532
0
VERTEX
8
TUMB
10
0
20
0
30
0
70
128
71
-522
72
523
73
532
0
VERTEX
8
TUMB
10
0
20
0
30
0
70
128
71
522
72
513
73
-523
0
VERTEX
8
TUMB
10
0
20
0
30
0
70
128
71
-524
72
535
73
534
0
VERTEX
8
TUMB
10
0
20
0
30
0
70
128
71
524
72
525
73
-535
0
VERTEX
8
TUMB
10
0
20
0
30
0
70
128
71
-525
72
536
73
535
0
VERTEX
8
TUMB
10
0
20
0
30
0
70
128
71
525
72
526
73
-536
0
VERTEX
8
TUMB
10
0
20
0
30
0
70
128
71
-526
72
537
73
536
0
VERTEX
8
TUMB
10
0
20
0
30
0
70
128
71
526
72
527
73
-537
0
VERTEX
8
TUMB
10
0
20
0
30
0
70
128
71
-527
72
538
73
537
0
VERTEX
8
TUMB
10
0
20
0
30
0
70
128
71
527
72
528
73
-538
0
VERTEX
8
TUMB
10
0
20
0
30
0
70
128
71
-528
72
539
73
538
0
VERTEX
8
TUMB
10
0
20
0
30
0
70
128
71
528
72
529
73
-539
0
VERTEX
8
TUMB
10
0
20
0
30
0
70
128
71
-529
72
540
73
539
0
VERTEX
8
TUMB
10
0
20
0
30
0
70
128
71
529
72
530
73
-540
0
VERTEX
8
TUMB
10
0
20
0
30
0
70
128
71
-530
72
541
73
540
0
VERTEX
8
TUMB
10
0
20
0
30
0
70
128
71
530
72
531
73
-541
0
VERTEX
8
TUMB
10
0
20
0
30
0
70
128
71
-531
72
542
73
541
0
VERTEX
8
TUMB
10
0
20
0
30
0
70
128
71
531
72
532
73
-542
0
VERTEX
8
TUMB
10
0
20
0
30
0
70
128
71
-532
72
533
73
542
0
VERTEX
8
TUMB
10
0
20
0
30
0
70
128
71
532
72
523
73
-533
0
VERTEX
8
TUMB
10
0
20
0
30
0
70
128
71
-534
72
504
73
503
0
VERTEX
8
TUMB
10
0
20
0
30
0
70
128
71
534
72
535
73
-504
0
VERTEX
8
TUMB
10
0
20
0
30
0
70
128
71
-535
72
505
73
504
0
VERTEX
8
TUMB
10
0
20
0
30
0
70
128
71
535
72
536
73
-505
0
VERTEX
8
TUMB
10
0
20
0
30
0
70
128
71
-536
72
506
73
505
0
VERTEX
8
TUMB
10
0
20
0
30
0
70
128
71
536
72
537
73
-506
0
VERTEX
8
TUMB
10
0
20
0
30
0
70
128
71
-537
72
507
73
506
0
VERTEX
8
TUMB
10
0
20
0
30
0
70
128
71
537
72
538
73
-507
0
VERTEX
8
TUMB
10
0
20
0
30
0
70
128
71
-538
72
508
73
507
0
VERTEX
8
TUMB
10
0
20
0
30
0
70
128
71
538
72
539
73
-508
0
VERTEX
8
TUMB
10
0
20
0
30
0
70
128
71
-539
72
509
73
508
0
VERTEX
8
TUMB
10
0
20
0
30
0
70
128
71
539
72
540
73
-509
0
VERTEX
8
TUMB
10
0
20
0
30
0
70
128
71
-540
72
510
73
509
0
VERTEX
8
TUMB
10
0
20
0
30
0
70
128
71
540
72
541
73
-510
0
VERTEX
8
TUMB
10
0
20
0
30
0
70
128
71
-541
72
511
73
510
0
VERTEX
8
TUMB
10
0
20
0
30
0
70
128
71
541
72
542
73
-511
0
VERTEX
8
TUMB
10
0
20
0
30
0
70
128
71
-542
72
502
73
511
0
VERTEX
8
TUMB
10
0
20
0
30
0
70
128
71
542
72
533
73
-502
0
VERTEX
8
TUMB
10
0
20
0
30
0
70
128
71
543
72
545
73
546
0
VERTEX
8
TUMB
10
0
20
0
30
0
70
128
71
543
72
546
73
547
0
VERTEX
8
TUMB
10
0
20
0
30
0
70
128
71
543
72
547
73
548
0
VERTEX
8
TUMB
10
0
20
0
30
0
70
128
71
543
72
548
73
549
0
VERTEX
8
TUMB
10
0
20
0
30
0
70
128
71
543
72
549
73
550
0
VERTEX
8
TUMB
10
0
20
0
30
0
70
128
71
543
72
550
73
551
0
VERTEX
8
TUMB
10
0
20
0
30
0
70
128
71
543
72
551
73
552
0
VERTEX
8
TUMB
10
0
20
0
30
0
70
128
71
543
72
552
73
553
0
VERTEX
8
TUMB
10
0
20
0
30
0
70
128
71
543
72
553
73
544
0
VERTEX
8
TUMB
10
0
20
0
30
0
70
128
71
545
72
555
73
-556
0
VERTEX
8
TUMB
10
0
20
0
30
0
70
128
71
-545
72
556
73
546
0
VERTEX
8
TUMB
10
0
20
0
30
0
70
128
71
546
72
556
73
-557
0
VERTEX
8
TUMB
10
0
20
0
30
0
70
128
71
-546
72
557
73
547
0
VERTEX
8
TUMB
10
0
20
0
30
0
70
128
71
547
72
557
73
-558
0
VERTEX
8
TUMB
10
0
20
0
30
0
70
128
71
-547
72
558
73
548
0
VERTEX
8
TUMB
10
0
20
0
30
0
70
128
71
548
72
558
73
-559
0
VERTEX
8
TUMB
10
0
20
0
30
0
70
128
71
-548
72
559
73
549
0
VERTEX
8
TUMB
10
0
20
0
30
0
70
128
71
549
72
559
73
-560
0
VERTEX
8
TUMB
10
0
20
0
30
0
70
128
71
-549
72
560
73
550
0
VERTEX
8
TUMB
10
0
20
0
30
0
70
128
71
550
72
560
73
-561
0
VERTEX
8
TUMB
10
0
20
0
30
0
70
128
71
-550
72
561
73
551
0
VERTEX
8
TUMB
10
0
20
0
30
0
70
128
71
551
72
561
73
-562
0
VERTEX
8
TUMB
10
0
20
0
30
0
70
128
71
-551
72
562
73
552
0
VERTEX
8
TUMB
10
0
20
0
30
0
70
128
71
552
72
562
73
-563
0
VERTEX
8
TUMB
10
0
20
0
30
0
70
128
71
-552
72
563
73
553
0
VERTEX
8
TUMB
10
0
20
0
30
0
70
128
71
553
72
563
73
-554
0
VERTEX
8
TUMB
10
0
20
0
30
0
70
128
71
-553
72
554
73
544
0
VERTEX
8
TUMB
10
0
20
0
30
0
70
128
71
555
72
565
73
-566
0
VERTEX
8
TUMB
10
0
20
0
30
0
70
128
71
-555
72
566
73
556
0
VERTEX
8
TUMB
10
0
20
0
30
0
70
128
71
556
72
566
73
-567
0
VERTEX
8
TUMB
10
0
20
0
30
0
70
128
71
-556
72
567
73
557
0
VERTEX
8
TUMB
10
0
20
0
30
0
70
128
71
557
72
567
73
-568
0
VERTEX
8
TUMB
10
0
20
0
30
0
70
128
71
-557
72
568
73
558
0
VERTEX
8
TUMB
10
0
20
0
30
0
70
128
71
558
72
568
73
-569
0
VERTEX
8
TUMB
10
0
20
0
30
0
70
128
71
-558
72
569
73
559
0
VERTEX
8
TUMB
10
0
20
0
30
0
70
128
71
559
72
569
73
-570
0
VERTEX
8
TUMB
10
0
20
0
30
0
70
128
71
-559
72
570
73
560
0
VERTEX
8
TUMB
10
0
20
0
30
0
70
128
71
560
72
570
73
-571
0
VERTEX
8
TUMB
10
0
20
0
30
0
70
128
71
-560
72
571
73
561
0
VERTEX
8
TUMB
10
0
20
0
30
0
70
128
71
561
72
571
73
-572
0
VERTEX
8
TUMB
10
0
20
0
30
0
70
128
71
-561
72
572
73
562
0
VERTEX
8
TUMB
10
0
20
0
30
0
70
128
71
562
72
572
73
-573
0
VERTEX
8
TUMB
10
0
20
0
30
0
70
128
71
-562
72
573
73
563
0
VERTEX
8
TUMB
10
0
20
0
30
0
70
128
71
563
72
573
73
-564
0
VERTEX
8
TUMB
10
0
20
0
30
0
70
128
71
-563
72
564
73
554
0
VERTEX
8
TUMB
10
0
20
0
30
0
70
128
71
565
72
575
73
-576
0
VERTEX
8
TUMB
10
0
20
0
30
0
70
128
71
-565
72
576
73
566
0
VERTEX
8
TUMB
10
0
20
0
30
0
70
128
71
566
72
576
73
-577
0
VERTEX
8
TUMB
10
0
20
0
30
0
70
128
71
-566
72
577
73
567
0
VERTEX
8
TUMB
10
0
20
0
30
0
70
128
71
567
72
577
73
-578
0
VERTEX
8
TUMB
10
0
20
0
30
0
70
128
71
-567
72
578
73
568
0
VERTEX
8
TUMB
10
0
20
0
30
0
70
128
71
568
72
578
73
-579
0
VERTEX
8
TUMB
10
0
20
0
30
0
70
128
71
-568
72
579
73
569
0
VERTEX
8
TUMB
10
0
20
0
30
0
70
128
71
569
72
579
73
-580
0
VERTEX
8
TUMB
10
0
20
0
30
0
70
128
71
-569
72
580
73
570
0
VERTEX
8
TUMB
10
0
20
0
30
0
70
128
71
570
72
580
73
-581
0
VERTEX
8
TUMB
10
0
20
0
30
0
70
128
71
-570
72
581
73
571
0
VERTEX
8
TUMB
10
0
20
0
30
0
70
128
71
571
72
581
73
-582
0
VERTEX
8
TUMB
10
0
20
0
30
0
70
128
71
-571
72
582
73
572
0
VERTEX
8
TUMB
10
0
20
0
30
0
70
128
71
572
72
582
73
-583
0
VERTEX
8
TUMB
10
0
20
0
30
0
70
128
71
-572
72
583
73
573
0
VERTEX
8
TUMB
10
0
20
0
30
0
70
128
71
573
72
583
73
-574
0
VERTEX
8
TUMB
10
0
20
0
30
0
70
128
71
-573
72
574
73
564
0
VERTEX
8
TUMB
10
0
20
0
30
0
70
128
71
575
72
585
73
-586
0
VERTEX
8
TUMB
10
0
20
0
30
0
70
128
71
-575
72
586
73
576
0
VERTEX
8
TUMB
10
0
20
0
30
0
70
128
71
576
72
586
73
-587
0
VERTEX
8
TUMB
10
0
20
0
30
0
70
128
71
-576
72
587
73
577
0
VERTEX
8
TUMB
10
0
20
0
30
0
70
128
71
577
72
587
73
-588
0
VERTEX
8
TUMB
10
0
20
0
30
0
70
128
71
-577
72
588
73
578
0
VERTEX
8
TUMB
10
0
20
0
30
0
70
128
71
578
72
588
73
-589
0
VERTEX
8
TUMB
10
0
20
0
30
0
70
128
71
-578
72
589
73
579
0
VERTEX
8
TUMB
10
0
20
0
30
0
70
128
71
579
72
589
73
-590
0
VERTEX
8
TUMB
10
0
20
0
30
0
70
128
71
-579
72
590
73
580
0
VERTEX
8
TUMB
10
0
20
0
30
0
70
128
71
580
72
590
73
-591
0
VERTEX
8
TUMB
10
0
20
0
30
0
70
128
71
-580
72
591
73
581
0
VERTEX
8
TUMB
10
0
20
0
30
0
70
128
71
581
72
591
73
-592
0
VERTEX
8
TUMB
10
0
20
0
30
0
70
128
71
-581
72
592
73
582
0
VERTEX
8
TUMB
10
0
20
0
30
0
70
128
71
582
72
592
73
-593
0
VERTEX
8
TUMB
10
0
20
0
30
0
70
128
71
-582
72
593
73
583
0
VERTEX
8
TUMB
10
0
20
0
30
0
70
128
71
583
72
593
73
-584
0
VERTEX
8
TUMB
10
0
20
0
30
0
70
128
71
-583
72
584
73
574
0
VERTEX
8
TUMB
10
0
20
0
30
0
70
128
71
594
72
597
73
596
0
VERTEX
8
TUMB
10
0
20
0
30
0
70
128
71
594
72
598
73
597
0
VERTEX
8
TUMB
10
0
20
0
30
0
70
128
71
594
72
599
73
598
0
VERTEX
8
TUMB
10
0
20
0
30
0
70
128
71
594
72
600
73
599
0
VERTEX
8
TUMB
10
0
20
0
30
0
70
128
71
594
72
601
73
600
0
VERTEX
8
TUMB
10
0
20
0
30
0
70
128
71
594
72
602
73
601
0
VERTEX
8
TUMB
10
0
20
0
30
0
70
128
71
594
72
603
73
602
0
VERTEX
8
TUMB
10
0
20
0
30
0
70
128
71
594
72
604
73
603
0
VERTEX
8
TUMB
10
0
20
0
30
0
70
128
71
594
72
595
73
604
0
VERTEX
8
TUMB
10
0
20
0
30
0
70
128
71
-596
72
607
73
606
0
VERTEX
8
TUMB
10
0
20
0
30
0
70
128
71
596
72
597
73
-607
0
VERTEX
8
TUMB
10
0
20
0
30
0
70
128
71
-597
72
608
73
607
0
VERTEX
8
TUMB
10
0
20
0
30
0
70
128
71
597
72
598
73
-608
0
VERTEX
8
TUMB
10
0
20
0
30
0
70
128
71
-598
72
609
73
608
0
VERTEX
8
TUMB
10
0
20
0
30
0
70
128
71
598
72
599
73
-609
0
VERTEX
8
TUMB
10
0
20
0
30
0
70
128
71
-599
72
610
73
609
0
VERTEX
8
TUMB
10
0
20
0
30
0
70
128
71
599
72
600
73
-610
0
VERTEX
8
TUMB
10
0
20
0
30
0
70
128
71
-600
72
611
73
610
0
VERTEX
8
TUMB
10
0
20
0
30
0
70
128
71
600
72
601
73
-611
0
VERTEX
8
TUMB
10
0
20
0
30
0
70
128
71
-601
72
612
73
611
0
VERTEX
8
TUMB
10
0
20
0
30
0
70
128
71
601
72
602
73
-612
0
VERTEX
8
TUMB
10
0
20
0
30
0
70
128
71
-602
72
613
73
612
0
VERTEX
8
TUMB
10
0
20
0
30
0
70
128
71
602
72
603
73
-613
0
VERTEX
8
TUMB
10
0
20
0
30
0
70
128
71
-603
72
614
73
613
0
VERTEX
8
TUMB
10
0
20
0
30
0
70
128
71
603
72
604
73
-614
0
VERTEX
8
TUMB
10
0
20
0
30
0
70
128
71
-604
72
605
73
614
0
VERTEX
8
TUMB
10
0
20
0
30
0
70
128
71
604
72
595
73
-605
0
VERTEX
8
TUMB
10
0
20
0
30
0
70
128
71
-606
72
617
73
616
0
VERTEX
8
TUMB
10
0
20
0
30
0
70
128
71
606
72
607
73
-617
0
VERTEX
8
TUMB
10
0
20
0
30
0
70
128
71
-607
72
618
73
617
0
VERTEX
8
TUMB
10
0
20
0
30
0
70
128
71
607
72
608
73
-618
0
VERTEX
8
TUMB
10
0
20
0
30
0
70
128
71
-608
72
619
73
618
0
VERTEX
8
TUMB
10
0
20
0
30
0
70
128
71
608
72
609
73
-619
0
VERTEX
8
TUMB
10
0
20
0
30
0
70
128
71
-609
72
620
73
619
0
VERTEX
8
TUMB
10
0
20
0
30
0
70
128
71
609
72
610
73
-620
0
VERTEX
8
TUMB
10
0
20
0
30
0
70
128
71
-610
72
621
73
620
0
VERTEX
8
TUMB
10
0
20
0
30
0
70
128
71
610
72
611
73
-621
0
VERTEX
8
TUMB
10
0
20
0
30
0
70
128
71
-611
72
622
73
621
0
VERTEX
8
TUMB
10
0
20
0
30
0
70
128
71
611
72
612
73
-622
0
VERTEX
8
TUMB
10
0
20
0
30
0
70
128
71
-612
72
623
73
622
0
VERTEX
8
TUMB
10
0
20
0
30
0
70
128
71
612
72
613
73
-623
0
VERTEX
8
TUMB
10
0
20
0
30
0
70
128
71
-613
72
624
73
623
0
VERTEX
8
TUMB
10
0
20
0
30
0
70
128
71
613
72
614
73
-624
0
VERTEX
8
TUMB
10
0
20
0
30
0
70
128
71
-614
72
615
73
624
0
VERTEX
8
TUMB
10
0
20
0
30
0
70
128
71
614
72
605
73
-615
0
VERTEX
8
TUMB
10
0
20
0
30
0
70
128
71
-616
72
586
73
585
0
VERTEX
8
TUMB
10
0
20
0
30
0
70
128
71
616
72
617
73
-586
0
VERTEX
8
TUMB
10
0
20
0
30
0
70
128
71
-617
72
587
73
586
0
VERTEX
8
TUMB
10
0
20
0
30
0
70
128
71
617
72
618
73
-587
0
VERTEX
8
TUMB
10
0
20
0
30
0
70
128
71
-618
72
588
73
587
0
VERTEX
8
TUMB
10
0
20
0
30
0
70
128
71
618
72
619
73
-588
0
VERTEX
8
TUMB
10
0
20
0
30
0
70
128
71
-619
72
589
73
588
0
VERTEX
8
TUMB
10
0
20
0
30
0
70
128
71
619
72
620
73
-589
0
VERTEX
8
TUMB
10
0
20
0
30
0
70
128
71
-620
72
590
73
589
0
VERTEX
8
TUMB
10
0
20
0
30
0
70
128
71
620
72
621
73
-590
0
VERTEX
8
TUMB
10
0
20
0
30
0
70
128
71
-621
72
591
73
590
0
VERTEX
8
TUMB
10
0
20
0
30
0
70
128
71
621
72
622
73
-591
0
VERTEX
8
TUMB
10
0
20
0
30
0
70
128
71
-622
72
592
73
591
0
VERTEX
8
TUMB
10
0
20
0
30
0
70
128
71
622
72
623
73
-592
0
VERTEX
8
TUMB
10
0
20
0
30
0
70
128
71
-623
72
593
73
592
0
VERTEX
8
TUMB
10
0
20
0
30
0
70
128
71
623
72
624
73
-593
0
VERTEX
8
TUMB
10
0
20
0
30
0
70
128
71
-624
72
584
73
593
0
VERTEX
8
TUMB
10
0
20
0
30
0
70
128
71
624
72
615
73
-584
0
VERTEX
8
TUMB
10
0
20
0
30
0
70
128
71
625
72
627
73
628
0
VERTEX
8
TUMB
10
0
20
0
30
0
70
128
71
625
72
628
73
629
0
VERTEX
8
TUMB
10
0
20
0
30
0
70
128
71
625
72
629
73
630
0
VERTEX
8
TUMB
10
0
20
0
30
0
70
128
71
625
72
630
73
631
0
VERTEX
8
TUMB
10
0
20
0
30
0
70
128
71
625
72
631
73
632
0
VERTEX
8
TUMB
10
0
20
0
30
0
70
128
71
625
72
632
73
633
0
VERTEX
8
TUMB
10
0
20
0
30
0
70
128
71
625
72
633
73
634
0
VERTEX
8
TUMB
10
0
20
0
30
0
70
128
71
625
72
634
73
635
0
VERTEX
8
TUMB
10
0
20
0
30
0
70
128
71
625
72
635
73
626
0
VERTEX
8
TUMB
10
0
20
0
30
0
70
128
71
627
72
637
73
-638
0
VERTEX
8
TUMB
10
0
20
0
30
0
70
128
71
-627
72
638
73
628
0
VERTEX
8
TUMB
10
0
20
0
30
0
70
128
71
628
72
638
73
-639
0
VERTEX
8
TUMB
10
0
20
0
30
0
70
128
71
-628
72
639
73
629
0
VERTEX
8
TUMB
10
0
20
0
30
0
70
128
71
629
72
639
73
-640
0
VERTEX
8
TUMB
10
0
20
0
30
0
70
128
71
-629
72
640
73
630
0
VERTEX
8
TUMB
10
0
20
0
30
0
70
128
71
630
72
640
73
-641
0
VERTEX
8
TUMB
10
0
20
0
30
0
70
128
71
-630
72
641
73
631
0
VERTEX
8
TUMB
10
0
20
0
30
0
70
128
71
631
72
641
73
-642
0
VERTEX
8
TUMB
10
0
20
0
30
0
70
128
71
-631
72
642
73
632
0
VERTEX
8
TUMB
10
0
20
0
30
0
70
128
71
632
72
642
73
-643
0
VERTEX
8
TUMB
10
0
20
0
30
0
70
128
71
-632
72
643
73
633
0
VERTEX
8
TUMB
10
0
20
0
30
0
70
128
71
633
72
643
73
-644
0
VERTEX
8
TUMB
10
0
20
0
30
0
70
128
71
-633
72
644
73
634
0
VERTEX
8
TUMB
10
0
20
0
30
0
70
128
71
634
72
644
73
-645
0
VERTEX
8
TUMB
10
0
20
0
30
0
70
128
71
-634
72
645
73
635
0
VERTEX
8
TUMB
10
0
20
0
30
0
70
128
71
635
72
645
73
-636
0
VERTEX
8
TUMB
10
0
20
0
30
0
70
128
71
-635
72
636
73
626
0
VERTEX
8
TUMB
10
0
20
0
30
0
70
128
71
637
72
647
73
-648
0
VERTEX
8
TUMB
10
0
20
0
30
0
70
128
71
-637
72
648
73
638
0
VERTEX
8
TUMB
10
0
20
0
30
0
70
128
71
638
72
648
73
-649
0
VERTEX
8
TUMB
10
0
20
0
30
0
70
128
71
-638
72
649
73
639
0
VERTEX
8
TUMB
10
0
20
0
30
0
70
128
71
639
72
649
73
-650
0
VERTEX
8
TUMB
10
0
20
0
30
0
70
128
71
-639
72
650
73
640
0
VERTEX
8
TUMB
10
0
20
0
30
0
70
128
71
640
72
650
73
-651
0
VERTEX
8
TUMB
10
0
20
0
30
0
70
128
71
-640
72
651
73
641
0
VERTEX
8
TUMB
10
0
20
0
30
0
70
128
71
641
72
651
73
-652
0
VERTEX
8
TUMB
10
0
20
0
30
0
70
128
71
-641
72
652
73
642
0
VERTEX
8
TUMB
10
0
20
0
30
0
70
128
71
642
72
652
73
-653
0
VERTEX
8
TUMB
10
0
20
0
30
0
70
128
71
-642
72
653
73
643
0
VERTEX
8
TUMB
10
0
20
0
30
0
70
128
71
643
72
653
73
-654
0
VERTEX
8
TUMB
10
0
20
0
30
0
70
128
71
-643
72
654
73
644
0
VERTEX
8
TUMB
10
0
20
0
30
0
70
128
71
644
72
654
73
-655
0
VERTEX
8
TUMB
10
0
20
0
30
0
70
128
71
-644
72
655
73
645
0
VERTEX
8
TUMB
10
0
20
0
30
0
70
128
71
645
72
655
73
-646
0
VERTEX
8
TUMB
10
0
20
0
30
0
70
128
71
-645
72
646
73
636
0
VERTEX
8
TUMB
10
0
20
0
30
0
70
128
71
647
72
657
73
-658
0
VERTEX
8
TUMB
10
0
20
0
30
0
70
128
71
-647
72
658
73
648
0
VERTEX
8
TUMB
10
0
20
0
30
0
70
128
71
648
72
658
73
-659
0
VERTEX
8
TUMB
10
0
20
0
30
0
70
128
71
-648
72
659
73
649
0
VERTEX
8
TUMB
10
0
20
0
30
0
70
128
71
649
72
659
73
-660
0
VERTEX
8
TUMB
10
0
20
0
30
0
70
128
71
-649
72
660
73
650
0
VERTEX
8
TUMB
10
0
20
0
30
0
70
128
71
650
72
660
73
-661
0
VERTEX
8
TUMB
10
0
20
0
30
0
70
128
71
-650
72
661
73
651
0
VERTEX
8
TUMB
10
0
20
0
30
0
70
128
71
651
72
661
73
-662
0
VERTEX
8
TUMB
10
0
20
0
30
0
70
128
71
-651
72
662
73
652
0
VERTEX
8
TUMB
10
0
20
0
30
0
70
128
71
652
72
662
73
-663
0
VERTEX
8
TUMB
10
0
20
0
30
0
70
128
71
-652
72
663
73
653
0
VERTEX
8
TUMB
10
0
20
0
30
0
70
128
71
653
72
663
73
-664
0
VERTEX
8
TUMB
10
0
20
0
30
0
70
128
71
-653
72
664
73
654
0
VERTEX
8
TUMB
10
0
20
0
30
0
70
128
71
654
72
664
73
-665
0
VERTEX
8
TUMB
10
0
20
0
30
0
70
128
71
-654
72
665
73
655
0
VERTEX
8
TUMB
10
0
20
0
30
0
70
128
71
655
72
665
73
-656
0
VERTEX
8
TUMB
10
0
20
0
30
0
70
128
71
-655
72
656
73
646
0
VERTEX
8
TUMB
10
0
20
0
30
0
70
128
71
657
72
667
73
-668
0
VERTEX
8
TUMB
10
0
20
0
30
0
70
128
71
-657
72
668
73
658
0
VERTEX
8
TUMB
10
0
20
0
30
0
70
128
71
658
72
668
73
-669
0
VERTEX
8
TUMB
10
0
20
0
30
0
70
128
71
-658
72
669
73
659
0
VERTEX
8
TUMB
10
0
20
0
30
0
70
128
71
659
72
669
73
-670
0
VERTEX
8
TUMB
10
0
20
0
30
0
70
128
71
-659
72
670
73
660
0
VERTEX
8
TUMB
10
0
20
0
30
0
70
128
71
660
72
670
73
-671
0
VERTEX
8
TUMB
10
0
20
0
30
0
70
128
71
-660
72
671
73
661
0
VERTEX
8
TUMB
10
0
20
0
30
0
70
128
71
661
72
671
73
-672
0
VERTEX
8
TUMB
10
0
20
0
30
0
70
128
71
-661
72
672
73
662
0
VERTEX
8
TUMB
10
0
20
0
30
0
70
128
71
662
72
672
73
-673
0
VERTEX
8
TUMB
10
0
20
0
30
0
70
128
71
-662
72
673
73
663
0
VERTEX
8
TUMB
10
0
20
0
30
0
70
128
71
663
72
673
73
-674
0
VERTEX
8
TUMB
10
0
20
0
30
0
70
128
71
-663
72
674
73
664
0
VERTEX
8
TUMB
10
0
20
0
30
0
70
128
71
664
72
674
73
-675
0
VERTEX
8
TUMB
10
0
20
0
30
0
70
128
71
-664
72
675
73
665
0
VERTEX
8
TUMB
10
0
20
0
30
0
70
128
71
665
72
675
73
-666
0
VERTEX
8
TUMB
10
0
20
0
30
0
70
128
71
-665
72
666
73
656
0
VERTEX
8
TUMB
10
0
20
0
30
0
70
128
71
676
72
679
73
678
0
VERTEX
8
TUMB
10
0
20
0
30
0
70
128
71
676
72
680
73
679
0
VERTEX
8
TUMB
10
0
20
0
30
0
70
128
71
676
72
681
73
680
0
VERTEX
8
TUMB
10
0
20
0
30
0
70
128
71
676
72
682
73
681
0
VERTEX
8
TUMB
10
0
20
0
30
0
70
128
71
676
72
683
73
682
0
VERTEX
8
TUMB
10
0
20
0
30
0
70
128
71
676
72
684
73
683
0
VERTEX
8
TUMB
10
0
20
0
30
0
70
128
71
676
72
685
73
684
0
VERTEX
8
TUMB
10
0
20
0
30
0
70
128
71
676
72
686
73
685
0
VERTEX
8
TUMB
10
0
20
0
30
0
70
128
71
676
72
677
73
686
0
VERTEX
8
TUMB
10
0
20
0
30
0
70
128
71
-678
72
689
73
688
0
VERTEX
8
TUMB
10
0
20
0
30
0
70
128
71
678
72
679
73
-689
0
VERTEX
8
TUMB
10
0
20
0
30
0
70
128
71
-679
72
690
73
689
0
VERTEX
8
TUMB
10
0
20
0
30
0
70
128
71
679
72
680
73
-690
0
VERTEX
8
TUMB
10
0
20
0
30
0
70
128
71
-680
72
691
73
690
0
VERTEX
8
TUMB
10
0
20
0
30
0
70
128
71
680
72
681
73
-691
0
VERTEX
8
TUMB
10
0
20
0
30
0
70
128
71
-681
72
692
73
691
0
VERTEX
8
TUMB
10
0
20
0
30
0
70
128
71
681
72
682
73
-692
0
VERTEX
8
TUMB
10
0
20
0
30
0
70
128
71
-682
72
693
73
692
0
VERTEX
8
TUMB
10
0
20
0
30
0
70
128
71
682
72
683
73
-693
0
VERTEX
8
TUMB
10
0
20
0
30
0
70
128
71
-683
72
694
73
693
0
VERTEX
8
TUMB
10
0
20
0
30
0
70
128
71
683
72
684
73
-694
0
VERTEX
8
TUMB
10
0
20
0
30
0
70
128
71
-684
72
695
73
694
0
VERTEX
8
TUMB
10
0
20
0
30
0
70
128
71
684
72
685
73
-695
0
VERTEX
8
TUMB
10
0
20
0
30
0
70
128
71
-685
72
696
73
695
0
VERTEX
8
TUMB
10
0
20
0
30
0
70
128
71
685
72
686
73
-696
0
VERTEX
8
TUMB
10
0
20
0
30
0
70
128
71
-686
72
687
73
696
0
VERTEX
8
TUMB
10
0
20
0
30
0
70
128
71
686
72
677
73
-687
0
VERTEX
8
TUMB
10
0
20
0
30
0
70
128
71
-688
72
699
73
698
0
VERTEX
8
TUMB
10
0
20
0
30
0
70
128
71
688
72
689
73
-699
0
VERTEX
8
TUMB
10
0
20
0
30
0
70
128
71
-689
72
700
73
699
0
VERTEX
8
TUMB
10
0
20
0
30
0
70
128
71
689
72
690
73
-700
0
VERTEX
8
TUMB
10
0
20
0
30
0
70
128
71
-690
72
701
73
700
0
VERTEX
8
TUMB
10
0
20
0
30
0
70
128
71
690
72
691
73
-701
0
VERTEX
8
TUMB
10
0
20
0
30
0
70
128
71
-691
72
702
73
701
0
VERTEX
8
TUMB
10
0
20
0
30
0
70
128
71
691
72
692
73
-702
0
VERTEX
8
TUMB
10
0
20
0
30
0
70
128
71
-692
72
703
73
702
0
VERTEX
8
TUMB
10
0
20
0
30
0
70
128
71
692
72
693
73
-703
0
VERTEX
8
TUMB
10
0
20
0
30
0
70
128
71
-693
72
704
73
703
0
VERTEX
8
TUMB
10
0
20
0
30
0
70
128
71
693
72
694
73
-704
0
VERTEX
8
TUMB
10
0
20
0
30
0
70
128
71
-694
72
705
73
704
0
VERTEX
8
TUMB
10
0
20
0
30
0
70
128
71
694
72
695
73
-705
0
VERTEX
8
TUMB
10
0
20
0
30
0
70
128
71
-695
72
706
73
705
0
VERTEX
8
TUMB
10
0
20
0
30
0
70
128
71
695
72
696
73
-706
0
VERTEX
8
TUMB
10
0
20
0
30
0
70
128
71
-696
72
697
73
706
0
VERTEX
8
TUMB
10
0
20
0
30
0
70
128
71
696
72
687
73
-697
0
VERTEX
8
TUMB
10
0
20
0
30
0
70
128
71
-698
72
668
73
667
0
VERTEX
8
TUMB
10
0
20
0
30
0
70
128
71
698
72
699
73
-668
0
VERTEX
8
TUMB
10
0
20
0
30
0
70
128
71
-699
72
669
73
668
0
VERTEX
8
TUMB
10
0
20
0
30
0
70
128
71
699
72
700
73
-669
0
VERTEX
8
TUMB
10
0
20
0
30
0
70
128
71
-700
72
670
73
669
0
VERTEX
8
TUMB
10
0
20
0
30
0
70
128
71
700
72
701
73
-670
0
VERTEX
8
TUMB
10
0
20
0
30
0
70
128
71
-701
72
671
73
670
0
VERTEX
8
TUMB
10
0
20
0
30
0
70
128
71
701
72
702
73
-671
0
VERTEX
8
TUMB
10
0
20
0
30
0
70
128
71
-702
72
672
73
671
0
VERTEX
8
TUMB
10
0
20
0
30
0
70
128
71
702
72
703
73
-672
0
VERTEX
8
TUMB
10
0
20
0
30
0
70
128
71
-703
72
673
73
672
0
VERTEX
8
TUMB
10
0
20
0
30
0
70
128
71
703
72
704
73
-673
0
VERTEX
8
TUMB
10
0
20
0
30
0
70
128
71
-704
72
674
73
673
0
VERTEX
8
TUMB
10
0
20
0
30
0
70
128
71
704
72
705
73
-674
0
VERTEX
8
TUMB
10
0
20
0
30
0
70
128
71
-705
72
675
73
674
0
VERTEX
8
TUMB
10
0
20
0
30
0
70
128
71
705
72
706
73
-675
0
VERTEX
8
TUMB
10
0
20
0
30
0
70
128
71
-706
72
666
73
675
0
VERTEX
8
TUMB
10
0
20
0
30
0
70
128
71
706
72
697
73
-666
0
VERTEX
8
TUMB
10
0
20
0
30
0
70
128
71
707
72
709
73
710
0
VERTEX
8
TUMB
10
0
20
0
30
0
70
128
71
707
72
710
73
711
0
VERTEX
8
TUMB
10
0
20
0
30
0
70
128
71
707
72
711
73
712
0
VERTEX
8
TUMB
10
0
20
0
30
0
70
128
71
707
72
712
73
713
0
VERTEX
8
TUMB
10
0
20
0
30
0
70
128
71
707
72
713
73
714
0
VERTEX
8
TUMB
10
0
20
0
30
0
70
128
71
707
72
714
73
715
0
VERTEX
8
TUMB
10
0
20
0
30
0
70
128
71
707
72
715
73
716
0
VERTEX
8
TUMB
10
0
20
0
30
0
70
128
71
707
72
716
73
717
0
VERTEX
8
TUMB
10
0
20
0
30
0
70
128
71
707
72
717
73
708
0
VERTEX
8
TUMB
10
0
20
0
30
0
70
128
71
709
72
719
73
-720
0
VERTEX
8
TUMB
10
0
20
0
30
0
70
128
71
-709
72
720
73
710
0
VERTEX
8
TUMB
10
0
20
0
30
0
70
128
71
710
72
720
73
-721
0
VERTEX
8
TUMB
10
0
20
0
30
0
70
128
71
-710
72
721
73
711
0
VERTEX
8
TUMB
10
0
20
0
30
0
70
128
71
711
72
721
73
-722
0
VERTEX
8
TUMB
10
0
20
0
30
0
70
128
71
-711
72
722
73
712
0
VERTEX
8
TUMB
10
0
20
0
30
0
70
128
71
712
72
722
73
-723
0
VERTEX
8
TUMB
10
0
20
0
30
0
70
128
71
-712
72
723
73
713
0
VERTEX
8
TUMB
10
0
20
0
30
0
70
128
71
713
72
723
73
-724
0
VERTEX
8
TUMB
10
0
20
0
30
0
70
128
71
-713
72
724
73
714
0
VERTEX
8
TUMB
10
0
20
0
30
0
70
128
71
714
72
724
73
-725
0
VERTEX
8
TUMB
10
0
20
0
30
0
70
128
71
-714
72
725
73
715
0
VERTEX
8
TUMB
10
0
20
0
30
0
70
128
71
715
72
725
73
-726
0
VERTEX
8
TUMB
10
0
20
0
30
0
70
128
71
-715
72
726
73
716
0
VERTEX
8
TUMB
10
0
20
0
30
0
70
128
71
716
72
726
73
-727
0
VERTEX
8
TUMB
10
0
20
0
30
0
70
128
71
-716
72
727
73
717
0
VERTEX
8
TUMB
10
0
20
0
30
0
70
128
71
717
72
727
73
-718
0
VERTEX
8
TUMB
10
0
20
0
30
0
70
128
71
-717
72
718
73
708
0
VERTEX
8
TUMB
10
0
20
0
30
0
70
128
71
719
72
729
73
-730
0
VERTEX
8
TUMB
10
0
20
0
30
0
70
128
71
-719
72
730
73
720
0
VERTEX
8
TUMB
10
0
20
0
30
0
70
128
71
720
72
730
73
-731
0
VERTEX
8
TUMB
10
0
20
0
30
0
70
128
71
-720
72
731
73
721
0
VERTEX
8
TUMB
10
0
20
0
30
0
70
128
71
721
72
731
73
-732
0
VERTEX
8
TUMB
10
0
20
0
30
0
70
128
71
-721
72
732
73
722
0
VERTEX
8
TUMB
10
0
20
0
30
0
70
128
71
722
72
732
73
-733
0
VERTEX
8
TUMB
10
0
20
0
30
0
70
128
71
-722
72
733
73
723
0
VERTEX
8
TUMB
10
0
20
0
30
0
70
128
71
723
72
733
73
-734
0
VERTEX
8
TUMB
10
0
20
0
30
0
70
128
71
-723
72
734
73
724
0
VERTEX
8
TUMB
10
0
20
0
30
0
70
128
71
724
72
734
73
-735
0
VERTEX
8
TUMB
10
0
20
0
30
0
70
128
71
-724
72
735
73
725
0
VERTEX
8
TUMB
10
0
20
0
30
0
70
128
71
725
72
735
73
-736
0
VERTEX
8
TUMB
10
0
20
0
30
0
70
128
71
-725
72
736
73
726
0
VERTEX
8
TUMB
10
0
20
0
30
0
70
128
71
726
72
736
73
-737
0
VERTEX
8
TUMB
10
0
20
0
30
0
70
128
71
-726
72
737
73
727
0
VERTEX
8
TUMB
10
0
20
0
30
0
70
128
71
727
72
737
73
-728
0
VERTEX
8
TUMB
10
0
20
0
30
0
70
128
71
-727
72
728
73
718
0
VERTEX
8
TUMB
10
0
20
0
30
0
70
128
71
729
72
739
73
-740
0
VERTEX
8
TUMB
10
0
20
0
30
0
70
128
71
-729
72
740
73
730
0
VERTEX
8
TUMB
10
0
20
0
30
0
70
128
71
730
72
740
73
-741
0
VERTEX
8
TUMB
10
0
20
0
30
0
70
128
71
-730
72
741
73
731
0
VERTEX
8
TUMB
10
0
20
0
30
0
70
128
71
731
72
741
73
-742
0
VERTEX
8
TUMB
10
0
20
0
30
0
70
128
71
-731
72
742
73
732
0
VERTEX
8
TUMB
10
0
20
0
30
0
70
128
71
732
72
742
73
-743
0
VERTEX
8
TUMB
10
0
20
0
30
0
70
128
71
-732
72
743
73
733
0
VERTEX
8
TUMB
10
0
20
0
30
0
70
128
71
733
72
743
73
-744
0
VERTEX
8
TUMB
10
0
20
0
30
0
70
128
71
-733
72
744
73
734
0
VERTEX
8
TUMB
10
0
20
0
30
0
70
128
71
734
72
744
73
-745
0
VERTEX
8
TUMB
10
0
20
0
30
0
70
128
71
-734
72
745
73
735
0
VERTEX
8
TUMB
10
0
20
0
30
0
70
128
71
735
72
745
73
-746
0
VERTEX
8
TUMB
10
0
20
0
30
0
70
128
71
-735
72
746
73
736
0
VERTEX
8
TUMB
10
0
20
0
30
0
70
128
71
736
72
746
73
-747
0
VERTEX
8
TUMB
10
0
20
0
30
0
70
128
71
-736
72
747
73
737
0
VERTEX
8
TUMB
10
0
20
0
30
0
70
128
71
737
72
747
73
-738
0
VERTEX
8
TUMB
10
0
20
0
30
0
70
128
71
-737
72
738
73
728
0
VERTEX
8
TUMB
10
0
20
0
30
0
70
128
71
739
72
749
73
-750
0
VERTEX
8
TUMB
10
0
20
0
30
0
70
128
71
-739
72
750
73
740
0
VERTEX
8
TUMB
10
0
20
0
30
0
70
128
71
740
72
750
73
-751
0
VERTEX
8
TUMB
10
0
20
0
30
0
70
128
71
-740
72
751
73
741
0
VERTEX
8
TUMB
10
0
20
0
30
0
70
128
71
741
72
751
73
-752
0
VERTEX
8
TUMB
10
0
20
0
30
0
70
128
71
-741
72
752
73
742
0
VERTEX
8
TUMB
10
0
20
0
30
0
70
128
71
742
72
752
73
-753
0
VERTEX
8
TUMB
10
0
20
0
30
0
70
128
71
-742
72
753
73
743
0
VERTEX
8
TUMB
10
0
20
0
30
0
70
128
71
743
72
753
73
-754
0
VERTEX
8
TUMB
10
0
20
0
30
0
70
128
71
-743
72
754
73
744
0
VERTEX
8
TUMB
10
0
20
0
30
0
70
128
71
744
72
754
73
-755
0
VERTEX
8
TUMB
10
0
20
0
30
0
70
128
71
-744
72
755
73
745
0
VERTEX
8
TUMB
10
0
20
0
30
0
70
128
71
745
72
755
73
-756
0
VERTEX
8
TUMB
10
0
20
0
30
0
70
128
71
-745
72
756
73
746
0
VERTEX
8
TUMB
10
0
20
0
30
0
70
128
71
746
72
756
73
-757
0
VERTEX
8
TUMB
10
0
20
0
30
0
70
128
71
-746
72
757
73
747
0
VERTEX
8
TUMB
10
0
20
0
30
0
70
128
71
747
72
757
73
-748
0
VERTEX
8
TUMB
10
0
20
0
30
0
70
128
71
-747
72
748
73
738
0
VERTEX
8
TUMB
10
0
20
0
30
0
70
128
71
758
72
761
73
760
0
VERTEX
8
TUMB
10
0
20
0
30
0
70
128
71
758
72
762
73
761
0
VERTEX
8
TUMB
10
0
20
0
30
0
70
128
71
758
72
763
73
762
0
VERTEX
8
TUMB
10
0
20
0
30
0
70
128
71
758
72
764
73
763
0
VERTEX
8
TUMB
10
0
20
0
30
0
70
128
71
758
72
765
73
764
0
VERTEX
8
TUMB
10
0
20
0
30
0
70
128
71
758
72
766
73
765
0
VERTEX
8
TUMB
10
0
20
0
30
0
70
128
71
758
72
767
73
766
0
VERTEX
8
TUMB
10
0
20
0
30
0
70
128
71
758
72
768
73
767
0
VERTEX
8
TUMB
10
0
20
0
30
0
70
128
71
758
72
759
73
768
0
VERTEX
8
TUMB
10
0
20
0
30
0
70
128
71
-760
72
771
73
770
0
VERTEX
8
TUMB
10
0
20
0
30
0
70
128
71
760
72
761
73
-771
0
VERTEX
8
TUMB
10
0
20
0
30
0
70
128
71
-761
72
772
73
771
0
VERTEX
8
TUMB
10
0
20
0
30
0
70
128
71
761
72
762
73
-772
0
VERTEX
8
TUMB
10
0
20
0
30
0
70
128
71
-762
72
773
73
772
0
VERTEX
8
TUMB
10
0
20
0
30
0
70
128
71
762
72
763
73
-773
0
VERTEX
8
TUMB
10
0
20
0
30
0
70
128
71
-763
72
774
73
773
0
VERTEX
8
TUMB
10
0
20
0
30
0
70
128
71
763
72
764
73
-774
0
VERTEX
8
TUMB
10
0
20
0
30
0
70
128
71
-764
72
775
73
774
0
VERTEX
8
TUMB
10
0
20
0
30
0
70
128
71
764
72
765
73
-775
0
VERTEX
8
TUMB
10
0
20
0
30
0
70
128
71
-765
72
776
73
775
0
VERTEX
8
TUMB
10
0
20
0
30
0
70
128
71
765
72
766
73
-776
0
VERTEX
8
TUMB
10
0
20
0
30
0
70
128
71
-766
72
777
73
776
0
VERTEX
8
TUMB
10
0
20
0
30
0
70
128
71
766
72
767
73
-777
0
VERTEX
8
TUMB
10
0
20
0
30
0
70
128
71
-767
72
778
73
777
0
VERTEX
8
TUMB
10
0
20
0
30
0
70
128
71
767
72
768
73
-778
0
VERTEX
8
TUMB
10
0
20
0
30
0
70
128
71
-768
72
769
73
778
0
VERTEX
8
TUMB
10
0
20
0
30
0
70
128
71
768
72
759
73
-769
0
VERTEX
8
TUMB
10
0
20
0
30
0
70
128
71
-770
72
781
73
780
0
VERTEX
8
TUMB
10
0
20
0
30
0
70
128
71
770
72
771
73
-781
0
VERTEX
8
TUMB
10
0
20
0
30
0
70
128
71
-771
72
782
73
781
0
VERTEX
8
TUMB
10
0
20
0
30
0
70
128
71
771
72
772
73
-782
0
VERTEX
8
TUMB
10
0
20
0
30
0
70
128
71
-772
72
783
73
782
0
VERTEX
8
TUMB
10
0
20
0
30
0
70
128
71
772
72
773
73
-783
0
VERTEX
8
TUMB
10
0
20
0
30
0
70
128
71
-773
72
784
73
783
0
VERTEX
8
TUMB
10
0
20
0
30
0
70
128
71
773
72
774
73
-784
0
VERTEX
8
TUMB
10
0
20
0
30
0
70
128
71
-774
72
785
73
784
0
VERTEX
8
TUMB
10
0
20
0
30
0
70
128
71
774
72
775
73
-785
0
VERTEX
8
TUMB
10
0
20
0
30
0
70
128
71
-775
72
786
73
785
0
VERTEX
8
TUMB
10
0
20
0
30
0
70
128
71
775
72
776
73
-786
0
VERTEX
8
TUMB
10
0
20
0
30
0
70
128
71
-776
72
787
73
786
0
VERTEX
8
TUMB
10
0
20
0
30
0
70
128
71
776
72
777
73
-787
0
VERTEX
8
TUMB
10
0
20
0
30
0
70
128
71
-777
72
788
73
787
0
VERTEX
8
TUMB
10
0
20
0
30
0
70
128
71
777
72
778
73
-788
0
VERTEX
8
TUMB
10
0
20
0
30
0
70
128
71
-778
72
779
73
788
0
VERTEX
8
TUMB
10
0
20
0
30
0
70
128
71
778
72
769
73
-779
0
VERTEX
8
TUMB
10
0
20
0
30
0
70
128
71
-780
72
750
73
749
0
VERTEX
8
TUMB
10
0
20
0
30
0
70
128
71
780
72
781
73
-750
0
VERTEX
8
TUMB
10
0
20
0
30
0
70
128
71
-781
72
751
73
750
0
VERTEX
8
TUMB
10
0
20
0
30
0
70
128
71
781
72
782
73
-751
0
VERTEX
8
TUMB
10
0
20
0
30
0
70
128
71
-782
72
752
73
751
0
VERTEX
8
TUMB
10
0
20
0
30
0
70
128
71
782
72
783
73
-752
0
VERTEX
8
TUMB
10
0
20
0
30
0
70
128
71
-783
72
753
73
752
0
VERTEX
8
TUMB
10
0
20
0
30
0
70
128
71
783
72
784
73
-753
0
VERTEX
8
TUMB
10
0
20
0
30
0
70
128
71
-784
72
754
73
753
0
VERTEX
8
TUMB
10
0
20
0
30
0
70
128
71
784
72
785
73
-754
0
VERTEX
8
TUMB
10
0
20
0
30
0
70
128
71
-785
72
755
73
754
0
VERTEX
8
TUMB
10
0
20
0
30
0
70
128
71
785
72
786
73
-755
0
VERTEX
8
TUMB
10
0
20
0
30
0
70
128
71
-786
72
756
73
755
0
VERTEX
8
TUMB
10
0
20
0
30
0
70
128
71
786
72
787
73
-756
0
VERTEX
8
TUMB
10
0
20
0
30
0
70
128
71
-787
72
757
73
756
0
VERTEX
8
TUMB
10
0
20
0
30
0
70
128
71
787
72
788
73
-757
0
VERTEX
8
TUMB
10
0
20
0
30
0
70
128
71
-788
72
748
73
757
0
VERTEX
8
TUMB
10
0
20
0
30
0
70
128
71
788
72
779
73
-748
0
SEQEND
8
TUMB
0
POLYLINE
8
DOOR
66
1
70
64
71
311
72
590
62
11
0
VERTEX
8
DOOR
10
-42.905853
20
-21.173214
30
11.477734
70
192
0
VERTEX
8
DOOR
10
-42.555855
20
-21.173214
30
11.477734
70
192
0
VERTEX
8
DOOR
10
-42.622696
20
-20.967489
30
11.477734
70
192
0
VERTEX
8
DOOR
10
-42.797699
20
-20.840343
30
11.477734
70
192
0
VERTEX
8
DOOR
10
-43.014008
20
-20.840343
30
11.477734
70
192
0
VERTEX
8
DOOR
10
-43.189011
20
-20.967489
30
11.477734
70
192
0
VERTEX
8
DOOR
10
-43.255852
20
-21.173214
30
11.477734
70
192
0
VERTEX
8
DOOR
10
-43.189011
20
-21.378939
30
11.477734
70
192
0
VERTEX
8
DOOR
10
-43.014008
20
-21.506084
30
11.477734
70
192
0
VERTEX
8
DOOR
10
-42.797699
20
-21.506084
30
11.477734
70
192
0
VERTEX
8
DOOR
10
-42.622696
20
-21.378939
30
11.477734
70
192
0
VERTEX
8
DOOR
10
-42.555855
20
-21.173214
30
15.260151
70
192
0
VERTEX
8
DOOR
10
-42.622696
20
-20.967489
30
15.260151
70
192
0
VERTEX
8
DOOR
10
-42.797699
20
-20.840343
30
15.260151
70
192
0
VERTEX
8
DOOR
10
-43.014008
20
-20.840343
30
15.260151
70
192
0
VERTEX
8
DOOR
10
-43.189011
20
-20.967489
30
15.260151
70
192
0
VERTEX
8
DOOR
10
-43.255852
20
-21.173214
30
15.260151
70
192
0
VERTEX
8
DOOR
10
-43.189011
20
-21.378939
30
15.260151
70
192
0
VERTEX
8
DOOR
10
-43.014008
20
-21.506084
30
15.260151
70
192
0
VERTEX
8
DOOR
10
-42.797699
20
-21.506084
30
15.260151
70
192
0
VERTEX
8
DOOR
10
-42.622696
20
-21.378939
30
15.260151
70
192
0
VERTEX
8
DOOR
10
-42.640701
20
-21.173214
30
15.331017
70
192
0
VERTEX
8
DOOR
10
-42.691341
20
-21.017363
30
15.331017
70
192
0
VERTEX
8
DOOR
10
-42.823917
20
-20.921040
30
15.331017
70
192
0
VERTEX
8
DOOR
10
-42.987789
20
-20.921040
30
15.331017
70
192
0
VERTEX
8
DOOR
10
-43.120365
20
-21.017363
30
15.331017
70
192
0
VERTEX
8
DOOR
10
-43.171005
20
-21.173214
30
15.331017
70
192
0
VERTEX
8
DOOR
10
-43.120365
20
-21.329065
30
15.331017
70
192
0
VERTEX
8
DOOR
10
-42.987789
20
-21.425388
30
15.331017
70
192
0
VERTEX
8
DOOR
10
-42.823917
20
-21.425388
30
15.331017
70
192
0
VERTEX
8
DOOR
10
-42.691341
20
-21.329065
30
15.331017
70
192
0
VERTEX
8
DOOR
10
-42.555855
20
-21.173214
30
15.401882
70
192
0
VERTEX
8
DOOR
10
-42.622696
20
-20.967489
30
15.401882
70
192
0
VERTEX
8
DOOR
10
-42.797699
20
-20.840343
30
15.401882
70
192
0
VERTEX
8
DOOR
10
-43.014008
20
-20.840343
30
15.401882
70
192
0
VERTEX
8
DOOR
10
-43.189011
20
-20.967489
30
15.401882
70
192
0
VERTEX
8
DOOR
10
-43.255852
20
-21.173214
30
15.401882
70
192
0
VERTEX
8
DOOR
10
-43.189011
20
-21.378939
30
15.401882
70
192
0
VERTEX
8
DOOR
10
-43.014008
20
-21.506084
30
15.401882
70
192
0
VERTEX
8
DOOR
10
-42.797699
20
-21.506084
30
15.401882
70
192
0
VERTEX
8
DOOR
10
-42.622696
20
-21.378939
30
15.401882
70
192
0
VERTEX
8
DOOR
10
-42.555855
20
-21.173214
30
19.184301
70
192
0
VERTEX
8
DOOR
10
-42.622696
20
-20.967489
30
19.184301
70
192
0
VERTEX
8
DOOR
10
-42.797699
20
-20.840343
30
19.184301
70
192
0
VERTEX
8
DOOR
10
-43.014008
20
-20.840343
30
19.184301
70
192
0
VERTEX
8
DOOR
10
-43.189011
20
-20.967489
30
19.184301
70
192
0
VERTEX
8
DOOR
10
-43.255852
20
-21.173214
30
19.184301
70
192
0
VERTEX
8
DOOR
10
-43.189011
20
-21.378939
30
19.184299
70
192
0
VERTEX
8
DOOR
10
-43.014008
20
-21.506084
30
19.184299
70
192
0
VERTEX
8
DOOR
10
-42.797699
20
-21.506084
30
19.184299
70
192
0
VERTEX
8
DOOR
10
-42.622696
20
-21.378939
30
19.184299
70
192
0
VERTEX
8
DOOR
10
-42.905853
20
-21.173214
30
19.184301
70
192
0
VERTEX
8
DOOR
10
-42.905853
20
-21.173214
30
28.257263
70
192
0
VERTEX
8
DOOR
10
-42.622696
20
-20.967489
30
28.257267
70
192
0
VERTEX
8
DOOR
10
-42.555855
20
-21.173214
30
28.257263
70
192
0
VERTEX
8
DOOR
10
-42.797699
20
-20.840345
30
28.257267
70
192
0
VERTEX
8
DOOR
10
-43.014008
20
-20.840345
30
28.257267
70
192
0
VERTEX
8
DOOR
10
-43.189011
20
-20.967489
30
28.257267
70
192
0
VERTEX
8
DOOR
10
-43.255852
20
-21.173214
30
28.257263
70
192
0
VERTEX
8
DOOR
10
-43.189011
20
-21.378939
30
28.257263
70
192
0
VERTEX
8
DOOR
10
-43.014008
20
-21.506084
30
28.257263
70
192
0
VERTEX
8
DOOR
10
-42.797699
20
-21.506084
30
28.257263
70
192
0
VERTEX
8
DOOR
10
-42.622696
20
-21.378939
30
28.257263
70
192
0
VERTEX
8
DOOR
10
-42.622696
20
-20.967489
30
32.039684
70
192
0
VERTEX
8
DOOR
10
-42.555855
20
-21.173214
30
32.039684
70
192
0
VERTEX
8
DOOR
10
-42.797699
20
-20.840345
30
32.039684
70
192
0
VERTEX
8
DOOR
10
-43.014008
20
-20.840345
30
32.039684
70
192
0
VERTEX
8
DOOR
10
-43.189011
20
-20.967489
30
32.039684
70
192
0
VERTEX
8
DOOR
10
-43.255852
20
-21.173214
30
32.039684
70
192
0
VERTEX
8
DOOR
10
-43.189011
20
-21.378941
30
32.039680
70
192
0
VERTEX
8
DOOR
10
-43.014008
20
-21.506084
30
32.039680
70
192
0
VERTEX
8
DOOR
10
-42.797699
20
-21.506084
30
32.039680
70
192
0
VERTEX
8
DOOR
10
-42.622696
20
-21.378939
30
32.039680
70
192
0
VERTEX
8
DOOR
10
-42.691341
20
-21.017363
30
32.110550
70
192
0
VERTEX
8
DOOR
10
-42.640701
20
-21.173214
30
32.110550
70
192
0
VERTEX
8
DOOR
10
-42.823917
20
-20.921041
30
32.110550
70
192
0
VERTEX
8
DOOR
10
-42.987789
20
-20.921041
30
32.110550
70
192
0
VERTEX
8
DOOR
10
-43.120365
20
-21.017363
30
32.110550
70
192
0
VERTEX
8
DOOR
10
-43.171005
20
-21.173214
30
32.110550
70
192
0
VERTEX
8
DOOR
10
-43.120365
20
-21.329067
30
32.110546
70
192
0
VERTEX
8
DOOR
10
-42.987789
20
-21.425388
30
32.110546
70
192
0
VERTEX
8
DOOR
10
-42.823917
20
-21.425388
30
32.110546
70
192
0
VERTEX
8
DOOR
10
-42.691341
20
-21.329067
30
32.110546
70
192
0
VERTEX
8
DOOR
10
-42.622696
20
-20.967489
30
32.181416
70
192
0
VERTEX
8
DOOR
10
-42.555855
20
-21.173214
30
32.181416
70
192
0
VERTEX
8
DOOR
10
-42.797699
20
-20.840345
30
32.181416
70
192
0
VERTEX
8
DOOR
10
-43.014008
20
-20.840345
30
32.181416
70
192
0
VERTEX
8
DOOR
10
-43.189011
20
-20.967489
30
32.181416
70
192
0
VERTEX
8
DOOR
10
-43.255852
20
-21.173214
30
32.181416
70
192
0
VERTEX
8
DOOR
10
-43.189011
20
-21.378939
30
32.181412
70
192
0
VERTEX
8
DOOR
10
-43.014008
20
-21.506084
30
32.181412
70
192
0
VERTEX
8
DOOR
10
-42.797699
20
-21.506084
30
32.181412
70
192
0
VERTEX
8
DOOR
10
-42.622696
20
-21.378939
30
32.181412
70
192
0
VERTEX
8
DOOR
10
-42.622696
20
-20.967489
30
35.963833
70
192
0
VERTEX
8
DOOR
10
-42.555855
20
-21.173214
30
35.963833
70
192
0
VERTEX
8
DOOR
10
-42.797699
20
-20.840345
30
35.963833
70
192
0
VERTEX
8
DOOR
10
-43.014008
20
-20.840345
30
35.963833
70
192
0
VERTEX
8
DOOR
10
-43.189011
20
-20.967489
30
35.963833
70
192
0
VERTEX
8
DOOR
10
-43.255852
20
-21.173214
30
35.963833
70
192
0
VERTEX
8
DOOR
10
-43.189011
20
-21.378939
30
35.963833
70
192
0
VERTEX
8
DOOR
10
-43.014008
20
-21.506084
30
35.963833
70
192
0
VERTEX
8
DOOR
10
-42.797699
20
-21.506084
30
35.963833
70
192
0
VERTEX
8
DOOR
10
-42.622696
20
-21.378939
30
35.963833
70
192
0
VERTEX
8
DOOR
10
-42.905853
20
-21.173214
30
35.963833
70
192
0
VERTEX
8
DOOR
10
-17.734941
20
-25.096340
30
23.720783
70
192
0
VERTEX
8
DOOR
10
-17.734941
20
-25.027260
30
24.112564
70
192
0
VERTEX
8
DOOR
10
-17.868938
20
-25.027260
30
24.088936
70
192
0
VERTEX
8
DOOR
10
-17.986773
20
-25.027260
30
24.020905
70
192
0
VERTEX
8
DOOR
10
-18.074234
20
-25.027260
30
23.916674
70
192
0
VERTEX
8
DOOR
10
-18.120770
20
-25.027260
30
23.788815
70
192
0
VERTEX
8
DOOR
10
-18.120770
20
-25.027260
30
23.652752
70
192
0
VERTEX
8
DOOR
10
-18.074234
20
-25.027260
30
23.524893
70
192
0
VERTEX
8
DOOR
10
-17.986773
20
-25.027260
30
23.420662
70
192
0
VERTEX
8
DOOR
10
-17.868938
20
-25.027260
30
23.352631
70
192
0
VERTEX
8
DOOR
10
-17.734941
20
-25.027260
30
23.329002
70
192
0
VERTEX
8
DOOR
10
-17.600945
20
-25.027260
30
23.352631
70
192
0
VERTEX
8
DOOR
10
-17.483110
20
-25.027260
30
23.420662
70
192
0
VERTEX
8
DOOR
10
-17.395649
20
-25.027260
30
23.524893
70
192
0
VERTEX
8
DOOR
10
-17.349113
20
-25.027260
30
23.652752
70
192
0
VERTEX
8
DOOR
10
-17.349113
20
-25.027260
30
23.788815
70
192
0
VERTEX
8
DOOR
10
-17.395649
20
-25.027260
30
23.916674
70
192
0
VERTEX
8
DOOR
10
-17.483110
20
-25.027260
30
24.020905
70
192
0
VERTEX
8
DOOR
10
-17.600945
20
-25.027260
30
24.088936
70
192
0
VERTEX
8
DOOR
10
-17.734941
20
-24.828348
30
24.457088
70
192
0
VERTEX
8
DOOR
10
-17.986773
20
-24.828348
30
24.412685
70
192
0
VERTEX
8
DOOR
10
-18.208231
20
-24.828348
30
24.284828
70
192
0
VERTEX
8
DOOR
10
-18.372602
20
-24.828348
30
24.088936
70
192
0
VERTEX
8
DOOR
10
-18.460062
20
-24.828348
30
23.848640
70
192
0
VERTEX
8
DOOR
10
-18.460062
20
-24.828348
30
23.592926
70
192
0
VERTEX
8
DOOR
10
-18.372602
20
-24.828348
30
23.352631
70
192
0
VERTEX
8
DOOR
10
-18.208231
20
-24.828348
30
23.156738
70
192
0
VERTEX
8
DOOR
10
-17.986773
20
-24.828348
30
23.028881
70
192
0
VERTEX
8
DOOR
10
-17.734941
20
-24.828348
30
22.984478
70
192
0
VERTEX
8
DOOR
10
-17.483110
20
-24.828348
30
23.028881
70
192
0
VERTEX
8
DOOR
10
-17.261652
20
-24.828348
30
23.156740
70
192
0
VERTEX
8
DOOR
10
-17.097281
20
-24.828348
30
23.352631
70
192
0
VERTEX
8
DOOR
10
-17.009821
20
-24.828348
30
23.592926
70
192
0
VERTEX
8
DOOR
10
-17.009821
20
-24.828348
30
23.848640
70
192
0
VERTEX
8
DOOR
10
-17.097281
20
-24.828348
30
24.088936
70
192
0
VERTEX
8
DOOR
10
-17.261652
20
-24.828348
30
24.284828
70
192
0
VERTEX
8
DOOR
10
-17.483110
20
-24.828348
30
24.412685
70
192
0
VERTEX
8
DOOR
10
-17.734941
20
-24.523596
30
24.712807
70
192
0
VERTEX
8
DOOR
10
-18.074234
20
-24.523596
30
24.652981
70
192
0
VERTEX
8
DOOR
10
-18.372602
20
-24.523596
30
24.480717
70
192
0
VERTEX
8
DOOR
10
-18.594059
20
-24.523596
30
24.216795
70
192
0
VERTEX
8
DOOR
10
-18.711893
20
-24.523596
30
23.893047
70
192
0
VERTEX
8
DOOR
10
-18.711893
20
-24.523596
30
23.548519
70
192
0
VERTEX
8
DOOR
10
-18.594059
20
-24.523596
30
23.224771
70
192
0
VERTEX
8
DOOR
10
-18.372602
20
-24.523596
30
22.960850
70
192
0
VERTEX
8
DOOR
10
-18.074234
20
-24.523596
30
22.788586
70
192
0
VERTEX
8
DOOR
10
-17.734941
20
-24.523596
30
22.728760
70
192
0
VERTEX
8
DOOR
10
-17.395649
20
-24.523596
30
22.788586
70
192
0
VERTEX
8
DOOR
10
-17.097281
20
-24.523596
30
22.960850
70
192
0
VERTEX
8
DOOR
10
-16.875824
20
-24.523596
30
23.224771
70
192
0
VERTEX
8
DOOR
10
-16.757990
20
-24.523596
30
23.548519
70
192
0
VERTEX
8
DOOR
10
-16.757990
20
-24.523596
30
23.893047
70
192
0
VERTEX
8
DOOR
10
-16.875824
20
-24.523596
30
24.216795
70
192
0
VERTEX
8
DOOR
10
-17.097282
20
-24.523596
30
24.480717
70
192
0
VERTEX
8
DOOR
10
-17.395649
20
-24.523596
30
24.652981
70
192
0
VERTEX
8
DOOR
10
-17.734941
20
-24.149763
30
24.848869
70
192
0
VERTEX
8
DOOR
10
-18.120770
20
-24.149763
30
24.780838
70
192
0
VERTEX
8
DOOR
10
-18.460062
20
-24.149763
30
24.584948
70
192
0
VERTEX
8
DOOR
10
-18.711893
20
-24.149763
30
24.284826
70
192
0
VERTEX
8
DOOR
10
-18.845890
20
-24.149763
30
23.916674
70
192
0
VERTEX
8
DOOR
10
-18.845890
20
-24.149763
30
23.524893
70
192
0
VERTEX
8
DOOR
10
-18.711893
20
-24.149763
30
23.156738
70
192
0
VERTEX
8
DOOR
10
-18.460062
20
-24.149763
30
22.856617
70
192
0
VERTEX
8
DOOR
10
-18.120770
20
-24.149763
30
22.660728
70
192
0
VERTEX
8
DOOR
10
-17.734941
20
-24.149763
30
22.592697
70
192
0
VERTEX
8
DOOR
10
-17.349113
20
-24.149763
30
22.660728
70
192
0
VERTEX
8
DOOR
10
-17.009821
20
-24.149763
30
22.856619
70
192
0
VERTEX
8
DOOR
10
-16.757990
20
-24.149763
30
23.156740
70
192
0
VERTEX
8
DOOR
10
-16.623993
20
-24.149763
30
23.524895
70
192
0
VERTEX
8
DOOR
10
-16.623993
20
-24.149763
30
23.916674
70
192
0
VERTEX
8
DOOR
10
-16.757990
20
-24.149763
30
24.284828
70
192
0
VERTEX
8
DOOR
10
-17.009821
20
-24.149763
30
24.584949
70
192
0
VERTEX
8
DOOR
10
-17.349113
20
-24.149763
30
24.780838
70
192
0
VERTEX
8
DOOR
10
-17.734941
20
-23.751940
30
24.848869
70
192
0
VERTEX
8
DOOR
10
-18.120770
20
-23.751940
30
24.780838
70
192
0
VERTEX
8
DOOR
10
-18.460062
20
-23.751940
30
24.584948
70
192
0
VERTEX
8
DOOR
10
-18.711893
20
-23.751940
30
24.284826
70
192
0
VERTEX
8
DOOR
10
-18.845890
20
-23.751940
30
23.916674
70
192
0
VERTEX
8
DOOR
10
-18.845890
20
-23.751940
30
23.524893
70
192
0
VERTEX
8
DOOR
10
-18.711893
20
-23.751940
30
23.156738
70
192
0
VERTEX
8
DOOR
10
-18.460062
20
-23.751940
30
22.856617
70
192
0
VERTEX
8
DOOR
10
-18.120770
20
-23.751940
30
22.660728
70
192
0
VERTEX
8
DOOR
10
-17.734941
20
-23.751940
30
22.592697
70
192
0
VERTEX
8
DOOR
10
-17.349113
20
-23.751940
30
22.660728
70
192
0
VERTEX
8
DOOR
10
-17.009821
20
-23.751940
30
22.856619
70
192
0
VERTEX
8
DOOR
10
-16.757990
20
-23.751940
30
23.156740
70
192
0
VERTEX
8
DOOR
10
-16.623993
20
-23.751940
30
23.524893
70
192
0
VERTEX
8
DOOR
10
-16.623993
20
-23.751940
30
23.916674
70
192
0
VERTEX
8
DOOR
10
-16.757990
20
-23.751940
30
24.284828
70
192
0
VERTEX
8
DOOR
10
-17.009821
20
-23.751940
30
24.584949
70
192
0
VERTEX
8
DOOR
10
-17.349113
20
-23.751940
30
24.780838
70
192
0
VERTEX
8
DOOR
10
-17.734941
20
-23.378107
30
24.712807
70
192
0
VERTEX
8
DOOR
10
-18.074234
20
-23.378107
30
24.652981
70
192
0
VERTEX
8
DOOR
10
-18.372602
20
-23.378107
30
24.480717
70
192
0
VERTEX
8
DOOR
10
-18.594059
20
-23.378107
30
24.216795
70
192
0
VERTEX
8
DOOR
10
-18.711893
20
-23.378107
30
23.893047
70
192
0
VERTEX
8
DOOR
10
-18.711893
20
-23.378107
30
23.548519
70
192
0
VERTEX
8
DOOR
10
-18.594059
20
-23.378107
30
23.224771
70
192
0
VERTEX
8
DOOR
10
-18.372601
20
-23.378107
30
22.960850
70
192
0
VERTEX
8
DOOR
10
-18.074234
20
-23.378107
30
22.788586
70
192
0
VERTEX
8
DOOR
10
-17.734941
20
-23.378107
30
22.728760
70
192
0
VERTEX
8
DOOR
10
-17.395649
20
-23.378107
30
22.788586
70
192
0
VERTEX
8
DOOR
10
-17.097281
20
-23.378107
30
22.960850
70
192
0
VERTEX
8
DOOR
10
-16.875824
20
-23.378107
30
23.224771
70
192
0
VERTEX
8
DOOR
10
-16.757990
20
-23.378107
30
23.548519
70
192
0
VERTEX
8
DOOR
10
-16.757990
20
-23.378107
30
23.893047
70
192
0
VERTEX
8
DOOR
10
-16.875824
20
-23.378107
30
24.216795
70
192
0
VERTEX
8
DOOR
10
-17.097282
20
-23.378107
30
24.480717
70
192
0
VERTEX
8
DOOR
10
-17.395651
20
-23.378107
30
24.652981
70
192
0
VERTEX
8
DOOR
10
-17.734941
20
-23.073355
30
24.344772
70
192
0
VERTEX
8
DOOR
10
-17.948359
20
-23.073355
30
24.307140
70
192
0
VERTEX
8
DOOR
10
-18.136034
20
-23.073355
30
24.198786
70
192
0
VERTEX
8
DOOR
10
-18.275331
20
-23.073355
30
24.032778
70
192
0
VERTEX
8
DOOR
10
-18.349451
20
-23.073355
30
23.829138
70
192
0
VERTEX
8
DOOR
10
-18.349451
20
-23.073355
30
23.612429
70
192
0
VERTEX
8
DOOR
10
-18.275331
20
-23.073355
30
23.408789
70
192
0
VERTEX
8
DOOR
10
-18.136034
20
-23.073355
30
23.242781
70
192
0
VERTEX
8
DOOR
10
-17.948359
20
-23.073355
30
23.134426
70
192
0
VERTEX
8
DOOR
10
-17.734941
20
-23.073355
30
23.096794
70
192
0
VERTEX
8
DOOR
10
-17.521524
20
-23.073355
30
23.134426
70
192
0
VERTEX
8
DOOR
10
-17.333849
20
-23.073355
30
23.242781
70
192
0
VERTEX
8
DOOR
10
-17.194551
20
-23.073355
30
23.408791
70
192
0
VERTEX
8
DOOR
10
-17.120432
20
-23.073355
30
23.612429
70
192
0
VERTEX
8
DOOR
10
-17.120432
20
-23.073355
30
23.829138
70
192
0
VERTEX
8
DOOR
10
-17.194551
20
-23.073355
30
24.032778
70
192
0
VERTEX
8
DOOR
10
-17.333849
20
-23.073355
30
24.198788
70
192
0
VERTEX
8
DOOR
10
-17.521524
20
-23.073355
30
24.307140
70
192
0
VERTEX
8
DOOR
10
-17.734941
20
-22.568544
30
24.344772
70
192
0
VERTEX
8
DOOR
10
-17.948359
20
-22.568544
30
24.307140
70
192
0
VERTEX
8
DOOR
10
-18.136034
20
-22.568544
30
24.198786
70
192
0
VERTEX
8
DOOR
10
-18.275331
20
-22.568544
30
24.032778
70
192
0
VERTEX
8
DOOR
10
-18.349451
20
-22.568544
30
23.829138
70
192
0
VERTEX
8
DOOR
10
-18.349451
20
-22.568544
30
23.612429
70
192
0
VERTEX
8
DOOR
10
-18.275331
20
-22.568544
30
23.408789
70
192
0
VERTEX
8
DOOR
10
-18.136034
20
-22.568544
30
23.242781
70
192
0
VERTEX
8
DOOR
10
-17.948359
20
-22.568544
30
23.134426
70
192
0
VERTEX
8
DOOR
10
-17.734941
20
-22.568544
30
23.096794
70
192
0
VERTEX
8
DOOR
10
-17.521524
20
-22.568544
30
23.134426
70
192
0
VERTEX
8
DOOR
10
-17.333849
20
-22.568544
30
23.242781
70
192
0
VERTEX
8
DOOR
10
-17.194551
20
-22.568544
30
23.408791
70
192
0
VERTEX
8
DOOR
10
-17.120432
20
-22.568544
30
23.612429
70
192
0
VERTEX
8
DOOR
10
-17.120432
20
-22.568544
30
23.829138
70
192
0
VERTEX
8
DOOR
10
-17.194551
20
-22.568544
30
24.032778
70
192
0
VERTEX
8
DOOR
10
-17.333849
20
-22.568544
30
24.198788
70
192
0
VERTEX
8
DOOR
10
-17.521524
20
-22.568544
30
24.307140
70
192
0
VERTEX
8
DOOR
10
-17.734941
20
-22.568544
30
25.015453
70
192
0
VERTEX
8
DOOR
10
-18.177746
20
-22.568544
30
24.937374
70
192
0
VERTEX
8
DOOR
10
-18.567141
20
-22.568544
30
24.712559
70
192
0
VERTEX
8
DOOR
10
-18.856161
20
-22.568544
30
24.368118
70
192
0
VERTEX
8
DOOR
10
-19.009945
20
-22.568544
30
23.945599
70
192
0
VERTEX
8
DOOR
10
-19.009945
20
-22.568544
30
23.495964
70
192
0
VERTEX
8
DOOR
10
-18.856161
20
-22.568544
30
23.073446
70
192
0
VERTEX
8
DOOR
10
-18.567141
20
-22.568544
30
22.729006
70
192
0
VERTEX
8
DOOR
10
-18.177746
20
-22.568544
30
22.504189
70
192
0
VERTEX
8
DOOR
10
-17.734941
20
-22.568544
30
22.426109
70
192
0
VERTEX
8
DOOR
10
-17.292137
20
-22.568544
30
22.504189
70
192
0
VERTEX
8
DOOR
10
-16.902742
20
-22.568544
30
22.729008
70
192
0
VERTEX
8
DOOR
10
-16.613722
20
-22.568544
30
23.073446
70
192
0
VERTEX
8
DOOR
10
-16.459938
20
-22.568544
30
23.495964
70
192
0
VERTEX
8
DOOR
10
-16.459938
20
-22.568544
30
23.945599
70
192
0
VERTEX
8
DOOR
10
-16.613722
20
-22.568544
30
24.368118
70
192
0
VERTEX
8
DOOR
10
-16.902742
20
-22.568544
30
24.712559
70
192
0
VERTEX
8
DOOR
10
-17.292137
20
-22.568544
30
24.937376
70
192
0
VERTEX
8
DOOR
10
-17.734941
20
-22.490622
30
25.041348
70
192
0
VERTEX
8
DOOR
10
-18.186602
20
-22.490623
30
24.961708
70
192
0
VERTEX
8
DOOR
10
-18.583784
20
-22.490623
30
24.732393
70
192
0
VERTEX
8
DOOR
10
-18.878586
20
-22.490623
30
24.381065
70
192
0
VERTEX
8
DOOR
10
-19.035444
20
-22.490623
30
23.950096
70
192
0
VERTEX
8
DOOR
10
-19.035444
20
-22.490623
30
23.491468
70
192
0
VERTEX
8
DOOR
10
-18.878584
20
-22.490623
30
23.060499
70
192
0
VERTEX
8
DOOR
10
-18.583784
20
-22.490623
30
22.709171
70
192
0
VERTEX
8
DOOR
10
-18.186602
20
-22.490623
30
22.479856
70
192
0
VERTEX
8
DOOR
10
-17.734941
20
-22.490623
30
22.400217
70
192
0
VERTEX
8
DOOR
10
-17.283281
20
-22.490623
30
22.479858
70
192
0
VERTEX
8
DOOR
10
-16.886099
20
-22.490623
30
22.709171
70
192
0
VERTEX
8
DOOR
10
-16.591297
20
-22.490623
30
23.060501
70
192
0
VERTEX
8
DOOR
10
-16.434439
20
-22.490623
30
23.491470
70
192
0
VERTEX
8
DOOR
10
-16.434439
20
-22.490623
30
23.950096
70
192
0
VERTEX
8
DOOR
10
-16.591299
20
-22.490623
30
24.381065
70
192
0
VERTEX
8
DOOR
10
-16.886099
20
-22.490623
30
24.732393
70
192
0
VERTEX
8
DOOR
10
-17.283281
20
-22.490623
30
24.961708
70
192
0
VERTEX
8
DOOR
10
-17.734941
20
-22.173956
30
25.041348
70
192
0
VERTEX
8
DOOR
10
-18.186602
20
-22.173956
30
24.961708
70
192
0
VERTEX
8
DOOR
10
-18.583784
20
-22.173956
30
24.732393
70
192
0
VERTEX
8
DOOR
10
-18.878586
20
-22.173956
30
24.381065
70
192
0
VERTEX
8
DOOR
10
-19.035444
20
-22.173956
30
23.950096
70
192
0
VERTEX
8
DOOR
10
-19.035444
20
-22.173956
30
23.491468
70
192
0
VERTEX
8
DOOR
10
-18.878584
20
-22.173956
30
23.060501
70
192
0
VERTEX
8
DOOR
10
-18.583784
20
-22.173956
30
22.709171
70
192
0
VERTEX
8
DOOR
10
-18.186602
20
-22.173956
30
22.479858
70
192
0
VERTEX
8
DOOR
10
-17.734941
20
-22.173956
30
22.400217
70
192
0
VERTEX
8
DOOR
10
-17.283281
20
-22.173956
30
22.479858
70
192
0
VERTEX
8
DOOR
10
-16.886099
20
-22.173956
30
22.709171
70
192
0
VERTEX
8
DOOR
10
-16.591297
20
-22.173956
30
23.060501
70
192
0
VERTEX
8
DOOR
10
-16.434439
20
-22.173956
30
23.491470
70
192
0
VERTEX
8
DOOR
10
-16.434439
20
-22.173956
30
23.950096
70
192
0
VERTEX
8
DOOR
10
-16.591299
20
-22.173956
30
24.381065
70
192
0
VERTEX
8
DOOR
10
-16.886099
20
-22.173956
30
24.732393
70
192
0
VERTEX
8
DOOR
10
-17.283281
20
-22.173956
30
24.961708
70
192
0
VERTEX
8
DOOR
10
-13.495029
20
-20.840343
30
7.000000
70
192
0
VERTEX
8
DOOR
10
-42.555870
20
-20.840347
30
7.000000
70
192
0
VERTEX
8
DOOR
10
-42.555855
20
-20.840343
30
39.852016
70
192
0
VERTEX
8
DOOR
10
-13.494991
20
-20.840343
30
39.852005
70
192
0
VERTEX
8
DOOR
10
-13.495029
20
-22.173956
30
7.000000
70
192
0
VERTEX
8
DOOR
10
-42.555870
20
-22.173960
30
7.000000
70
192
0
VERTEX
8
DOOR
10
-42.555855
20
-22.173956
30
39.852016
70
192
0
VERTEX
8
DOOR
10
-13.494991
20
-22.173956
30
39.852005
70
192
0
VERTEX
8
DOOR
10
0
20
0
30
0
70
128
71
-1
72
3
73
-2
0
VERTEX
8
DOOR
10
0
20
0
30
0
70
128
71
-1
72
4
73
-3
0
VERTEX
8
DOOR
10
0
20
0
30
0
70
128
71
-1
72
5
73
-4
0
VERTEX
8
DOOR
10
0
20
0
30
0
70
128
71
-1
72
6
73
-5
0
VERTEX
8
DOOR
10
0
20
0
30
0
70
128
71
-1
72
7
73
-6
0
VERTEX
8
DOOR
10
0
20
0
30
0
70
128
71
-1
72
8
73
-7
0
VERTEX
8
DOOR
10
0
20
0
30
0
70
128
71
-1
72
9
73
-8
0
VERTEX
8
DOOR
10
0
20
0
30
0
70
128
71
-1
72
10
73
-9
0
VERTEX
8
DOOR
10
0
20
0
30
0
70
128
71
-1
72
11
73
-10
0
VERTEX
8
DOOR
10
0
20
0
30
0
70
128
71
-1
72
2
73
-11
0
VERTEX
8
DOOR
10
0
20
0
30
0
70
128
71
-2
72
13
73
12
0
VERTEX
8
DOOR
10
0
20
0
30
0
70
128
71
2
72
3
73
-13
0
VERTEX
8
DOOR
10
0
20
0
30
0
70
128
71
-3
72
14
73
13
0
VERTEX
8
DOOR
10
0
20
0
30
0
70
128
71
3
72
4
73
-14
0
VERTEX
8
DOOR
10
0
20
0
30
0
70
128
71
-4
72
15
73
14
0
VERTEX
8
DOOR
10
0
20
0
30
0
70
128
71
4
72
5
73
-15
0
VERTEX
8
DOOR
10
0
20
0
30
0
70
128
71
-5
72
16
73
15
0
VERTEX
8
DOOR
10
0
20
0
30
0
70
128
71
5
72
6
73
-16
0
VERTEX
8
DOOR
10
0
20
0
30
0
70
128
71
-6
72
17
73
16
0
VERTEX
8
DOOR
10
0
20
0
30
0
70
128
71
6
72
7
73
-17
0
VERTEX
8
DOOR
10
0
20
0
30
0
70
128
71
-7
72
18
73
17
0
VERTEX
8
DOOR
10
0
20
0
30
0
70
128
71
7
72
8
73
-18
0
VERTEX
8
DOOR
10
0
20
0
30
0
70
128
71
-8
72
19
73
18
0
VERTEX
8
DOOR
10
0
20
0
30
0
70
128
71
8
72
9
73
-19
0
VERTEX
8
DOOR
10
0
20
0
30
0
70
128
71
-9
72
20
73
19
0
VERTEX
8
DOOR
10
0
20
0
30
0
70
128
71
9
72
10
73
-20
0
VERTEX
8
DOOR
10
0
20
0
30
0
70
128
71
-10
72
21
73
20
0
VERTEX
8
DOOR
10
0
20
0
30
0
70
128
71
10
72
11
73
-21
0
VERTEX
8
DOOR
10
0
20
0
30
0
70
128
71
-11
72
12
73
21
0
VERTEX
8
DOOR
10
0
20
0
30
0
70
128
71
11
72
2
73
-12
0
VERTEX
8
DOOR
10
0
20
0
30
0
70
128
71
-12
72
23
73
22
0
VERTEX
8
DOOR
10
0
20
0
30
0
70
128
71
12
72
13
73
-23
0
VERTEX
8
DOOR
10
0
20
0
30
0
70
128
71
-13
72
24
73
23
0
VERTEX
8
DOOR
10
0
20
0
30
0
70
128
71
13
72
14
73
-24
0
VERTEX
8
DOOR
10
0
20
0
30
0
70
128
71
-14
72
25
73
24
0
VERTEX
8
DOOR
10
0
20
0
30
0
70
128
71
14
72
15
73
-25
0
VERTEX
8
DOOR
10
0
20
0
30
0
70
128
71
-15
72
26
73
25
0
VERTEX
8
DOOR
10
0
20
0
30
0
70
128
71
15
72
16
73
-26
0
VERTEX
8
DOOR
10
0
20
0
30
0
70
128
71
-16
72
27
73
26
0
VERTEX
8
DOOR
10
0
20
0
30
0
70
128
71
16
72
17
73
-27
0
VERTEX
8
DOOR
10
0
20
0
30
0
70
128
71
-17
72
28
73
27
0
VERTEX
8
DOOR
10
0
20
0
30
0
70
128
71
17
72
18
73
-28
0
VERTEX
8
DOOR
10
0
20
0
30
0
70
128
71
-18
72
29
73
28
0
VERTEX
8
DOOR
10
0
20
0
30
0
70
128
71
18
72
19
73
-29
0
VERTEX
8
DOOR
10
0
20
0
30
0
70
128
71
-19
72
30
73
29
0
VERTEX
8
DOOR
10
0
20
0
30
0
70
128
71
19
72
20
73
-30
0
VERTEX
8
DOOR
10
0
20
0
30
0
70
128
71
-20
72
31
73
30
0
VERTEX
8
DOOR
10
0
20
0
30
0
70
128
71
20
72
21
73
-31
0
VERTEX
8
DOOR
10
0
20
0
30
0
70
128
71
-21
72
22
73
31
0
VERTEX
8
DOOR
10
0
20
0
30
0
70
128
71
21
72
12
73
-22
0
VERTEX
8
DOOR
10
0
20
0
30
0
70
128
71
-22
72
33
73
32
0
VERTEX
8
DOOR
10
0
20
0
30
0
70
128
71
22
72
23
73
-33
0
VERTEX
8
DOOR
10
0
20
0
30
0
70
128
71
-23
72
34
73
33
0
VERTEX
8
DOOR
10
0
20
0
30
0
70
128
71
23
72
24
73
-34
0
VERTEX
8
DOOR
10
0
20
0
30
0
70
128
71
-24
72
35
73
34
0
VERTEX
8
DOOR
10
0
20
0
30
0
70
128
71
24
72
25
73
-35
0
VERTEX
8
DOOR
10
0
20
0
30
0
70
128
71
-25
72
36
73
35
0
VERTEX
8
DOOR
10
0
20
0
30
0
70
128
71
25
72
26
73
-36
0
VERTEX
8
DOOR
10
0
20
0
30
0
70
128
71
-26
72
37
73
36
0
VERTEX
8
DOOR
10
0
20
0
30
0
70
128
71
26
72
27
73
-37
0
VERTEX
8
DOOR
10
0
20
0
30
0
70
128
71
-27
72
38
73
37
0
VERTEX
8
DOOR
10
0
20
0
30
0
70
128
71
27
72
28
73
-38
0
VERTEX
8
DOOR
10
0
20
0
30
0
70
128
71
-28
72
39
73
38
0
VERTEX
8
DOOR
10
0
20
0
30
0
70
128
71
28
72
29
73
-39
0
VERTEX
8
DOOR
10
0
20
0
30
0
70
128
71
-29
72
40
73
39
0
VERTEX
8
DOOR
10
0
20
0
30
0
70
128
71
29
72
30
73
-40
0
VERTEX
8
DOOR
10
0
20
0
30
0
70
128
71
-30
72
41
73
40
0
VERTEX
8
DOOR
10
0
20
0
30
0
70
128
71
30
72
31
73
-41
0
VERTEX
8
DOOR
10
0
20
0
30
0
70
128
71
-31
72
32
73
41
0
VERTEX
8
DOOR
10
0
20
0
30
0
70
128
71
31
72
22
73
-32
0
VERTEX
8
DOOR
10
0
20
0
30
0
70
128
71
-32
72
43
73
42
0
VERTEX
8
DOOR
10
0
20
0
30
0
70
128
71
32
72
33
73
-43
0
VERTEX
8
DOOR
10
0
20
0
30
0
70
128
71
-33
72
44
73
43
0
VERTEX
8
DOOR
10
0
20
0
30
0
70
128
71
33
72
34
73
-44
0
VERTEX
8
DOOR
10
0
20
0
30
0
70
128
71
-34
72
45
73
44
0
VERTEX
8
DOOR
10
0
20
0
30
0
70
128
71
34
72
35
73
-45
0
VERTEX
8
DOOR
10
0
20
0
30
0
70
128
71
-35
72
46
73
45
0
VERTEX
8
DOOR
10
0
20
0
30
0
70
128
71
35
72
36
73
-46
0
VERTEX
8
DOOR
10
0
20
0
30
0
70
128
71
-36
72
47
73
46
0
VERTEX
8
DOOR
10
0
20
0
30
0
70
128
71
36
72
37
73
-47
0
VERTEX
8
DOOR
10
0
20
0
30
0
70
128
71
-37
72
48
73
47
0
VERTEX
8
DOOR
10
0
20
0
30
0
70
128
71
37
72
38
73
-48
0
VERTEX
8
DOOR
10
0
20
0
30
0
70
128
71
-38
72
49
73
48
0
VERTEX
8
DOOR
10
0
20
0
30
0
70
128
71
38
72
39
73
-49
0
VERTEX
8
DOOR
10
0
20
0
30
0
70
128
71
-39
72
50
73
49
0
VERTEX
8
DOOR
10
0
20
0
30
0
70
128
71
39
72
40
73
-50
0
VERTEX
8
DOOR
10
0
20
0
30
0
70
128
71
-40
72
51
73
50
0
VERTEX
8
DOOR
10
0
20
0
30
0
70
128
71
40
72
41
73
-51
0
VERTEX
8
DOOR
10
0
20
0
30
0
70
128
71
-41
72
42
73
51
0
VERTEX
8
DOOR
10
0
20
0
30
0
70
128
71
41
72
32
73
-42
0
VERTEX
8
DOOR
10
0
20
0
30
0
70
128
71
-52
72
42
73
-43
0
VERTEX
8
DOOR
10
0
20
0
30
0
70
128
71
-52
72
43
73
-44
0
VERTEX
8
DOOR
10
0
20
0
30
0
70
128
71
-52
72
44
73
-45
0
VERTEX
8
DOOR
10
0
20
0
30
0
70
128
71
-52
72
45
73
-46
0
VERTEX
8
DOOR
10
0
20
0
30
0
70
128
71
-52
72
46
73
-47
0
VERTEX
8
DOOR
10
0
20
0
30
0
70
128
71
-52
72
47
73
-48
0
VERTEX
8
DOOR
10
0
20
0
30
0
70
128
71
-52
72
48
73
-49
0
VERTEX
8
DOOR
10
0
20
0
30
0
70
128
71
-52
72
49
73
-50
0
VERTEX
8
DOOR
10
0
20
0
30
0
70
128
71
-52
72
50
73
-51
0
VERTEX
8
DOOR
10
0
20
0
30
0
70
128
71
-52
72
51
73
-42
0
VERTEX
8
DOOR
10
0
20
0
30
0
70
128
71
-53
72
54
73
-55
0
VERTEX
8
DOOR
10
0
20
0
30
0
70
128
71
-53
72
56
73
-54
0
VERTEX
8
DOOR
10
0
20
0
30
0
70
128
71
-53
72
57
73
-56
0
VERTEX
8
DOOR
10
0
20
0
30
0
70
128
71
-53
72
58
73
-57
0
VERTEX
8
DOOR
10
0
20
0
30
0
70
128
71
-53
72
59
73
-58
0
VERTEX
8
DOOR
10
0
20
0
30
0
70
128
71
-53
72
60
73
-59
0
VERTEX
8
DOOR
10
0
20
0
30
0
70
128
71
-53
72
61
73
-60
0
VERTEX
8
DOOR
10
0
20
0
30
0
70
128
71
-53
72
62
73
-61
0
VERTEX
8
DOOR
10
0
20
0
30
0
70
128
71
-53
72
63
73
-62
0
VERTEX
8
DOOR
10
0
20
0
30
0
70
128
71
-53
72
55
73
-63
0
VERTEX
8
DOOR
10
0
20
0
30
0
70
128
71
-55
72
64
73
65
0
VERTEX
8
DOOR
10
0
20
0
30
0
70
128
71
55
72
54
73
-64
0
VERTEX
8
DOOR
10
0
20
0
30
0
70
128
71
-54
72
66
73
64
0
VERTEX
8
DOOR
10
0
20
0
30
0
70
128
71
54
72
56
73
-66
0
VERTEX
8
DOOR
10
0
20
0
30
0
70
128
71
-56
72
67
73
66
0
VERTEX
8
DOOR
10
0
20
0
30
0
70
128
71
56
72
57
73
-67
0
VERTEX
8
DOOR
10
0
20
0
30
0
70
128
71
-57
72
68
73
67
0
VERTEX
8
DOOR
10
0
20
0
30
0
70
128
71
57
72
58
73
-68
0
VERTEX
8
DOOR
10
0
20
0
30
0
70
128
71
-58
72
69
73
68
0
VERTEX
8
DOOR
10
0
20
0
30
0
70
128
71
58
72
59
73
-69
0
VERTEX
8
DOOR
10
0
20
0
30
0
70
128
71
-59
72
70
73
69
0
VERTEX
8
DOOR
10
0
20
0
30
0
70
128
71
59
72
60
73
-70
0
VERTEX
8
DOOR
10
0
20
0
30
0
70
128
71
-60
72
71
73
70
0
VERTEX
8
DOOR
10
0
20
0
30
0
70
128
71
60
72
61
73
-71
0
VERTEX
8
DOOR
10
0
20
0
30
0
70
128
71
-61
72
72
73
71
0
VERTEX
8
DOOR
10
0
20
0
30
0
70
128
71
61
72
62
73
-72
0
VERTEX
8
DOOR
10
0
20
0
30
0
70
128
71
-62
72
73
73
72
0
VERTEX
8
DOOR
10
0
20
0
30
0
70
128
71
62
72
63
73
-73
0
VERTEX
8
DOOR
10
0
20
0
30
0
70
128
71
-63
72
65
73
73
0
VERTEX
8
DOOR
10
0
20
0
30
0
70
128
71
63
72
55
73
-65
0
VERTEX
8
DOOR
10
0
20
0
30
0
70
128
71
-65
72
74
73
75
0
VERTEX
8
DOOR
10
0
20
0
30
0
70
128
71
65
72
64
73
-74
0
VERTEX
8
DOOR
10
0
20
0
30
0
70
128
71
-64
72
76
73
74
0
VERTEX
8
DOOR
10
0
20
0
30
0
70
128
71
64
72
66
73
-76
0
VERTEX
8
DOOR
10
0
20
0
30
0
70
128
71
-66
72
77
73
76
0
VERTEX
8
DOOR
10
0
20
0
30
0
70
128
71
66
72
67
73
-77
0
VERTEX
8
DOOR
10
0
20
0
30
0
70
128
71
-67
72
78
73
77
0
VERTEX
8
DOOR
10
0
20
0
30
0
70
128
71
67
72
68
73
-78
0
VERTEX
8
DOOR
10
0
20
0
30
0
70
128
71
-68
72
79
73
78
0
VERTEX
8
DOOR
10
0
20
0
30
0
70
128
71
68
72
69
73
-79
0
VERTEX
8
DOOR
10
0
20
0
30
0
70
128
71
-69
72
80
73
79
0
VERTEX
8
DOOR
10
0
20
0
30
0
70
128
71
69
72
70
73
-80
0
VERTEX
8
DOOR
10
0
20
0
30
0
70
128
71
-70
72
81
73
80
0
VERTEX
8
DOOR
10
0
20
0
30
0
70
128
71
70
72
71
73
-81
0
VERTEX
8
DOOR
10
0
20
0
30
0
70
128
71
-71
72
82
73
81
0
VERTEX
8
DOOR
10
0
20
0
30
0
70
128
71
71
72
72
73
-82
0
VERTEX
8
DOOR
10
0
20
0
30
0
70
128
71
-72
72
83
73
82
0
VERTEX
8
DOOR
10
0
20
0
30
0
70
128
71
72
72
73
73
-83
0
VERTEX
8
DOOR
10
0
20
0
30
0
70
128
71
-73
72
75
73
83
0
VERTEX
8
DOOR
10
0
20
0
30
0
70
128
71
73
72
65
73
-75
0
VERTEX
8
DOOR
10
0
20
0
30
0
70
128
71
-75
72
84
73
85
0
VERTEX
8
DOOR
10
0
20
0
30
0
70
128
71
75
72
74
73
-84
0
VERTEX
8
DOOR
10
0
20
0
30
0
70
128
71
-74
72
86
73
84
0
VERTEX
8
DOOR
10
0
20
0
30
0
70
128
71
74
72
76
73
-86
0
VERTEX
8
DOOR
10
0
20
0
30
0
70
128
71
-76
72
87
73
86
0
VERTEX
8
DOOR
10
0
20
0
30
0
70
128
71
76
72
77
73
-87
0
VERTEX
8
DOOR
10
0
20
0
30
0
70
128
71
-77
72
88
73
87
0
VERTEX
8
DOOR
10
0
20
0
30
0
70
128
71
77
72
78
73
-88
0
VERTEX
8
DOOR
10
0
20
0
30
0
70
128
71
-78
72
89
73
88
0
VERTEX
8
DOOR
10
0
20
0
30
0
70
128
71
78
72
79
73
-89
0
VERTEX
8
DOOR
10
0
20
0
30
0
70
128
71
-79
72
90
73
89
0
VERTEX
8
DOOR
10
0
20
0
30
0
70
128
71
79
72
80
73
-90
0
VERTEX
8
DOOR
10
0
20
0
30
0
70
128
71
-80
72
91
73
90
0
VERTEX
8
DOOR
10
0
20
0
30
0
70
128
71
80
72
81
73
-91
0
VERTEX
8
DOOR
10
0
20
0
30
0
70
128
71
-81
72
92
73
91
0
VERTEX
8
DOOR
10
0
20
0
30
0
70
128
71
81
72
82
73
-92
0
VERTEX
8
DOOR
10
0
20
0
30
0
70
128
71
-82
72
93
73
92
0
VERTEX
8
DOOR
10
0
20
0
30
0
70
128
71
82
72
83
73
-93
0
VERTEX
8
DOOR
10
0
20
0
30
0
70
128
71
-83
72
85
73
93
0
VERTEX
8
DOOR
10
0
20
0
30
0
70
128
71
83
72
75
73
-85
0
VERTEX
8
DOOR
10
0
20
0
30
0
70
128
71
-85
72
94
73
95
0
VERTEX
8
DOOR
10
0
20
0
30
0
70
128
71
85
72
84
73
-94
0
VERTEX
8
DOOR
10
0
20
0
30
0
70
128
71
-84
72
96
73
94
0
VERTEX
8
DOOR
10
0
20
0
30
0
70
128
71
84
72
86
73
-96
0
VERTEX
8
DOOR
10
0
20
0
30
0
70
128
71
-86
72
97
73
96
0
VERTEX
8
DOOR
10
0
20
0
30
0
70
128
71
86
72
87
73
-97
0
VERTEX
8
DOOR
10
0
20
0
30
0
70
128
71
-87
72
98
73
97
0
VERTEX
8
DOOR
10
0
20
0
30
0
70
128
71
87
72
88
73
-98
0
VERTEX
8
DOOR
10
0
20
0
30
0
70
128
71
-88
72
99
73
98
0
VERTEX
8
DOOR
10
0
20
0
30
0
70
128
71
88
72
89
73
-99
0
VERTEX
8
DOOR
10
0
20
0
30
0
70
128
71
-89
72
100
73
99
0
VERTEX
8
DOOR
10
0
20
0
30
0
70
128
71
89
72
90
73
-100
0
VERTEX
8
DOOR
10
0
20
0
30
0
70
128
71
-90
72
101
73
100
0
VERTEX
8
DOOR
10
0
20
0
30
0
70
128
71
90
72
91
73
-101
0
VERTEX
8
DOOR
10
0
20
0
30
0
70
128
71
-91
72
102
73
101
0
VERTEX
8
DOOR
10
0
20
0
30
0
70
128
71
91
72
92
73
-102
0
VERTEX
8
DOOR
10
0
20
0
30
0
70
128
71
-92
72
103
73
102
0
VERTEX
8
DOOR
10
0
20
0
30
0
70
128
71
92
72
93
73
-103
0
VERTEX
8
DOOR
10
0
20
0
30
0
70
128
71
-93
72
95
73
103
0
VERTEX
8
DOOR
10
0
20
0
30
0
70
128
71
93
72
85
73
-95
0
VERTEX
8
DOOR
10
0
20
0
30
0
70
128
71
-104
72
95
73
-94
0
VERTEX
8
DOOR
10
0
20
0
30
0
70
128
71
-104
72
94
73
-96
0
VERTEX
8
DOOR
10
0
20
0
30
0
70
128
71
-104
72
96
73
-97
0
VERTEX
8
DOOR
10
0
20
0
30
0
70
128
71
-104
72
97
73
-98
0
VERTEX
8
DOOR
10
0
20
0
30
0
70
128
71
-104
72
98
73
-99
0
VERTEX
8
DOOR
10
0
20
0
30
0
70
128
71
-104
72
99
73
-100
0
VERTEX
8
DOOR
10
0
20
0
30
0
70
128
71
-104
72
100
73
-101
0
VERTEX
8
DOOR
10
0
20
0
30
0
70
128
71
-104
72
101
73
-102
0
VERTEX
8
DOOR
10
0
20
0
30
0
70
128
71
-104
72
102
73
-103
0
VERTEX
8
DOOR
10
0
20
0
30
0
70
128
71
-104
72
103
73
-95
0
VERTEX
8
DOOR
10
0
20
0
30
0
70
128
71
105
72
106
73
107
0
VERTEX
8
DOOR
10
0
20
0
30
0
70
128
71
105
72
107
73
108
0
VERTEX
8
DOOR
10
0
20
0
30
0
70
128
71
105
72
108
73
109
0
VERTEX
8
DOOR
10
0
20
0
30
0
70
128
71
105
72
109
73
110
0
VERTEX
8
DOOR
10
0
20
0
30
0
70
128
71
105
72
110
73
111
0
VERTEX
8
DOOR
10
0
20
0
30
0
70
128
71
105
72
111
73
112
0
VERTEX
8
DOOR
10
0
20
0
30
0
70
128
71
105
72
112
73
113
0
VERTEX
8
DOOR
10
0
20
0
30
0
70
128
71
105
72
113
73
114
0
VERTEX
8
DOOR
10
0
20
0
30
0
70
128
71
105
72
114
73
115
0
VERTEX
8
DOOR
10
0
20
0
30
0
70
128
71
105
72
115
73
116
0
VERTEX
8
DOOR
10
0
20
0
30
0
70
128
71
105
72
116
73
117
0
VERTEX
8
DOOR
10
0
20
0
30
0
70
128
71
105
72
117
73
118
0
VERTEX
8
DOOR
10
0
20
0
30
0
70
128
71
105
72
118
73
119
0
VERTEX
8
DOOR
10
0
20
0
30
0
70
128
71
105
72
119
73
120
0
VERTEX
8
DOOR
10
0
20
0
30
0
70
128
71
105
72
120
73
121
0
VERTEX
8
DOOR
10
0
20
0
30
0
70
128
71
105
72
121
73
122
0
VERTEX
8
DOOR
10
0
20
0
30
0
70
128
71
105
72
122
73
123
0
VERTEX
8
DOOR
10
0
20
0
30
0
70
128
71
105
72
123
73
106
0
VERTEX
8
DOOR
10
0
20
0
30
0
70
128
71
106
72
124
73
-125
0
VERTEX
8
DOOR
10
0
20
0
30
0
70
128
71
-106
72
125
73
107
0
VERTEX
8
DOOR
10
0
20
0
30
0
70
128
71
107
72
125
73
-126
0
VERTEX
8
DOOR
10
0
20
0
30
0
70
128
71
-107
72
126
73
108
0
VERTEX
8
DOOR
10
0
20
0
30
0
70
128
71
108
72
126
73
-127
0
VERTEX
8
DOOR
10
0
20
0
30
0
70
128
71
-108
72
127
73
109
0
VERTEX
8
DOOR
10
0
20
0
30
0
70
128
71
109
72
127
73
-128
0
VERTEX
8
DOOR
10
0
20
0
30
0
70
128
71
-109
72
128
73
110
0
VERTEX
8
DOOR
10
0
20
0
30
0
70
128
71
110
72
128
73
-129
0
VERTEX
8
DOOR
10
0
20
0
30
0
70
128
71
-110
72
129
73
111
0
VERTEX
8
DOOR
10
0
20
0
30
0
70
128
71
111
72
129
73
-130
0
VERTEX
8
DOOR
10
0
20
0
30
0
70
128
71
-111
72
130
73
112
0
VERTEX
8
DOOR
10
0
20
0
30
0
70
128
71
112
72
130
73
-131
0
VERTEX
8
DOOR
10
0
20
0
30
0
70
128
71
-112
72
131
73
113
0
VERTEX
8
DOOR
10
0
20
0
30
0
70
128
71
113
72
131
73
-132
0
VERTEX
8
DOOR
10
0
20
0
30
0
70
128
71
-113
72
132
73
114
0
VERTEX
8
DOOR
10
0
20
0
30
0
70
128
71
114
72
132
73
-133
0
VERTEX
8
DOOR
10
0
20
0
30
0
70
128
71
-114
72
133
73
115
0
VERTEX
8
DOOR
10
0
20
0
30
0
70
128
71
115
72
133
73
-134
0
VERTEX
8
DOOR
10
0
20
0
30
0
70
128
71
-115
72
134
73
116
0
VERTEX
8
DOOR
10
0
20
0
30
0
70
128
71
116
72
134
73
-135
0
VERTEX
8
DOOR
10
0
20
0
30
0
70
128
71
-116
72
135
73
117
0
VERTEX
8
DOOR
10
0
20
0
30
0
70
128
71
117
72
135
73
-136
0
VERTEX
8
DOOR
10
0
20
0
30
0
70
128
71
-117
72
136
73
118
0
VERTEX
8
DOOR
10
0
20
0
30
0
70
128
71
118
72
136
73
-137
0
VERTEX
8
DOOR
10
0
20
0
30
0
70
128
71
-118
72
137
73
119
0
VERTEX
8
DOOR
10
0
20
0
30
0
70
128
71
119
72
137
73
-138
0
VERTEX
8
DOOR
10
0
20
0
30
0
70
128
71
-119
72
138
73
120
0
VERTEX
8
DOOR
10
0
20
0
30
0
70
128
71
120
72
138
73
-139
0
VERTEX
8
DOOR
10
0
20
0
30
0
70
128
71
-120
72
139
73
121
0
VERTEX
8
DOOR
10
0
20
0
30
0
70
128
71
121
72
139
73
-140
0
VERTEX
8
DOOR
10
0
20
0
30
0
70
128
71
-121
72
140
73
122
0
VERTEX
8
DOOR
10
0
20
0
30
0
70
128
71
122
72
140
73
-141
0
VERTEX
8
DOOR
10
0
20
0
30
0
70
128
71
-122
72
141
73
123
0
VERTEX
8
DOOR
10
0
20
0
30
0
70
128
71
123
72
141
73
-124
0
VERTEX
8
DOOR
10
0
20
0
30
0
70
128
71
-123
72
124
73
106
0
VERTEX
8
DOOR
10
0
20
0
30
0
70
128
71
124
72
142
73
-143
0
VERTEX
8
DOOR
10
0
20
0
30
0
70
128
71
-124
72
143
73
125
0
VERTEX
8
DOOR
10
0
20
0
30
0
70
128
71
125
72
143
73
-144
0
VERTEX
8
DOOR
10
0
20
0
30
0
70
128
71
-125
72
144
73
126
0
VERTEX
8
DOOR
10
0
20
0
30
0
70
128
71
126
72
144
73
-145
0
VERTEX
8
DOOR
10
0
20
0
30
0
70
128
71
-126
72
145
73
127
0
VERTEX
8
DOOR
10
0
20
0
30
0
70
128
71
127
72
145
73
-146
0
VERTEX
8
DOOR
10
0
20
0
30
0
70
128
71
-127
72
146
73
128
0
VERTEX
8
DOOR
10
0
20
0
30
0
70
128
71
128
72
146
73
-147
0
VERTEX
8
DOOR
10
0
20
0
30
0
70
128
71
-128
72
147
73
129
0
VERTEX
8
DOOR
10
0
20
0
30
0
70
128
71
129
72
147
73
-148
0
VERTEX
8
DOOR
10
0
20
0
30
0
70
128
71
-129
72
148
73
130
0
VERTEX
8
DOOR
10
0
20
0
30
0
70
128
71
130
72
148
73
-149
0
VERTEX
8
DOOR
10
0
20
0
30
0
70
128
71
-130
72
149
73
131
0
VERTEX
8
DOOR
10
0
20
0
30
0
70
128
71
131
72
149
73
-150
0
VERTEX
8
DOOR
10
0
20
0
30
0
70
128
71
-131
72
150
73
132
0
VERTEX
8
DOOR
10
0
20
0
30
0
70
128
71
132
72
150
73
-151
0
VERTEX
8
DOOR
10
0
20
0
30
0
70
128
71
-132
72
151
73
133
0
VERTEX
8
DOOR
10
0
20
0
30
0
70
128
71
133
72
151
73
-152
0
VERTEX
8
DOOR
10
0
20
0
30
0
70
128
71
-133
72
152
73
134
0
VERTEX
8
DOOR
10
0
20
0
30
0
70
128
71
134
72
152
73
-153
0
VERTEX
8
DOOR
10
0
20
0
30
0
70
128
71
-134
72
153
73
135
0
VERTEX
8
DOOR
10
0
20
0
30
0
70
128
71
135
72
153
73
-154
0
VERTEX
8
DOOR
10
0
20
0
30
0
70
128
71
-135
72
154
73
136
0
VERTEX
8
DOOR
10
0
20
0
30
0
70
128
71
136
72
154
73
-155
0
VERTEX
8
DOOR
10
0
20
0
30
0
70
128
71
-136
72
155
73
137
0
VERTEX
8
DOOR
10
0
20
0
30
0
70
128
71
137
72
155
73
-156
0
VERTEX
8
DOOR
10
0
20
0
30
0
70
128
71
-137
72
156
73
138
0
VERTEX
8
DOOR
10
0
20
0
30
0
70
128
71
138
72
156
73
-157
0
VERTEX
8
DOOR
10
0
20
0
30
0
70
128
71
-138
72
157
73
139
0
VERTEX
8
DOOR
10
0
20
0
30
0
70
128
71
139
72
157
73
-158
0
VERTEX
8
DOOR
10
0
20
0
30
0
70
128
71
-139
72
158
73
140
0
VERTEX
8
DOOR
10
0
20
0
30
0
70
128
71
140
72
158
73
-159
0
VERTEX
8
DOOR
10
0
20
0
30
0
70
128
71
-140
72
159
73
141
0
VERTEX
8
DOOR
10
0
20
0
30
0
70
128
71
141
72
159
73
-142
0
VERTEX
8
DOOR
10
0
20
0
30
0
70
128
71
-141
72
142
73
124
0
VERTEX
8
DOOR
10
0
20
0
30
0
70
128
71
142
72
160
73
-161
0
VERTEX
8
DOOR
10
0
20
0
30
0
70
128
71
-142
72
161
73
143
0
VERTEX
8
DOOR
10
0
20
0
30
0
70
128
71
143
72
161
73
-162
0
VERTEX
8
DOOR
10
0
20
0
30
0
70
128
71
-143
72
162
73
144
0
VERTEX
8
DOOR
10
0
20
0
30
0
70
128
71
144
72
162
73
-163
0
VERTEX
8
DOOR
10
0
20
0
30
0
70
128
71
-144
72
163
73
145
0
VERTEX
8
DOOR
10
0
20
0
30
0
70
128
71
145
72
163
73
-164
0
VERTEX
8
DOOR
10
0
20
0
30
0
70
128
71
-145
72
164
73
146
0
VERTEX
8
DOOR
10
0
20
0
30
0
70
128
71
146
72
164
73
-165
0
VERTEX
8
DOOR
10
0
20
0
30
0
70
128
71
-146
72
165
73
147
0
VERTEX
8
DOOR
10
0
20
0
30
0
70
128
71
147
72
165
73
-166
0
VERTEX
8
DOOR
10
0
20
0
30
0
70
128
71
-147
72
166
73
148
0
VERTEX
8
DOOR
10
0
20
0
30
0
70
128
71
148
72
166
73
-167
0
VERTEX
8
DOOR
10
0
20
0
30
0
70
128
71
-148
72
167
73
149
0
VERTEX
8
DOOR
10
0
20
0
30
0
70
128
71
149
72
167
73
-168
0
VERTEX
8
DOOR
10
0
20
0
30
0
70
128
71
-149
72
168
73
150
0
VERTEX
8
DOOR
10
0
20
0
30
0
70
128
71
150
72
168
73
-169
0
VERTEX
8
DOOR
10
0
20
0
30
0
70
128
71
-150
72
169
73
151
0
VERTEX
8
DOOR
10
0
20
0
30
0
70
128
71
151
72
169
73
-170
0
VERTEX
8
DOOR
10
0
20
0
30
0
70
128
71
-151
72
170
73
152
0
VERTEX
8
DOOR
10
0
20
0
30
0
70
128
71
152
72
170
73
-171
0
VERTEX
8
DOOR
10
0
20
0
30
0
70
128
71
-152
72
171
73
153
0
VERTEX
8
DOOR
10
0
20
0
30
0
70
128
71
153
72
171
73
-172
0
VERTEX
8
DOOR
10
0
20
0
30
0
70
128
71
-153
72
172
73
154
0
VERTEX
8
DOOR
10
0
20
0
30
0
70
128
71
154
72
172
73
-173
0
VERTEX
8
DOOR
10
0
20
0
30
0
70
128
71
-154
72
173
73
155
0
VERTEX
8
DOOR
10
0
20
0
30
0
70
128
71
155
72
173
73
-174
0
VERTEX
8
DOOR
10
0
20
0
30
0
70
128
71
-155
72
174
73
156
0
VERTEX
8
DOOR
10
0
20
0
30
0
70
128
71
156
72
174
73
-175
0
VERTEX
8
DOOR
10
0
20
0
30
0
70
128
71
-156
72
175
73
157
0
VERTEX
8
DOOR
10
0
20
0
30
0
70
128
71
157
72
175
73
-176
0
VERTEX
8
DOOR
10
0
20
0
30
0
70
128
71
-157
72
176
73
158
0
VERTEX
8
DOOR
10
0
20
0
30
0
70
128
71
158
72
176
73
-177
0
VERTEX
8
DOOR
10
0
20
0
30
0
70
128
71
-158
72
177
73
159
0
VERTEX
8
DOOR
10
0
20
0
30
0
70
128
71
159
72
177
73
-160
0
VERTEX
8
DOOR
10
0
20
0
30
0
70
128
71
-159
72
160
73
142
0
VERTEX
8
DOOR
10
0
20
0
30
0
70
128
71
160
72
178
73
-179
0
VERTEX
8
DOOR
10
0
20
0
30
0
70
128
71
-160
72
179
73
161
0
VERTEX
8
DOOR
10
0
20
0
30
0
70
128
71
161
72
179
73
-180
0
VERTEX
8
DOOR
10
0
20
0
30
0
70
128
71
-161
72
180
73
162
0
VERTEX
8
DOOR
10
0
20
0
30
0
70
128
71
162
72
180
73
-181
0
VERTEX
8
DOOR
10
0
20
0
30
0
70
128
71
-162
72
181
73
163
0
VERTEX
8
DOOR
10
0
20
0
30
0
70
128
71
163
72
181
73
-182
0
VERTEX
8
DOOR
10
0
20
0
30
0
70
128
71
-163
72
182
73
164
0
VERTEX
8
DOOR
10
0
20
0
30
0
70
128
71
164
72
182
73
-183
0
VERTEX
8
DOOR
10
0
20
0
30
0
70
128
71
-164
72
183
73
165
0
VERTEX
8
DOOR
10
0
20
0
30
0
70
128
71
165
72
183
73
-184
0
VERTEX
8
DOOR
10
0
20
0
30
0
70
128
71
-165
72
184
73
166
0
VERTEX
8
DOOR
10
0
20
0
30
0
70
128
71
166
72
184
73
-185
0
VERTEX
8
DOOR
10
0
20
0
30
0
70
128
71
-166
72
185
73
167
0
VERTEX
8
DOOR
10
0
20
0
30
0
70
128
71
167
72
185
73
-186
0
VERTEX
8
DOOR
10
0
20
0
30
0
70
128
71
-167
72
186
73
168
0
VERTEX
8
DOOR
10
0
20
0
30
0
70
128
71
168
72
186
73
-187
0
VERTEX
8
DOOR
10
0
20
0
30
0
70
128
71
-168
72
187
73
169
0
VERTEX
8
DOOR
10
0
20
0
30
0
70
128
71
169
72
187
73
-188
0
VERTEX
8
DOOR
10
0
20
0
30
0
70
128
71
-169
72
188
73
170
0
VERTEX
8
DOOR
10
0
20
0
30
0
70
128
71
170
72
188
73
-189
0
VERTEX
8
DOOR
10
0
20
0
30
0
70
128
71
-170
72
189
73
171
0
VERTEX
8
DOOR
10
0
20
0
30
0
70
128
71
171
72
189
73
-190
0
VERTEX
8
DOOR
10
0
20
0
30
0
70
128
71
-171
72
190
73
172
0
VERTEX
8
DOOR
10
0
20
0
30
0
70
128
71
172
72
190
73
-191
0
VERTEX
8
DOOR
10
0
20
0
30
0
70
128
71
-172
72
191
73
173
0
VERTEX
8
DOOR
10
0
20
0
30
0
70
128
71
173
72
191
73
-192
0
VERTEX
8
DOOR
10
0
20
0
30
0
70
128
71
-173
72
192
73
174
0
VERTEX
8
DOOR
10
0
20
0
30
0
70
128
71
174
72
192
73
-193
0
VERTEX
8
DOOR
10
0
20
0
30
0
70
128
71
-174
72
193
73
175
0
VERTEX
8
DOOR
10
0
20
0
30
0
70
128
71
175
72
193
73
-194
0
VERTEX
8
DOOR
10
0
20
0
30
0
70
128
71
-175
72
194
73
176
0
VERTEX
8
DOOR
10
0
20
0
30
0
70
128
71
176
72
194
73
-195
0
VERTEX
8
DOOR
10
0
20
0
30
0
70
128
71
-176
72
195
73
177
0
VERTEX
8
DOOR
10
0
20
0
30
0
70
128
71
177
72
195
73
-178
0
VERTEX
8
DOOR
10
0
20
0
30
0
70
128
71
-177
72
178
73
160
0
VERTEX
8
DOOR
10
0
20
0
30
0
70
128
71
178
72
196
73
-197
0
VERTEX
8
DOOR
10
0
20
0
30
0
70
128
71
-178
72
197
73
179
0
VERTEX
8
DOOR
10
0
20
0
30
0
70
128
71
179
72
197
73
-198
0
VERTEX
8
DOOR
10
0
20
0
30
0
70
128
71
-179
72
198
73
180
0
VERTEX
8
DOOR
10
0
20
0
30
0
70
128
71
180
72
198
73
-199
0
VERTEX
8
DOOR
10
0
20
0
30
0
70
128
71
-180
72
199
73
181
0
VERTEX
8
DOOR
10
0
20
0
30
0
70
128
71
181
72
199
73
-200
0
VERTEX
8
DOOR
10
0
20
0
30
0
70
128
71
-181
72
200
73
182
0
VERTEX
8
DOOR
10
0
20
0
30
0
70
128
71
182
72
200
73
-201
0
VERTEX
8
DOOR
10
0
20
0
30
0
70
128
71
-182
72
201
73
183
0
VERTEX
8
DOOR
10
0
20
0
30
0
70
128
71
183
72
201
73
-202
0
VERTEX
8
DOOR
10
0
20
0
30
0
70
128
71
-183
72
202
73
184
0
VERTEX
8
DOOR
10
0
20
0
30
0
70
128
71
184
72
202
73
-203
0
VERTEX
8
DOOR
10
0
20
0
30
0
70
128
71
-184
72
203
73
185
0
VERTEX
8
DOOR
10
0
20
0
30
0
70
128
71
185
72
203
73
-204
0
VERTEX
8
DOOR
10
0
20
0
30
0
70
128
71
-185
72
204
73
186
0
VERTEX
8
DOOR
10
0
20
0
30
0
70
128
71
186
72
204
73
-205
0
VERTEX
8
DOOR
10
0
20
0
30
0
70
128
71
-186
72
205
73
187
0
VERTEX
8
DOOR
10
0
20
0
30
0
70
128
71
187
72
205
73
-206
0
VERTEX
8
DOOR
10
0
20
0
30
0
70
128
71
-187
72
206
73
188
0
VERTEX
8
DOOR
10
0
20
0
30
0
70
128
71
188
72
206
73
-207
0
VERTEX
8
DOOR
10
0
20
0
30
0
70
128
71
-188
72
207
73
189
0
VERTEX
8
DOOR
10
0
20
0
30
0
70
128
71
189
72
207
73
-208
0
VERTEX
8
DOOR
10
0
20
0
30
0
70
128
71
-189
72
208
73
190
0
VERTEX
8
DOOR
10
0
20
0
30
0
70
128
71
190
72
208
73
-209
0
VERTEX
8
DOOR
10
0
20
0
30
0
70
128
71
-190
72
209
73
191
0
VERTEX
8
DOOR
10
0
20
0
30
0
70
128
71
191
72
209
73
-210
0
VERTEX
8
DOOR
10
0
20
0
30
0
70
128
71
-191
72
210
73
192
0
VERTEX
8
DOOR
10
0
20
0
30
0
70
128
71
192
72
210
73
-211
0
VERTEX
8
DOOR
10
0
20
0
30
0
70
128
71
-192
72
211
73
193
0
VERTEX
8
DOOR
10
0
20
0
30
0
70
128
71
193
72
211
73
-212
0
VERTEX
8
DOOR
10
0
20
0
30
0
70
128
71
-193
72
212
73
194
0
VERTEX
8
DOOR
10
0
20
0
30
0
70
128
71
194
72
212
73
-213
0
VERTEX
8
DOOR
10
0
20
0
30
0
70
128
71
-194
72
213
73
195
0
VERTEX
8
DOOR
10
0
20
0
30
0
70
128
71
195
72
213
73
-196
0
VERTEX
8
DOOR
10
0
20
0
30
0
70
128
71
-195
72
196
73
178
0
VERTEX
8
DOOR
10
0
20
0
30
0
70
128
71
196
72
214
73
-215
0
VERTEX
8
DOOR
10
0
20
0
30
0
70
128
71
-196
72
215
73
197
0
VERTEX
8
DOOR
10
0
20
0
30
0
70
128
71
197
72
215
73
-216
0
VERTEX
8
DOOR
10
0
20
0
30
0
70
128
71
-197
72
216
73
198
0
VERTEX
8
DOOR
10
0
20
0
30
0
70
128
71
198
72
216
73
-217
0
VERTEX
8
DOOR
10
0
20
0
30
0
70
128
71
-198
72
217
73
199
0
VERTEX
8
DOOR
10
0
20
0
30
0
70
128
71
199
72
217
73
-218
0
VERTEX
8
DOOR
10
0
20
0
30
0
70
128
71
-199
72
218
73
200
0
VERTEX
8
DOOR
10
0
20
0
30
0
70
128
71
200
72
218
73
-219
0
VERTEX
8
DOOR
10
0
20
0
30
0
70
128
71
-200
72
219
73
201
0
VERTEX
8
DOOR
10
0
20
0
30
0
70
128
71
201
72
219
73
-220
0
VERTEX
8
DOOR
10
0
20
0
30
0
70
128
71
-201
72
220
73
202
0
VERTEX
8
DOOR
10
0
20
0
30
0
70
128
71
202
72
220
73
-221
0
VERTEX
8
DOOR
10
0
20
0
30
0
70
128
71
-202
72
221
73
203
0
VERTEX
8
DOOR
10
0
20
0
30
0
70
128
71
203
72
221
73
-222
0
VERTEX
8
DOOR
10
0
20
0
30
0
70
128
71
-203
72
222
73
204
0
VERTEX
8
DOOR
10
0
20
0
30
0
70
128
71
204
72
222
73
-223
0
VERTEX
8
DOOR
10
0
20
0
30
0
70
128
71
-204
72
223
73
205
0
VERTEX
8
DOOR
10
0
20
0
30
0
70
128
71
205
72
223
73
-224
0
VERTEX
8
DOOR
10
0
20
0
30
0
70
128
71
-205
72
224
73
206
0
VERTEX
8
DOOR
10
0
20
0
30
0
70
128
71
206
72
224
73
-225
0
VERTEX
8
DOOR
10
0
20
0
30
0
70
128
71
-206
72
225
73
207
0
VERTEX
8
DOOR
10
0
20
0
30
0
70
128
71
207
72
225
73
-226
0
VERTEX
8
DOOR
10
0
20
0
30
0
70
128
71
-207
72
226
73
208
0
VERTEX
8
DOOR
10
0
20
0
30
0
70
128
71
208
72
226
73
-227
0
VERTEX
8
DOOR
10
0
20
0
30
0
70
128
71
-208
72
227
73
209
0
VERTEX
8
DOOR
10
0
20
0
30
0
70
128
71
209
72
227
73
-228
0
VERTEX
8
DOOR
10
0
20
0
30
0
70
128
71
-209
72
228
73
210
0
VERTEX
8
DOOR
10
0
20
0
30
0
70
128
71
210
72
228
73
-229
0
VERTEX
8
DOOR
10
0
20
0
30
0
70
128
71
-210
72
229
73
211
0
VERTEX
8
DOOR
10
0
20
0
30
0
70
128
71
211
72
229
73
-230
0
VERTEX
8
DOOR
10
0
20
0
30
0
70
128
71
-211
72
230
73
212
0
VERTEX
8
DOOR
10
0
20
0
30
0
70
128
71
212
72
230
73
-231
0
VERTEX
8
DOOR
10
0
20
0
30
0
70
128
71
-212
72
231
73
213
0
VERTEX
8
DOOR
10
0
20
0
30
0
70
128
71
213
72
231
73
-214
0
VERTEX
8
DOOR
10
0
20
0
30
0
70
128
71
-213
72
214
73
196
0
VERTEX
8
DOOR
10
0
20
0
30
0
70
128
71
232
72
233
73
-215
0
VERTEX
8
DOOR
10
0
20
0
30
0
70
128
71
215
72
214
73
-232
0
VERTEX
8
DOOR
10
0
20
0
30
0
70
128
71
233
72
234
73
-216
0
VERTEX
8
DOOR
10
0
20
0
30
0
70
128
71
216
72
215
73
-233
0
VERTEX
8
DOOR
10
0
20
0
30
0
70
128
71
234
72
235
73
-217
0
VERTEX
8
DOOR
10
0
20
0
30
0
70
128
71
217
72
216
73
-234
0
VERTEX
8
DOOR
10
0
20
0
30
0
70
128
71
235
72
236
73
-218
0
VERTEX
8
DOOR
10
0
20
0
30
0
70
128
71
218
72
217
73
-235
0
VERTEX
8
DOOR
10
0
20
0
30
0
70
128
71
236
72
237
73
-219
0
VERTEX
8
DOOR
10
0
20
0
30
0
70
128
71
219
72
218
73
-236
0
VERTEX
8
DOOR
10
0
20
0
30
0
70
128
71
237
72
238
73
-220
0
VERTEX
8
DOOR
10
0
20
0
30
0
70
128
71
220
72
219
73
-237
0
VERTEX
8
DOOR
10
0
20
0
30
0
70
128
71
238
72
239
73
-221
0
VERTEX
8
DOOR
10
0
20
0
30
0
70
128
71
221
72
220
73
-238
0
VERTEX
8
DOOR
10
0
20
0
30
0
70
128
71
239
72
240
73
-222
0
VERTEX
8
DOOR
10
0
20
0
30
0
70
128
71
222
72
221
73
-239
0
VERTEX
8
DOOR
10
0
20
0
30
0
70
128
71
240
72
241
73
-223
0
VERTEX
8
DOOR
10
0
20
0
30
0
70
128
71
223
72
222
73
-240
0
VERTEX
8
DOOR
10
0
20
0
30
0
70
128
71
241
72
242
73
-224
0
VERTEX
8
DOOR
10
0
20
0
30
0
70
128
71
224
72
223
73
-241
0
VERTEX
8
DOOR
10
0
20
0
30
0
70
128
71
242
72
243
73
-225
0
VERTEX
8
DOOR
10
0
20
0
30
0
70
128
71
225
72
224
73
-242
0
VERTEX
8
DOOR
10
0
20
0
30
0
70
128
71
243
72
244
73
-226
0
VERTEX
8
DOOR
10
0
20
0
30
0
70
128
71
226
72
225
73
-243
0
VERTEX
8
DOOR
10
0
20
0
30
0
70
128
71
244
72
245
73
-227
0
VERTEX
8
DOOR
10
0
20
0
30
0
70
128
71
227
72
226
73
-244
0
VERTEX
8
DOOR
10
0
20
0
30
0
70
128
71
245
72
246
73
-228
0
VERTEX
8
DOOR
10
0
20
0
30
0
70
128
71
228
72
227
73
-245
0
VERTEX
8
DOOR
10
0
20
0
30
0
70
128
71
246
72
247
73
-229
0
VERTEX
8
DOOR
10
0
20
0
30
0
70
128
71
229
72
228
73
-246
0
VERTEX
8
DOOR
10
0
20
0
30
0
70
128
71
247
72
248
73
-230
0
VERTEX
8
DOOR
10
0
20
0
30
0
70
128
71
230
72
229
73
-247
0
VERTEX
8
DOOR
10
0
20
0
30
0
70
128
71
248
72
249
73
-231
0
VERTEX
8
DOOR
10
0
20
0
30
0
70
128
71
231
72
230
73
-248
0
VERTEX
8
DOOR
10
0
20
0
30
0
70
128
71
249
72
232
73
-214
0
VERTEX
8
DOOR
10
0
20
0
30
0
70
128
71
214
72
231
73
-249
0
VERTEX
8
DOOR
10
0
20
0
30
0
70
128
71
250
72
251
73
-233
0
VERTEX
8
DOOR
10
0
20
0
30
0
70
128
71
233
72
232
73
-250
0
VERTEX
8
DOOR
10
0
20
0
30
0
70
128
71
251
72
252
73
-234
0
VERTEX
8
DOOR
10
0
20
0
30
0
70
128
71
234
72
233
73
-251
0
VERTEX
8
DOOR
10
0
20
0
30
0
70
128
71
252
72
253
73
-235
0
VERTEX
8
DOOR
10
0
20
0
30
0
70
128
71
235
72
234
73
-252
0
VERTEX
8
DOOR
10
0
20
0
30
0
70
128
71
253
72
254
73
-236
0
VERTEX
8
DOOR
10
0
20
0
30
0
70
128
71
236
72
235
73
-253
0
VERTEX
8
DOOR
10
0
20
0
30
0
70
128
71
254
72
255
73
-237
0
VERTEX
8
DOOR
10
0
20
0
30
0
70
128
71
237
72
236
73
-254
0
VERTEX
8
DOOR
10
0
20
0
30
0
70
128
71
255
72
256
73
-238
0
VERTEX
8
DOOR
10
0
20
0
30
0
70
128
71
238
72
237
73
-255
0
VERTEX
8
DOOR
10
0
20
0
30
0
70
128
71
256
72
257
73
-239
0
VERTEX
8
DOOR
10
0
20
0
30
0
70
128
71
239
72
238
73
-256
0
VERTEX
8
DOOR
10
0
20
0
30
0
70
128
71
257
72
258
73
-240
0
VERTEX
8
DOOR
10
0
20
0
30
0
70
128
71
240
72
239
73
-257
0
VERTEX
8
DOOR
10
0
20
0
30
0
70
128
71
258
72
259
73
-241
0
VERTEX
8
DOOR
10
0
20
0
30
0
70
128
71
241
72
240
73
-258
0
VERTEX
8
DOOR
10
0
20
0
30
0
70
128
71
259
72
260
73
-242
0
VERTEX
8
DOOR
10
0
20
0
30
0
70
128
71
242
72
241
73
-259
0
VERTEX
8
DOOR
10
0
20
0
30
0
70
128
71
260
72
261
73
-243
0
VERTEX
8
DOOR
10
0
20
0
30
0
70
128
71
243
72
242
73
-260
0
VERTEX
8
DOOR
10
0
20
0
30
0
70
128
71
261
72
262
73
-244
0
VERTEX
8
DOOR
10
0
20
0
30
0
70
128
71
244
72
243
73
-261
0
VERTEX
8
DOOR
10
0
20
0
30
0
70
128
71
262
72
263
73
-245
0
VERTEX
8
DOOR
10
0
20
0
30
0
70
128
71
245
72
244
73
-262
0
VERTEX
8
DOOR
10
0
20
0
30
0
70
128
71
263
72
264
73
-246
0
VERTEX
8
DOOR
10
0
20
0
30
0
70
128
71
246
72
245
73
-263
0
VERTEX
8
DOOR
10
0
20
0
30
0
70
128
71
264
72
265
73
-247
0
VERTEX
8
DOOR
10
0
20
0
30
0
70
128
71
247
72
246
73
-264
0
VERTEX
8
DOOR
10
0
20
0
30
0
70
128
71
265
72
266
73
-248
0
VERTEX
8
DOOR
10
0
20
0
30
0
70
128
71
248
72
247
73
-265
0
VERTEX
8
DOOR
10
0
20
0
30
0
70
128
71
266
72
267
73
-249
0
VERTEX
8
DOOR
10
0
20
0
30
0
70
128
71
249
72
248
73
-266
0
VERTEX
8
DOOR
10
0
20
0
30
0
70
128
71
267
72
250
73
-232
0
VERTEX
8
DOOR
10
0
20
0
30
0
70
128
71
232
72
249
73
-267
0
VERTEX
8
DOOR
10
0
20
0
30
0
70
128
71
268
72
269
73
-251
0
VERTEX
8
DOOR
10
0
20
0
30
0
70
128
71
251
72
250
73
-268
0
VERTEX
8
DOOR
10
0
20
0
30
0
70
128
71
269
72
270
73
-252
0
VERTEX
8
DOOR
10
0
20
0
30
0
70
128
71
252
72
251
73
-269
0
VERTEX
8
DOOR
10
0
20
0
30
0
70
128
71
270
72
271
73
-253
0
VERTEX
8
DOOR
10
0
20
0
30
0
70
128
71
253
72
252
73
-270
0
VERTEX
8
DOOR
10
0
20
0
30
0
70
128
71
271
72
272
73
-254
0
VERTEX
8
DOOR
10
0
20
0
30
0
70
128
71
254
72
253
73
-271
0
VERTEX
8
DOOR
10
0
20
0
30
0
70
128
71
272
72
273
73
-255
0
VERTEX
8
DOOR
10
0
20
0
30
0
70
128
71
255
72
254
73
-272
0
VERTEX
8
DOOR
10
0
20
0
30
0
70
128
71
273
72
274
73
-256
0
VERTEX
8
DOOR
10
0
20
0
30
0
70
128
71
256
72
255
73
-273
0
VERTEX
8
DOOR
10
0
20
0
30
0
70
128
71
274
72
275
73
-257
0
VERTEX
8
DOOR
10
0
20
0
30
0
70
128
71
257
72
256
73
-274
0
VERTEX
8
DOOR
10
0
20
0
30
0
70
128
71
275
72
276
73
-258
0
VERTEX
8
DOOR
10
0
20
0
30
0
70
128
71
258
72
257
73
-275
0
VERTEX
8
DOOR
10
0
20
0
30
0
70
128
71
276
72
277
73
-259
0
VERTEX
8
DOOR
10
0
20
0
30
0
70
128
71
259
72
258
73
-276
0
VERTEX
8
DOOR
10
0
20
0
30
0
70
128
71
277
72
278
73
-260
0
VERTEX
8
DOOR
10
0
20
0
30
0
70
128
71
260
72
259
73
-277
0
VERTEX
8
DOOR
10
0
20
0
30
0
70
128
71
278
72
279
73
-261
0
VERTEX
8
DOOR
10
0
20
0
30
0
70
128
71
261
72
260
73
-278
0
VERTEX
8
DOOR
10
0
20
0
30
0
70
128
71
279
72
280
73
-262
0
VERTEX
8
DOOR
10
0
20
0
30
0
70
128
71
262
72
261
73
-279
0
VERTEX
8
DOOR
10
0
20
0
30
0
70
128
71
280
72
281
73
-263
0
VERTEX
8
DOOR
10
0
20
0
30
0
70
128
71
263
72
262
73
-280
0
VERTEX
8
DOOR
10
0
20
0
30
0
70
128
71
281
72
282
73
-264
0
VERTEX
8
DOOR
10
0
20
0
30
0
70
128
71
264
72
263
73
-281
0
VERTEX
8
DOOR
10
0
20
0
30
0
70
128
71
282
72
283
73
-265
0
VERTEX
8
DOOR
10
0
20
0
30
0
70
128
71
265
72
264
73
-282
0
VERTEX
8
DOOR
10
0
20
0
30
0
70
128
71
283
72
284
73
-266
0
VERTEX
8
DOOR
10
0
20
0
30
0
70
128
71
266
72
265
73
-283
0
VERTEX
8
DOOR
10
0
20
0
30
0
70
128
71
284
72
285
73
-267
0
VERTEX
8
DOOR
10
0
20
0
30
0
70
128
71
267
72
266
73
-284
0
VERTEX
8
DOOR
10
0
20
0
30
0
70
128
71
285
72
268
73
-250
0
VERTEX
8
DOOR
10
0
20
0
30
0
70
128
71
250
72
267
73
-285
0
VERTEX
8
DOOR
10
0
20
0
30
0
70
128
71
286
72
287
73
-269
0
VERTEX
8
DOOR
10
0
20
0
30
0
70
128
71
269
72
268
73
-286
0
VERTEX
8
DOOR
10
0
20
0
30
0
70
128
71
287
72
288
73
-270
0
VERTEX
8
DOOR
10
0
20
0
30
0
70
128
71
270
72
269
73
-287
0
VERTEX
8
DOOR
10
0
20
0
30
0
70
128
71
288
72
289
73
-271
0
VERTEX
8
DOOR
10
0
20
0
30
0
70
128
71
271
72
270
73
-288
0
VERTEX
8
DOOR
10
0
20
0
30
0
70
128
71
289
72
290
73
-272
0
VERTEX
8
DOOR
10
0
20
0
30
0
70
128
71
272
72
271
73
-289
0
VERTEX
8
DOOR
10
0
20
0
30
0
70
128
71
290
72
291
73
-273
0
VERTEX
8
DOOR
10
0
20
0
30
0
70
128
71
273
72
272
73
-290
0
VERTEX
8
DOOR
10
0
20
0
30
0
70
128
71
291
72
292
73
-274
0
VERTEX
8
DOOR
10
0
20
0
30
0
70
128
71
274
72
273
73
-291
0
VERTEX
8
DOOR
10
0
20
0
30
0
70
128
71
292
72
293
73
-275
0
VERTEX
8
DOOR
10
0
20
0
30
0
70
128
71
275
72
274
73
-292
0
VERTEX
8
DOOR
10
0
20
0
30
0
70
128
71
293
72
294
73
-276
0
VERTEX
8
DOOR
10
0
20
0
30
0
70
128
71
276
72
275
73
-293
0
VERTEX
8
DOOR
10
0
20
0
30
0
70
128
71
294
72
295
73
-277
0
VERTEX
8
DOOR
10
0
20
0
30
0
70
128
71
277
72
276
73
-294
0
VERTEX
8
DOOR
10
0
20
0
30
0
70
128
71
295
72
296
73
-278
0
VERTEX
8
DOOR
10
0
20
0
30
0
70
128
71
278
72
277
73
-295
0
VERTEX
8
DOOR
10
0
20
0
30
0
70
128
71
296
72
297
73
-279
0
VERTEX
8
DOOR
10
0
20
0
30
0
70
128
71
279
72
278
73
-296
0
VERTEX
8
DOOR
10
0
20
0
30
0
70
128
71
297
72
298
73
-280
0
VERTEX
8
DOOR
10
0
20
0
30
0
70
128
71
280
72
279
73
-297
0
VERTEX
8
DOOR
10
0
20
0
30
0
70
128
71
298
72
299
73
-281
0
VERTEX
8
DOOR
10
0
20
0
30
0
70
128
71
281
72
280
73
-298
0
VERTEX
8
DOOR
10
0
20
0
30
0
70
128
71
299
72
300
73
-282
0
VERTEX
8
DOOR
10
0
20
0
30
0
70
128
71
282
72
281
73
-299
0
VERTEX
8
DOOR
10
0
20
0
30
0
70
128
71
300
72
301
73
-283
0
VERTEX
8
DOOR
10
0
20
0
30
0
70
128
71
283
72
282
73
-300
0
VERTEX
8
DOOR
10
0
20
0
30
0
70
128
71
301
72
302
73
-284
0
VERTEX
8
DOOR
10
0
20
0
30
0
70
128
71
284
72
283
73
-301
0
VERTEX
8
DOOR
10
0
20
0
30
0
70
128
71
302
72
303
73
-285
0
VERTEX
8
DOOR
10
0
20
0
30
0
70
128
71
285
72
284
73
-302
0
VERTEX
8
DOOR
10
0
20
0
30
0
70
128
71
303
72
286
73
-268
0
VERTEX
8
DOOR
10
0
20
0
30
0
70
128
71
268
72
285
73
-303
0
VERTEX
8
DOOR
10
0
20
0
30
0
70
128
71
304
72
305
73
-306
0
VERTEX
8
DOOR
10
0
20
0
30
0
70
128
71
-304
72
306
73
307
0
VERTEX
8
DOOR
10
0
20
0
30
0
70
128
71
304
72
308
73
-309
0
VERTEX
8
DOOR
10
0
20
0
30
0
70
128
71
-304
72
309
73
305
0
VERTEX
8
DOOR
10
0
20
0
30
0
70
128
71
305
72
309
73
-310
0
VERTEX
8
DOOR
10
0
20
0
30
0
70
128
71
-305
72
310
73
306
0
VERTEX
8
DOOR
10
0
20
0
30
0
70
128
71
306
72
310
73
-311
0
VERTEX
8
DOOR
10
0
20
0
30
0
70
128
71
-306
72
311
73
307
0
VERTEX
8
DOOR
10
0
20
0
30
0
70
128
71
307
72
311
73
-308
0
VERTEX
8
DOOR
10
0
20
0
30
0
70
128
71
-307
72
308
73
304
0
VERTEX
8
DOOR
10
0
20
0
30
0
70
128
71
308
72
311
73
-310
0
VERTEX
8
DOOR
10
0
20
0
30
0
70
128
71
-308
72
310
73
309
0
SEQEND
8
DOOR
0
ENDSEC
0
EOF
